<?xml version="1.0" encoding="UTF-8" standalone="no"?>
<!DOCTYPE svg PUBLIC "-//W3C//DTD SVG 1.1//EN" "http://www.w3.org/Graphics/SVG/1.1/DTD/svg11.dtd">
<!-- Created with Vectornator (http://vectornator.io/) -->
<svg height="100%" stroke-miterlimit="10" style="fill-rule:nonzero;clip-rule:evenodd;stroke-linecap:round;stroke-linejoin:round;" version="1.1" viewBox="0 0 600 3000" width="100%" xml:space="preserve" xmlns="http://www.w3.org/2000/svg" xmlns:vectornator="http://vectornator.io" xmlns:xlink="http://www.w3.org/1999/xlink">
<defs/>
<clipPath id="ArtboardFrame">
<rect height="3000" width="600" x="0" y="0"/>
</clipPath>
<g clip-path="url(#ArtboardFrame)" id="Black-everything-else" vectornator:layerName="Black everything else">
<path d="M-50.8434 271.803L107.847 271.803L107.847 448.096L-50.8434 448.096L-50.8434 271.803Z" fill="#000000" fill-rule="nonzero" opacity="1" stroke="#007aff" stroke-linecap="butt" stroke-linejoin="round" stroke-opacity="0" stroke-width="0.012153" vectornator:layerName="Rectangle 1"/>
<path d="M-79.1272 648.795L107.847 648.795L107.847 969.553L-79.1272 969.553L-79.1272 648.795Z" fill="#000000" fill-rule="nonzero" opacity="1" stroke="#007aff" stroke-linecap="butt" stroke-linejoin="round" stroke-opacity="0" stroke-width="0.012153" vectornator:layerName="Rectangle 2"/>
<path d="M-79.1272 1001.13L95.7282 1001.13L95.7282 1341.74L-79.1272 1341.74L-79.1272 1001.13Z" fill="#000000" fill-rule="nonzero" opacity="1" stroke="#007aff" stroke-linecap="butt" stroke-linejoin="round" stroke-opacity="0" stroke-width="0.012153" vectornator:layerName="Rectangle 3"/>
<path d="M-120.388 1315.71L97.7685 1315.71L97.7685 1629.29L-120.388 1629.29L-120.388 1315.71Z" fill="#000000" fill-rule="nonzero" opacity="1" stroke="#007aff" stroke-linecap="butt" stroke-linejoin="round" stroke-opacity="0" stroke-width="0.012153" vectornator:layerName="Rectangle 4"/>
<path d="M-120.388 1904.23L205.211 1904.23L205.211 2165.58L-120.388 2165.58L-120.388 1904.23Z" fill="#000000" fill-rule="nonzero" opacity="1" stroke="#007aff" stroke-linecap="butt" stroke-linejoin="round" stroke-opacity="0" stroke-width="0.012153" vectornator:layerName="Rectangle 5"/>
<path d="M-64.5341 2264.16L110.832 2264.16L110.832 2475.04L-64.5341 2475.04L-64.5341 2264.16Z" fill="#000000" fill-rule="nonzero" opacity="1" stroke="#007aff" stroke-linecap="butt" stroke-linejoin="round" stroke-opacity="0" stroke-width="0.012153" vectornator:layerName="Rectangle 6"/>
</g>
<g clip-path="url(#ArtboardFrame)" id="More-dark-green" vectornator:layerName="More dark green">
<path d="M258.942 373.082C258.942 373.082 255.491 366.738 253.639 363.639C251.264 359.665 248.69 355.812 246.266 351.868C244.932 349.699 240.479 339.908 237.728 339.45C236.994 339.327 237.849 340.954 238.116 341.649C238.718 343.215 239.52 344.699 240.315 346.176C243.746 352.548 247.254 358.878 250.793 365.191C255.388 373.389 260.254 381.285 265.41 389.122" fill="#04473a" fill-rule="nonzero" opacity="1" stroke="#007aff" stroke-linecap="butt" stroke-linejoin="round" stroke-opacity="0" stroke-width="0.012153" vectornator:layerName="Curve 1"/>
<path d="M258.166 375.41L258.166 375.41C247.473 359.068 237.233 342.421 226.086 326.385C219.851 317.416 237.392 345.086 243.42 354.196C248.365 361.67 253.958 368.697 259.072 376.057C262.366 380.798 263.282 382.131 267.092 386.405C267.437 386.793 268.462 387.917 268.256 387.44C262.115 373.219 249.187 360.269 240.703 347.211C238.246 343.428 235.929 339.555 233.589 335.699C231.712 332.606 224.918 318.401 226.474 324.315" fill="#04473a" fill-rule="nonzero" opacity="1" stroke="#007aff" stroke-linecap="butt" stroke-linejoin="round" stroke-opacity="0" stroke-width="0.012153" vectornator:layerName="Curve 2"/>
<path d="M239.41 346.694L239.41 346.694" fill="#04473a" fill-rule="nonzero" opacity="1" stroke="#007aff" stroke-linecap="butt" stroke-linejoin="round" stroke-opacity="0" stroke-width="0.012153" vectornator:layerName="Curve 3"/>
<path d="M228.673 324.833L228.673 324.833" fill="#04473a" fill-rule="nonzero" opacity="1" stroke="#007aff" stroke-linecap="butt" stroke-linejoin="round" stroke-opacity="0" stroke-width="0.012153" vectornator:layerName="Curve 4"/>
<path d="M250.793 362.734C250.793 362.734 238.055 346.795 243.42 347.987" fill="#04473a" fill-rule="nonzero" opacity="1" stroke="#007aff" stroke-linecap="butt" stroke-linejoin="round" stroke-opacity="0" stroke-width="124.807" vectornator:layerName="Curve 5"/>
<path d="M249.241 355.36C249.241 355.36 253.035 360.362 254.932 362.863" fill="#04473a" fill-rule="nonzero" opacity="1" stroke="#007aff" stroke-linecap="butt" stroke-linejoin="round" stroke-opacity="0" stroke-width="124.807" vectornator:layerName="Curve 6"/>
<path d="M219.231 314.873C219.231 314.873 217.5 311.599 217.937 312.415C223.322 322.466 229.539 331.602 236.176 340.873" fill="#04473a" fill-rule="nonzero" opacity="1" stroke="#007aff" stroke-linecap="butt" stroke-linejoin="round" stroke-opacity="0" stroke-width="124.807" vectornator:layerName="Curve 7"/>
<path d="M274.723 390.415L274.723 390.415" fill="#04473a" fill-rule="nonzero" opacity="1" stroke="#007aff" stroke-linecap="butt" stroke-linejoin="round" stroke-opacity="0" stroke-width="124.807" vectornator:layerName="Curve 8"/>
<path d="M96.8977 2478.9L202.729 2478.82C202.993 2478.82 203.159 2479.1 203.027 2479.33L150.183 2571.03L97.339 2662.72C97.2072 2662.95 96.877 2662.95 96.7448 2662.72L43.757 2571.11L-9.23072 2479.5C-9.36296 2479.27-9.19811 2478.98-8.93399 2478.98L5.7484 2478.97L96.8977 2478.9Z" fill="#04473a" fill-rule="nonzero" opacity="1" stroke="#007aff" stroke-linecap="butt" stroke-linejoin="round" stroke-opacity="0" stroke-width="0.012153" vectornator:layerName="Star 31"/>
<path d="M310.781 2290.62L204.969 2290.72L113.813 2290.78L99.125 2290.78C98.8609 2290.78 98.7115 2291.08 98.8438 2291.31L151.812 2382.91L204.812 2474.53C204.945 2474.76 205.275 2474.76 205.407 2474.53L258.25 2382.84L311.094 2291.12C311.226 2290.9 311.045 2290.62 310.781 2290.62Z" fill="#04473a" fill-rule="nonzero" opacity="1" stroke="#007aff" stroke-linecap="butt" stroke-linejoin="round" stroke-opacity="0" stroke-width="0.012153" vectornator:layerName="Curve 31"/>
<path d="M-17.8318 87.4684L87.9999 87.3853C88.264 87.3851 88.4293 87.6709 88.2974 87.8997L35.4535 179.594L-17.3904 271.289C-17.5223 271.517-17.8524 271.518-17.9847 271.289L-70.9724 179.678L-123.96 88.0663C-124.092 87.8377-123.928 87.5516-123.663 87.5514L-108.981 87.5399L-17.8318 87.4684Z" fill="#04473a" fill-rule="nonzero" opacity="1" stroke="#007aff" stroke-linecap="butt" stroke-linejoin="round" stroke-opacity="0" stroke-width="0.012153" vectornator:layerName="Star 22"/>
<path d="M187.031 258.344L90.0625 258.406L-1.09375 258.5L-15.7812 258.5C-16.0454 258.5-16.1947 258.803-16.0625 259.031L36.9063 350.625L89.9061 442.25C90.0384 442.478 90.3686 442.478 90.5004 442.249L143.344 350.531L191.813 266.406C191.528 266.178 191.274 265.95 190.969 265.688C190.771 265.517 190.561 265.335 190.25 265.062C190.156 264.98 190.117 264.87 190.031 264.781C189.85 264.622 189.576 264.385 189.438 264.25C189.4 264.213 188.813 263.597 188.75 263.531C187.916 262.65 187.516 261.499 187.562 260.375C187.486 260.261 187.416 260.16 187.344 260.031C187.233 259.832 187.237 259.815 187.063 259.406C186.959 259.194 187.062 258.542 187.031 258.344Z" fill="#04473a" fill-rule="nonzero" opacity="1" stroke="#007aff" stroke-linecap="butt" stroke-linejoin="round" stroke-opacity="0" stroke-width="0.012153" vectornator:layerName="Curve 16"/>
<path d="M189.625 258.75L87.9063 258.812L-3.25 258.906L-17.9375 258.906C-18.2016 258.906-18.351 259.209-18.2187 259.438L34.75 351.031L87.7499 442.656C87.8821 442.885 88.2123 442.884 88.3442 442.656L141.188 350.938L192.438 262C192.211 261.869 191.992 261.745 191.812 261.594C191.315 261.175 191.012 260.495 190.688 259.844C190.703 259.876 190.67 259.964 190.688 260C190.903 260.446 190.896 260.448 191.031 260.656C191.136 260.816 191.23 260.935 191.313 261.031C191.324 261.044 191.129 260.869 190.781 260.562C190.211 260.06 189.861 259.42 189.625 258.75Z" fill="#04473a" fill-rule="nonzero" opacity="1" stroke="#007aff" stroke-linecap="butt" stroke-linejoin="round" stroke-opacity="0" stroke-width="0.012153" vectornator:layerName="Curve 14"/>
<path d="M189.625 258.687L85.6875 258.75L-5.46875 258.844L-20.1562 258.844C-20.4204 258.844-20.5697 259.146-20.4375 259.375L32.5313 350.969L85.5311 442.594C85.6634 442.822 85.9936 442.822 86.1254 442.593L138.969 350.875L190.937 260.719C190.861 260.651 190.89 260.658 190.781 260.562C190.194 260.045 189.858 259.38 189.625 258.687Z" fill="#04473a" fill-rule="nonzero" opacity="1" stroke="#007aff" stroke-linecap="butt" stroke-linejoin="round" stroke-opacity="0" stroke-width="0.012153" vectornator:layerName="Curve 15"/>
<path d="M81.832 263.019L193.465 262.931C193.742 262.931 193.915 263.231 193.776 263.471L138.036 359.738L82.2944 456.009C82.1561 456.248 81.8112 456.248 81.6725 456.009L25.7795 359.826L-30.1112 263.647C-30.2504 263.407-30.0778 263.107-29.8007 263.106L-14.3112 263.094L81.832 263.019Z" fill="#04473a" fill-rule="nonzero" opacity="1" stroke="#007aff" stroke-linecap="butt" stroke-linejoin="round" stroke-opacity="0" stroke-width="0.012734" vectornator:layerName="Star 23"/>
<path d="M-22.385 76.0188L83.4467 75.9357C83.7108 75.9355 83.8761 76.2213 83.7442 76.4501L30.9003 168.145L-21.9436 259.839C-22.0755 260.068-22.4056 260.068-22.5379 259.839L-75.5256 168.228L-128.513 76.6167C-128.646 76.3881-128.481 76.102-128.217 76.1018L-113.534 76.0903L-22.385 76.0188Z" fill="#04473a" fill-rule="nonzero" opacity="1" stroke="#007aff" stroke-linecap="butt" stroke-linejoin="round" stroke-opacity="0" stroke-width="0.012153" vectornator:layerName="Star 21"/>
<path d="M-9.91186 446.081L95.9198 445.998C96.1839 445.997 96.3492 446.283 96.2173 446.512L43.3734 538.206L-9.47048 629.901C-9.60236 630.13-9.93251 630.13-10.0647 629.901L-63.0525 538.29L-116.04 446.679C-116.172 446.45-116.008 446.164-115.744 446.164L-101.061 446.152L-9.91186 446.081Z" fill="#04473a" fill-rule="nonzero" opacity="1" stroke="#007aff" stroke-linecap="butt" stroke-linejoin="round" stroke-opacity="0" stroke-width="0.012153" vectornator:layerName="Star 20"/>
<path d="M88.5944 631.406L194.426 631.323C194.69 631.323 194.855 631.609 194.724 631.838L141.88 723.532L89.0358 815.226C88.9039 815.455 88.5738 815.456 88.4415 815.227L35.4538 723.616L-17.534 632.004C-17.6662 631.776-17.5014 631.489-17.2372 631.489L-2.55485 631.478L88.5944 631.406Z" fill="#04473a" fill-rule="nonzero" opacity="1" stroke="#007aff" stroke-linecap="butt" stroke-linejoin="round" stroke-opacity="0" stroke-width="0.012153" vectornator:layerName="Star 19"/>
<path d="M299.387 815.883L193.544 815.977L102.387 816.039L87.6998 816.07C87.4357 816.071 87.2863 816.342 87.4185 816.57L140.387 908.195L193.387 999.789C193.519 1000.02 193.85 1000.02 193.981 999.788L246.825 908.102L299.669 816.414C299.8 816.185 299.651 815.883 299.387 815.883Z" fill="#04473a" fill-rule="nonzero" opacity="1" stroke="#007aff" stroke-linecap="butt" stroke-linejoin="round" stroke-opacity="0" stroke-width="0.012153" vectornator:layerName="Curve 19"/>
<path d="M8.13885e-05 2299.92L-110.213 2299.92C-110.488 2299.92-110.66 2299.62-110.522 2299.39L-55.4158 2203.94L-0.309352 2108.49C-0.171826 2108.25 0.171989 2108.25 0.309515 2108.49L55.4159 2203.94L110.522 2299.39C110.66 2299.62 110.488 2299.92 110.213 2299.92L94.9227 2299.92L8.13885e-05 2299.92Z" fill="#04473a" fill-rule="nonzero" opacity="1" stroke="#007aff" stroke-linecap="butt" stroke-linejoin="round" stroke-opacity="0" stroke-width="0.0126561" vectornator:layerName="Star 28"/>
<path d="M-12.3003 2662.89L-122.513 2662.89C-122.788 2662.89-122.96 2662.6-122.823 2662.36L-67.7161 2566.91L-12.6097 2471.46C-12.4722 2471.23-12.1284 2471.23-11.9909 2471.46L43.1155 2566.91L98.2219 2662.36C98.3595 2662.6 98.1876 2662.89 97.9125 2662.89L82.6223 2662.89L-12.3003 2662.89Z" fill="#04473a" fill-rule="nonzero" opacity="1" stroke="#007aff" stroke-linecap="butt" stroke-linejoin="round" stroke-opacity="0" stroke-width="0.0126561" vectornator:layerName="Star 30"/>
<path d="M102.248 2290.18C102.111 2289.94 101.764 2289.94 101.627 2290.18L44.9375 2390.13L-11.7488 2490.09C-11.8839 2490.33-11.7118 2490.62-11.438 2490.62L101.937 2490.62L199.531 2490.62L211.594 2490.62C211.568 2490.57 211.525 2490.53 211.5 2490.47C211.097 2489.52 210.236 2488.29 208.656 2486.31C208.634 2486.28 208.423 2486.01 208.344 2485.91C207.97 2485.62 207.59 2485.32 207.281 2484.97C206.962 2484.61 206.71 2484.28 206.5 2483.94C206.307 2483.62 206.176 2483.37 206.031 2483.06C206.007 2483.01 205.933 2482.88 205.875 2482.75C205.446 2482.16 205.012 2481.61 204.75 2480.75C204.11 2478.66 204.478 2476.34 205.812 2474.5C205.987 2474.26 206.243 2474.15 206.438 2473.94L158.906 2390.13L102.248 2290.18Z" fill="#04473a" fill-rule="nonzero" opacity="1" stroke="#007aff" stroke-linecap="butt" stroke-linejoin="round" stroke-opacity="0" stroke-width="0.0126561" vectornator:layerName="Curve 32"/>
<path d="M-4.26233 2299.92L-114.475 2299.92C-114.75 2299.92-114.922 2299.62-114.785 2299.39L-59.6782 2203.94L-4.57176 2108.49C-4.43424 2108.25-4.09042 2108.25-3.95289 2108.49L51.1535 2203.94L106.26 2299.39C106.397 2299.62 106.226 2299.92 105.95 2299.92L90.6603 2299.92L-4.26233 2299.92Z" fill="#04473a" fill-rule="nonzero" opacity="1" stroke="#007aff" stroke-linecap="butt" stroke-linejoin="round" stroke-opacity="0" stroke-width="0.0126561" vectornator:layerName="Star 27"/>
<path d="M-2.98432 1931.82L-113.197 1931.82C-113.472 1931.82-113.644 1931.53-113.507 1931.29L-58.4002 1835.84L-3.29375 1740.39C-3.15623 1740.16-2.81241 1740.16-2.67489 1740.39L52.4315 1835.84L107.538 1931.29C107.675 1931.53 107.504 1931.82 107.228 1931.82L91.9383 1931.82L-2.98432 1931.82Z" fill="#04473a" fill-rule="nonzero" opacity="1" stroke="#007aff" stroke-linecap="butt" stroke-linejoin="round" stroke-opacity="0" stroke-width="0.0126561" vectornator:layerName="Star 26"/>
<path d="M89.2157 813.495C89.0782 813.257 88.7343 813.257 88.5968 813.495L33.5 908.969L-21.6222 1004.4C-21.7598 1004.64-21.5879 1004.94-21.3128 1004.94L88.9062 1004.94L183.844 1004.94L195.438 1004.94C196.34 1003.66 197.135 1002.6 197.875 1001.72L144.312 908.969L89.2157 813.495Z" fill="#04473a" fill-rule="nonzero" opacity="1" stroke="#007aff" stroke-linecap="butt" stroke-linejoin="round" stroke-opacity="0" stroke-width="0.0126561" vectornator:layerName="Curve 18"/>
<path d="M94.1347 1740.22L-16.0781 1740.22C-16.3531 1740.22-16.525 1739.92-16.3875 1739.68L38.7189 1644.23L93.8253 1548.79C93.9628 1548.55 94.3066 1548.55 94.4441 1548.79L149.551 1644.23L204.657 1739.68C204.794 1739.92 204.623 1740.22 204.348 1740.22L189.057 1740.22L94.1347 1740.22Z" fill="#04473a" fill-rule="nonzero" opacity="1" stroke="#007aff" stroke-linecap="butt" stroke-linejoin="round" stroke-opacity="0" stroke-width="0.0126561" vectornator:layerName="Star 25"/>
<path d="M-7.64099 1549.9L98.1907 1549.82C98.4548 1549.82 98.6201 1550.1 98.4882 1550.33L45.6443 1642.03L-7.19961 1733.72C-7.33149 1733.95-7.66164 1733.95-7.79387 1733.72L-60.7816 1642.11L-113.769 1550.5C-113.902 1550.27-113.737 1549.98-113.473 1549.98L-98.7902 1549.97L-7.64099 1549.9Z" fill="#04473a" fill-rule="nonzero" opacity="1" stroke="#007aff" stroke-linecap="butt" stroke-linejoin="round" stroke-opacity="0" stroke-width="0.012153" vectornator:layerName="Star 24"/>
<path d="M96.2641 1370.13L202.096 1370.04C202.36 1370.04 202.525 1370.33 202.393 1370.56L149.549 1462.25L96.7055 1553.95C96.5736 1554.17 96.2435 1554.17 96.1112 1553.95L43.1235 1462.33L-9.86425 1370.72C-9.99649 1370.49-9.83164 1370.21-9.56752 1370.21L5.11488 1370.2L96.2641 1370.13Z" fill="#04473a" fill-rule="nonzero" opacity="1" stroke="#007aff" stroke-linecap="butt" stroke-linejoin="round" stroke-opacity="0" stroke-width="0.012153" vectornator:layerName="Star 17"/>
<path d="M99.7962 2107.11L205.628 2107.03C205.892 2107.03 206.057 2107.32 205.925 2107.54L153.081 2199.24L100.238 2290.93C100.106 2291.16 99.7756 2291.16 99.6433 2290.93L46.6556 2199.32L-6.33218 2107.71C-6.46442 2107.48-6.29957 2107.2-6.03545 2107.2L8.64694 2107.18L99.7962 2107.11Z" fill="#04473a" fill-rule="nonzero" opacity="1" stroke="#007aff" stroke-linecap="butt" stroke-linejoin="round" stroke-opacity="0" stroke-width="0.012153" vectornator:layerName="Star 15"/>
<path d="M1052.65 648.795L1052.65 648.795" fill="#04473a" fill-rule="nonzero" opacity="1" stroke="#007aff" stroke-linecap="butt" stroke-linejoin="round" stroke-opacity="0" stroke-width="0.012153" vectornator:layerName="Curve 9"/>
<path d="M149.379 906.921C149.379 906.921 147.634 902.674 146.687 900.583C145.361 897.655 139.194 885.439 138.827 884.674C138.482 883.956 139.702 886.014 140.017 886.745C140.707 888.343 141.175 890.029 141.832 891.64C143.408 895.5 144.98 899.364 146.716 903.155C150.707 911.87 155.17 920.363 159.241 929.042C159.837 930.312 162.279 936.33 162.497 936.98C162.862 938.071 164.188 941.081 163.309 940.336C157.636 935.528 156.211 927.264 152.787 920.662C147.593 910.647 139.856 887.363 131.334 880.026C130.39 879.212 132.179 882.373 132.618 883.54C133.378 885.562 134.043 887.626 134.934 889.595C136.06 892.088 137.24 894.569 138.66 896.906C143.688 905.182 150.589 914.687 156.204 922.641" fill="#04473a" fill-rule="nonzero" opacity="1" stroke="#007aff" stroke-linecap="butt" stroke-linejoin="round" stroke-opacity="0" stroke-width="0.012153" vectornator:layerName="Curve 20"/>
<path d="M139.069 895.84C139.069 895.84 136.977 890.768 135.97 888.216C133.419 881.752 130.732 875.339 128.395 868.794C128.216 868.292 129.215 869.514 129.461 869.987C130.508 872.001 131.331 874.124 132.247 876.2C133.533 879.112 134.716 882.071 136.067 884.954C141.425 896.39 147.495 907.499 153.918 918.373C156.732 923.137 159.584 927.879 162.438 932.62C163.429 934.267 166.655 939.018 165.382 937.578C154.766 925.575 147.319 910.46 138.472 897.157C136.247 893.812 133.917 890.538 131.579 887.271C130.376 885.59 129.154 883.919 127.851 882.313C127.52 881.905 126.506 880.753 126.691 881.245C133.926 900.481 153.41 920.287 165.603 935.979C167.167 937.991 168.698 940.03 170.271 942.036C171.069 943.054 171.938 946.083 172.715 945.049C173.5 944.004 171.077 943.007 170.365 941.911C167.013 936.748 163.805 931.494 160.529 926.282C154.818 917.194 149.346 908.013 143.96 898.73C141.913 895.203 139.789 891.721 137.758 888.186C137.094 887.03 135.345 883.433 135.91 884.64C146.742 907.792 159.671 930.162 172.302 952.388C174.385 956.054 175.447 961.192 179.287 962.933C179.737 963.136 179.03 961.962 178.755 961.552C177.602 959.836 176.301 958.222 175.027 956.593C173.23 954.297 171.317 952.09 169.575 949.751C169.279 949.354 168.697 948.032 168.729 948.527C169.471 960.045 183.739 969.038 185.233 979.561C185.336 980.288 183.87 978.918 183.384 978.368C181.854 976.639 179.392 971.724 178.498 969.989C176.489 966.095 174.994 962.21 173.771 958.004C173.633 957.53 174.121 958.926 174.303 959.384C174.935 960.976 175.493 962.599 176.213 964.153C177.165 966.212 178.284 968.189 179.313 970.21C182.876 977.21 187.246 984.442 190.211 991.735C190.591 992.671 189.08 990.057 188.613 989.162C187.899 987.794 187.369 986.335 186.672 984.957C185.447 982.537 184.119 980.17 182.851 977.772C177.082 966.856 171.442 955.874 165.752 944.918C165.375 944.192 166.503 946.372 166.848 947.114C167.578 948.684 168.18 950.316 168.977 951.852C172.242 958.142 175.691 964.335 179.03 970.586C180.497 973.331 189.356 985.531 188.551 987.939C188.246 988.853 187.186 986.556 186.671 985.742C185.445 983.804 184.467 981.72 183.351 979.717C181.711 976.772 180.016 973.858 178.403 970.899C173.349 961.631 174.213 963.227 170.011 952.825C169.8 952.301 169.155 950.742 169.448 951.225C173.442 957.799 176.198 965.049 179.562 971.966C180.82 974.552 182.079 977.138 183.351 979.717C184.282 981.604 185.19 983.502 186.17 985.365C187.237 987.394 187.993 989.652 189.489 991.39C189.953 991.928 189.637 989.959 189.522 989.257C189.315 987.983 187.162 981.506 187.02 981.1C185.826 977.677 184.468 974.312 183.327 970.872C182.965 969.779 181.62 968.24 182.514 967.515C182.604 967.442 181.594 965.617 186.115 975.516C187.577 978.718 191.301 983.845 190.841 987.501C190.777 988.012 190.266 986.636 190.09 986.152C189.278 983.929 188.402 981.722 187.366 979.594C184.92 974.57 182.533 969.518 180.07 964.502C174.175 952.493 168.031 940.678 161.374 929.075C148.233 906.172 135.218 883.067 121.815 860.32C115.373 849.385 106.397 839.889 100.011 829.031C99.6925 828.49 101.182 829.63 101.515 830.162C102.372 831.53 102.808 833.121 103.488 834.586C106.304 840.652 109.124 846.717 112.004 852.753C118.007 865.334 124.634 877.594 130.856 890.062C131.129 890.61 130.118 889.076 129.853 888.525C128.842 886.414 128.105 884.175 127.036 882.092C123.405 875.018 119.573 868.047 115.761 861.068C109.769 850.096 96.0471 832.925 94.9041 821.468C94.7533 819.956 97.4344 823.239 98.3519 824.45C100.221 826.919 101.579 829.737 103.176 832.39C106.319 837.613 109.48 842.827 112.573 848.08C117.514 856.475 124.436 866.07 128.39 875.068C128.643 875.644 127.379 874.299 126.98 873.812C125.701 872.251 124.568 870.576 123.377 868.947C120.293 864.733 108.268 849.663 110.532 850.274" fill="#04473a" fill-rule="nonzero" opacity="1" stroke="#007aff" stroke-linecap="butt" stroke-linejoin="round" stroke-opacity="0" stroke-width="19.6269" vectornator:layerName="Curve 21"/>
<path d="M105.403 813.32C105.403 813.32 106.387 810.589 105.74 811.016C103.082 812.771 101.012 815.298 98.8577 817.643C98.2078 818.351 95.889 823.983 94.9009 824.366C94.1933 824.64 96.4283 814.886 97.1573 812.812C97.692 811.291 98.0315 806.858 98.8131 808.268C99.3126 809.169 96.3989 819.08 96.1055 820.797C95.8255 822.435 95.7118 827.428 95.9055 825.778C96.1965 823.299 95.8622 808.028 98.2605 813.814" fill="#04473a" fill-rule="nonzero" opacity="1" stroke="#007aff" stroke-linecap="butt" stroke-linejoin="round" stroke-opacity="0" stroke-width="19.6269" vectornator:layerName="Curve 22"/>
<path d="M25.0695 1676.16C25.0695 1676.16 29.9673 1666.69 32.3982 1661.95C33.199 1660.39 33.9221 1658.78 34.7646 1657.24C41.696 1644.57 48.749 1631.96 55.7184 1619.31C56.907 1617.15 60.466 1614.93 59.225 1612.8C57.3786 1609.64 53.6684 1617.65 51.4005 1620.53C48.833 1623.79 46.2987 1627.08 43.9565 1630.51C37.5182 1639.92 31.0493 1649.33 25.0672 1659.04C17.3472 1671.58 10.7444 1685.77 5.04615 1699.27C3.6564 1702.56-0.625778 1706.74 1.69782 1709.46C2.68393 1710.61 6.21874 1706.25 6.41703 1705.93C8.92253 1702.01 11.2698 1697.98 13.5739 1693.93C22.0587 1679.03 29.7293 1663.59 37.8907 1648.48C42.2392 1640.44 46.3666 1632.27 50.777 1624.26C50.8318 1624.16 54.5272 1618.62 54.1044 1618.63C45.2981 1618.87 42.9453 1632.3 38.0258 1639.6C22.557 1662.58 12.3132 1690.37 1.22522 1715.53C-0.705995 1719.92-6.48676 1724.19-4.68341 1728.63C-4.3633 1729.42-3.55461 1727.35-3.08415 1726.64C-1.11871 1723.69 0.777347 1720.68 2.61702 1717.64C3.49877 1716.18 4.23832 1714.65 5.07668 1713.17C9.47808 1705.39 13.757 1697.53 18.3361 1689.86C26.1127 1676.82 34.6919 1664.26 42.1373 1651.04C44.6683 1646.54 46.9876 1641.93 49.4231 1637.38C50.8312 1634.75 55.9648 1630.84 53.3814 1629.35C47.4562 1625.93 42.8326 1638.34 39.0163 1644.02C28.0377 1660.35 9.13909 1694.81 4.58204 1715.24C4.36252 1716.22 5.72367 1713.57 6.22427 1712.7C8.38267 1708.93 10.4197 1705.09 12.5563 1701.3C13.685 1699.3 14.8881 1697.34 16.02 1695.35C22.7793 1683.42 29.87 1671.68 36.5724 1659.72C52.1718 1631.88 65.9284 1595.45 87.2435 1571.2C88.0969 1570.23 85.5015 1573.11 84.6832 1574.11C82.8807 1576.31 81.0965 1578.54 79.3834 1580.81C73.4534 1588.68 67.2486 1596.37 61.7559 1604.55C54.5022 1615.36 48.3996 1626.93 40.9592 1637.61C40.4088 1638.4 42.169 1636.11 42.6947 1635.3C45.4094 1631.13 47.9594 1626.86 50.6764 1622.7C52.6285 1619.7 54.6616 1616.76 56.7003 1613.83C59.6674 1609.56 62.7235 1605.35 65.6933 1601.08C69.8138 1595.16 73.8296 1589.16 77.9707 1583.26C80.0836 1580.24 88.6222 1571.62 87.9603 1567.7C87.5049 1565 83.8825 1571.42 82.3807 1573.71C79.4434 1578.18 73.3803 1585.46 72.2622 1590.92C72.0546 1591.94 73.6653 1589.39 74.2272 1588.52C76.4067 1585.15 78.3551 1581.64 80.4733 1578.23C85.244 1570.55 90.5424 1563.28 96.9177 1556.84" fill="#04473a" fill-rule="nonzero" opacity="1" stroke="#007aff" stroke-linecap="butt" stroke-linejoin="round" stroke-opacity="0" stroke-width="19.6269" vectornator:layerName="Curve 23"/>
<path d="M85.8233 2281.06C85.8233 2281.06 80.5196 2269.56 77.6466 2263.92C69.268 2247.46 60.9341 2230.99 52.4244 2214.6C47.5235 2205.16 42.0224 2195.98 37.0153 2186.59C32.5299 2178.17 27.8375 2170.07 22.4564 2162.17C21.2132 2160.35 19.8186 2158.63 18.5835 2156.8C18.0916 2156.07 16.5968 2153.96 17.2819 2154.51C35.8872 2169.47 52.7344 2209.82 64.8588 2230.95C67.4645 2235.49 79.507 2252.78 80.1488 2260.29C80.2095 2261 79.0723 2259.35 78.6066 2258.81C76.035 2255.84 73.2852 2252.99 71.0442 2249.76C66.252 2242.85 61.8867 2235.66 57.5464 2228.46C44.8022 2207.31 30.8968 2184.97 19.8899 2162.78C16.6054 2156.16 13.1664 2149.58 9.59571 2143.1C8.63436 2141.36 7.38164 2139.78 6.53865 2137.97C6.19585 2137.24 5.39367 2135.16 6.08255 2135.59C14.2973 2140.66 19.3837 2154.65 24.1177 2162.32C40.7334 2189.26 57.3173 2216.17 73.6334 2243.29C78.9712 2252.17 82.9205 2259.87 89.0379 2267.62C94.205 2274.16 88.6264 2266.49 93.9694 2274.26C94.5505 2275.1 96.7633 2276.95 95.7546 2276.76C90.4117 2275.79 83.3958 2263.44 80.7216 2259.5C79.335 2257.46 78.1449 2255.29 76.9381 2253.14C76.2669 2251.94 73.7307 2249.27 75.091 2249.45C78.0688 2249.86 85.4498 2259.57 86.3107 2260.68C94.4955 2271.2 101.876 2281.88 110.453 2292.15C113.291 2295.54 116.256 2297.61 119.404 2300.65C119.97 2301.2 121.439 2303.05 120.916 2302.46C116.525 2297.52 112.032 2292.67 107.488 2287.86C105.323 2285.57 103.159 2283.28 101.076 2280.92C96.7678 2276.04 92.5173 2271.05 88.3412 2266.05C87.3833 2264.9 90.257 2268.34 91.2149 2269.49C93.0298 2271.66 94.8448 2273.83 96.6597 2276.01C98.7772 2278.54 100.895 2281.07 103.012 2283.61C110.047 2292.03 117.544 2299.93 125.122 2307.86" fill="#04473a" fill-rule="nonzero" opacity="1" stroke="#007aff" stroke-linecap="butt" stroke-linejoin="round" stroke-opacity="0" stroke-width="19.6269" vectornator:layerName="Curve 24"/>
<path d="M149.56 2363.3C149.56 2363.3 147.956 2362.35 147.217 2361.78C143.938 2359.26 140.669 2356.73 137.408 2354.2C136.675 2353.63 134.986 2351.62 135.173 2352.53C135.964 2356.37 149.614 2365.75 153.677 2368.38" fill="#04473a" fill-rule="nonzero" opacity="1" stroke="#007aff" stroke-linecap="butt" stroke-linejoin="round" stroke-opacity="0" stroke-width="19.6269" vectornator:layerName="Curve 25"/>
<path d="M176.857 2416.3C176.857 2416.3 180.879 2420.81 182.681 2423.23C188.228 2430.68 193.685 2438.2 198.892 2445.89C200.646 2448.48 201.047 2452.5 202.354 2455.33C203.586 2458 205.178 2460.54 206.446 2463.2C206.974 2464.31 208.622 2467.48 207.705 2466.67C202.418 2461.94 195.259 2449.48 192.124 2444.95C181.815 2430.03 172.555 2414.54 163.007 2399.15C158.516 2391.9 153.732 2385.96 149.157 2379C147.634 2376.68 146.012 2374.36 145.064 2371.76C144.646 2370.61 143.513 2367.33 144.435 2368.14C147.415 2370.75 150.836 2380.8 152.462 2383.72C159.512 2396.41 167.85 2408.04 176.857 2419.45C182.672 2426.81 190.001 2433.17 196.216 2440.22C196.986 2441.1 199.02 2443.94 198.262 2443.06C176.001 2417.09 157.158 2381.33 139.241 2352.09C133.582 2342.85 130.618 2332.43 125.076 2323.28C123.185 2320.16 121.255 2316.93 119.095 2314C118.292 2312.91 116.977 2309.36 116.734 2310.69C115.008 2320.19 133.26 2336.84 133.26 2345C133.26 2345.72 132.359 2343.89 132.001 2343.27C131.202 2341.89 130.558 2340.43 129.798 2339.02C128.511 2336.65 127.169 2334.3 125.863 2331.94C123.864 2328.32 121.879 2324.7 119.882 2321.08C114.192 2310.77 108.148 2300.29 102.884 2289.76C102.565 2289.12 103.729 2290.91 104.143 2291.49C105.81 2293.82 107.356 2296.24 109.022 2298.57C114.255 2305.9 119.543 2313.34 125.076 2320.45" fill="#04473a" fill-rule="nonzero" opacity="1" stroke="#007aff" stroke-linecap="butt" stroke-linejoin="round" stroke-opacity="0" stroke-width="19.6269" vectornator:layerName="Curve 26"/>
<path d="M137.453 2489.85C137.453 2489.85 125.903 2490.3 120.126 2490.24C102.974 2490.06 85.8208 2489.98 68.6677 2489.88C48.1451 2489.77 27.675 2490.68 7.14618 2490.03C5.28186 2489.97 3.16025 2490.39 1.58755 2489.39C0.49836 2488.69 4.15683 2489.11 5.43707 2488.94C7.46703 2488.67 9.48805 2488.33 11.5171 2488.05C14.5477 2487.63 17.5675 2487.11 20.6156 2486.85C26.5312 2486.34 40.4572 2486.09 45.8609 2485.87C78.7313 2484.54 110.989 2484.05 143.792 2487.38C154.245 2488.45 164.879 2490.52 175.435 2490.15C176.641 2490.11 179.466 2490.78 179.022 2489.66C178.243 2487.7 142.524 2485.96 138.057 2486.17C104.801 2487.78 71.571 2489.07 38.346 2490.57C33.4794 2490.79 19.5184 2490.27 13.6653 2489.75C11.1009 2489.52 8.568 2489.01 6.00549 2488.76C4.58153 2488.63 0.376257 2489.1 1.71694 2488.6C12.7484 2484.49 29.7815 2485.35 41.1765 2484.83C72.3346 2483.4 103.458 2483.34 134.639 2483.99C145.008 2484.21 159.523 2484.89 170.303 2485.26C173.614 2485.38 176.926 2485.46 180.237 2485.55C181.491 2485.58 185.194 2486.01 184 2485.63C159.472 2477.68 131.669 2480.02 106.36 2478.81C73.0095 2477.21 39.3119 2475.51 6.29581 2482.07C5.42126 2482.24 8.07411 2482.26 8.96537 2482.24C10.8798 2482.18 12.7855 2481.96 14.6965 2481.83C18.2397 2481.59 21.7768 2481.13 25.3278 2481.15C40.7233 2481.22 56.1033 2482.15 71.4944 2482.52C98.1729 2483.18 124.93 2484.09 151.617 2484.08C163.796 2484.08 178.415 2484.5 190.069 2479.88" fill="#04473a" fill-rule="nonzero" opacity="1" stroke="#007aff" stroke-linecap="butt" stroke-linejoin="round" stroke-opacity="0" stroke-width="19.6269" vectornator:layerName="Curve 27"/>
<path d="M159.815 2469.53C159.815 2469.53 163.117 2470.92 164.864 2471.25C173.386 2472.87 181.97 2474.14 190.558 2475.35C194.564 2475.92 200.554 2472.96 202.647 2476.42C203.705 2478.17 198.888 2478.31 196.847 2478.4C191.698 2478.62 186.54 2478.69 181.388 2478.57C175.712 2478.43 170.222 2476.81 164.635 2476.05C163.739 2475.93 166.412 2476.4 167.284 2476.64C170.451 2477.5 173.574 2478.51 176.749 2479.33C178.857 2479.88 200.532 2483.58 197.113 2484.14" fill="#04473a" fill-rule="nonzero" opacity="1" stroke="#007aff" stroke-linecap="butt" stroke-linejoin="round" stroke-opacity="0" stroke-width="19.6269" vectornator:layerName="Curve 28"/>
<path d="M176.229 2476.18L176.229 2476.18" fill="#04473a" fill-rule="nonzero" opacity="1" stroke="#007aff" stroke-linecap="butt" stroke-linejoin="round" stroke-opacity="0" stroke-width="19.6269" vectornator:layerName="Curve 29"/>
<path d="M32.5264 2550.58L32.5264 2550.58C28.0137 2542.3 23.4964 2534.02 18.9882 2525.73C11.5111 2511.99 2.0157 2493.86-5.59655 2483.46C-7.89678 2480.32-4.01516 2491.15-2.4351 2494.71C0.0522541 2500.31 3.42589 2505.47 6.52576 2510.76C10.906 2518.23 15.4503 2525.61 20.0018 2532.97C37.82 2561.82 58.2421 2589 78.7172 2616.03C84.8703 2624.15 90.6325 2632.56 96.3644 2640.98C97.0228 2641.95 98.6895 2644.99 97.861 2644.16C76.075 2622.42 59.0288 2594.72 42.7021 2569.02C34.8888 2556.73 27.5607 2544.13 19.7639 2531.82C18.0264 2529.08 15.0574 2520.96 13.9462 2524.01C9.87527 2535.19 21.9989 2546.54 28.0407 2556.79C49.1195 2592.53 76.9355 2626.28 106.24 2655.65C107.067 2656.48 105.459 2653.4 104.743 2652.47C99.918 2646.22 94.7618 2640.23 89.6759 2634.19C75.4035 2617.24 65.1146 2599.98 54.0375 2580.86C49.1219 2572.38 43.8296 2564.13 38.6515 2555.8C38.5157 2555.58 33.8346 2548.77 33.8546 2548.86C41.0477 2580.09 65.1881 2609.5 82.8045 2635.25C86.2769 2640.33 89.8533 2645.33 93.3753 2650.37C94.2307 2651.6 95.5189 2655.48 95.9365 2654.05C97.3692 2649.13 87.2425 2636.29 84.9596 2632.88C80.9968 2626.97 76.7024 2621.28 72.8045 2615.32C54.3215 2587.08 39.63 2552.53 18.1613 2526.38C16.5931 2524.47 20.595 2534.89 22.168 2539.98" fill="#04473a" fill-rule="nonzero" opacity="1" stroke="#007aff" stroke-linecap="butt" stroke-linejoin="round" stroke-opacity="0" stroke-width="19.6269" vectornator:layerName="Curve 30"/>
</g>
<g clip-path="url(#ArtboardFrame)" id="Dark-green" vectornator:layerName="Dark green">
<path d="M300.251 262.992L406.083 263.053C406.347 263.053 406.512 263.339 406.379 263.568L353.411 355.19L300.442 446.813C300.31 447.042 299.98 447.041 299.848 446.813L246.985 355.129L194.122 263.446C193.99 263.217 194.155 262.931 194.419 262.932L209.102 262.94L300.251 262.992Z" fill="#00604b" fill-rule="nonzero" opacity="1" stroke="#007aff" stroke-linecap="butt" stroke-linejoin="round" stroke-opacity="0" stroke-width="0.012153" vectornator:layerName="Star 25"/>
<path d="M299.749 263.372L405.581 263.433C405.845 263.433 406.01 263.719 405.878 263.948L352.909 355.57L299.941 447.193C299.808 447.421 299.478 447.421 299.346 447.192L246.483 355.509L193.62 263.826C193.488 263.597 193.653 263.311 193.917 263.311L208.6 263.32L299.749 263.372Z" fill="#00604b" fill-rule="nonzero" opacity="1" stroke="#007aff" stroke-linecap="butt" stroke-linejoin="round" stroke-opacity="0" stroke-width="0.012153" vectornator:layerName="Star 24"/>
<path d="M299.069 631.939L404.901 632C405.165 632 405.33 632.286 405.197 632.514L352.229 724.137L299.26 815.759C299.128 815.988 298.798 815.988 298.666 815.759L245.803 724.076L192.94 632.392C192.808 632.164 192.973 631.878 193.237 631.878L207.92 631.886L299.069 631.939Z" fill="#00604b" fill-rule="nonzero" opacity="1" stroke="#007aff" stroke-linecap="butt" stroke-linejoin="round" stroke-opacity="0" stroke-width="0.012153" vectornator:layerName="Star 26"/>
<path d="M193.574 447.389L299.406 447.449C299.67 447.45 299.835 447.736 299.702 447.964L246.734 539.587L193.765 631.209C193.633 631.438 193.303 631.438 193.171 631.209L140.308 539.526L87.4449 447.842C87.3129 447.613 87.4782 447.328 87.7423 447.328L102.425 447.336L193.574 447.389Z" fill="#00604b" fill-rule="nonzero" opacity="1" stroke="#007aff" stroke-linecap="butt" stroke-linejoin="round" stroke-opacity="0" stroke-width="0.012153" vectornator:layerName="Star 11"/>
<path d="M91.9283 1002.48L197.733 1000.1C197.997 1000.1 198.169 1000.38 198.042 1000.61L147.199 1093.43L96.3561 1186.25C96.2292 1186.48 95.8992 1186.49 95.762 1186.26L40.7999 1095.82L-14.1622 1005.38C-14.2993 1005.15-14.1407 1004.86-13.8767 1004.86L0.802028 1004.53L91.9283 1002.48Z" fill="#00604b" fill-rule="nonzero" opacity="1" stroke="#007aff" stroke-linecap="butt" stroke-linejoin="round" stroke-opacity="0" stroke-width="0.012153" vectornator:layerName="Star 6"/>
<path d="M414.789 1922.87L520.621 1922.78C520.885 1922.78 521.05 1923.07 520.918 1923.3L468.075 2014.99L415.231 2106.69C415.099 2106.92 414.769 2106.92 414.636 2106.69L361.649 2015.08L308.661 1923.46C308.529 1923.24 308.693 1922.95 308.958 1922.95L323.64 1922.94L414.789 1922.87Z" fill="#00604b" fill-rule="nonzero" opacity="1" stroke="#007aff" stroke-linecap="butt" stroke-linejoin="round" stroke-opacity="0" stroke-width="0.012153" vectornator:layerName="Star 15"/>
<path d="M-8.40704 2661.47L97.4246 2661.39C97.6887 2661.39 97.854 2661.68 97.7221 2661.91L44.8782 2753.6L-7.96566 2845.29C-8.09754 2845.52-8.42769 2845.52-8.55993 2845.3L-61.5477 2753.68L-114.535 2662.07C-114.668 2661.84-114.503 2661.56-114.239 2661.56L-99.5563 2661.55L-8.40704 2661.47Z" fill="#00604b" fill-rule="nonzero" opacity="1" stroke="#007aff" stroke-linecap="butt" stroke-linejoin="round" stroke-opacity="0" stroke-width="0.012153" vectornator:layerName="Star 20"/>
<path d="M202.69 1922.87L308.522 1922.78C308.786 1922.78 308.951 1923.07 308.82 1923.3L255.976 2014.99L203.132 2106.69C203 2106.91 202.67 2106.91 202.537 2106.69L149.55 2015.07L96.5619 1923.46C96.4297 1923.23 96.5946 1922.95 96.8587 1922.95L111.541 1922.94L202.69 1922.87Z" fill="#00604b" fill-rule="nonzero" opacity="1" stroke="#007aff" stroke-linecap="butt" stroke-linejoin="round" stroke-opacity="0" stroke-width="0.012153" vectornator:layerName="Star 14"/>
<path d="M98.0191 1739.71L203.851 1739.62C204.115 1739.62 204.28 1739.91 204.148 1740.14L151.304 1831.83L98.4605 1923.53C98.3286 1923.76 97.9985 1923.76 97.8663 1923.53L44.8785 1831.92L-8.10924 1740.3C-8.24147 1740.08-8.07663 1739.79-7.81251 1739.79L6.86989 1739.78L98.0191 1739.71Z" fill="#00604b" fill-rule="nonzero" opacity="1" stroke="#007aff" stroke-linecap="butt" stroke-linejoin="round" stroke-opacity="0" stroke-width="0.012153" vectornator:layerName="Star 23"/>
<path d="M203.442 1554.2L309.274 1554.12C309.538 1554.12 309.704 1554.4 309.572 1554.63L256.728 1646.33L203.884 1738.02C203.752 1738.25 203.422 1738.25 203.29 1738.02L150.302 1646.41L97.3141 1554.8C97.1819 1554.57 97.3467 1554.28 97.6108 1554.28L112.293 1554.27L203.442 1554.2Z" fill="#00604b" fill-rule="nonzero" opacity="1" stroke="#007aff" stroke-linecap="butt" stroke-linejoin="round" stroke-opacity="0" stroke-width="0.012153" vectornator:layerName="Star 9"/>
<path d="M8.13885e-05 3017.71L-105.832 3017.74C-106.096 3017.74-106.261 3017.45-106.129 3017.22L-53.2347 2925.56L-0.340591 2833.89C-0.208585 2833.66 0.121562 2833.66 0.253676 2833.89L53.1912 2925.53L106.129 3017.17C106.261 3017.4 106.096 3017.69 105.832 3017.69L91.1494 3017.69L8.13885e-05 3017.71Z" fill="#00604b" fill-rule="nonzero" opacity="1" stroke="#007aff" stroke-linecap="butt" stroke-linejoin="round" stroke-opacity="0" stroke-width="0.012153" vectornator:layerName="Star 21"/>
<path d="M203.944 2661.37L98.1122 2661.39C97.8481 2661.39 97.6829 2661.11 97.8149 2660.88L150.709 2569.21L203.603 2477.55C203.735 2477.32 204.065 2477.32 204.197 2477.55L257.135 2569.19L310.073 2660.83C310.205 2661.05 310.04 2661.34 309.776 2661.34L295.093 2661.34L203.944 2661.37Z" fill="#00604b" fill-rule="nonzero" opacity="1" stroke="#007aff" stroke-linecap="butt" stroke-linejoin="round" stroke-opacity="0" stroke-width="0.012153" vectornator:layerName="Star 18"/>
<path d="M310.119 2475.78L204.287 2475.81C204.023 2475.81 203.858 2475.52 203.99 2475.29L256.884 2383.63L309.778 2291.96C309.91 2291.73 310.24 2291.73 310.372 2291.96L363.31 2383.6L416.247 2475.24C416.38 2475.47 416.215 2475.76 415.95 2475.76L401.268 2475.76L310.119 2475.78Z" fill="#00604b" fill-rule="nonzero" opacity="1" stroke="#007aff" stroke-linecap="butt" stroke-linejoin="round" stroke-opacity="0" stroke-width="0.012153" vectornator:layerName="Star 17"/>
<path d="M205.211 2290.92L99.3795 2290.94C99.1154 2290.94 98.9502 2290.66 99.0822 2290.43L151.976 2198.76L204.87 2107.1C205.002 2106.87 205.333 2106.87 205.465 2107.1L258.402 2198.74L311.34 2290.38C311.472 2290.61 311.307 2290.89 311.043 2290.89L296.36 2290.9L205.211 2290.92Z" fill="#00604b" fill-rule="nonzero" opacity="1" stroke="#007aff" stroke-linecap="butt" stroke-linejoin="round" stroke-opacity="0" stroke-width="0.012153" vectornator:layerName="Star 16"/>
<path d="M203.438 1739.78C203.306 1739.55 202.975 1739.55 202.843 1739.78L149.969 1831.47L97.0625 1923.12C96.9305 1923.35 97.1109 1923.63 97.375 1923.63L203.187 1923.63L294.344 1923.59L309.031 1923.59C309.295 1923.59 309.445 1923.29 309.312 1923.06L256.375 1831.44L203.438 1739.78Z" fill="#00604b" fill-rule="nonzero" opacity="1" stroke="#007aff" stroke-linecap="butt" stroke-linejoin="round" stroke-opacity="0" stroke-width="0.012153" vectornator:layerName="Curve 68"/>
<path d="M309.375 1555.38C309.243 1555.15 308.913 1555.15 308.781 1555.38L255.875 1647.03L203 1738.72C202.868 1738.95 203.017 1739.22 203.281 1739.22L309.125 1739.19L311.25 1739.19C314.544 1739.09 317.677 1738.96 321.219 1738.91C334.585 1738.7 350.104 1738.77 370.594 1739C372.379 1739.02 375.017 1739.13 376.906 1739.19L400.25 1739.19L414.938 1739.16C415.202 1739.16 415.382 1738.88 415.25 1738.66L362.312 1647.03L309.375 1555.38Z" fill="#00604b" fill-rule="nonzero" opacity="1" stroke="#007aff" stroke-linecap="butt" stroke-linejoin="round" stroke-opacity="0" stroke-width="0.012153" vectornator:layerName="Curve 62"/>
<path d="M202.439 1554.78L96.6074 1554.8C96.3432 1554.8 96.1781 1554.52 96.3101 1554.29L149.204 1462.62L202.098 1370.96C202.23 1370.73 202.561 1370.73 202.693 1370.96L255.63 1462.6L308.568 1554.24C308.7 1554.47 308.535 1554.75 308.271 1554.75L293.588 1554.76L202.439 1554.78Z" fill="#00604b" fill-rule="nonzero" opacity="1" stroke="#007aff" stroke-linecap="butt" stroke-linejoin="round" stroke-opacity="0" stroke-width="0.012153" vectornator:layerName="Star 8"/>
<path d="M96.2638 1370.42L-9.56785 1370.44C-9.83196 1370.44-9.99711 1370.16-9.8651 1369.93L43.029 1278.26L95.9232 1186.6C96.0552 1186.37 96.3853 1186.37 96.5174 1186.6L149.455 1278.24L202.393 1369.88C202.525 1370.11 202.36 1370.39 202.096 1370.39L187.413 1370.4L96.2638 1370.42Z" fill="#00604b" fill-rule="nonzero" opacity="1" stroke="#007aff" stroke-linecap="butt" stroke-linejoin="round" stroke-opacity="0" stroke-width="0.012153" vectornator:layerName="Star 7"/>
<path d="M299.499 1000.08L193.667 1000.1C193.403 1000.1 193.238 999.816 193.37 999.587L246.264 907.922L299.158 816.256C299.29 816.027 299.62 816.027 299.752 816.256L352.69 907.896L405.627 999.537C405.76 999.765 405.595 1000.05 405.33 1000.05L390.648 1000.05L299.499 1000.08Z" fill="#00604b" fill-rule="nonzero" opacity="1" stroke="#007aff" stroke-linecap="butt" stroke-linejoin="round" stroke-opacity="0" stroke-width="0.012153" vectornator:layerName="Star 5"/>
<path d="M193.323 816.059L87.4917 816.084C87.2276 816.084 87.0625 815.799 87.1945 815.57L140.089 723.904L192.983 632.239C193.115 632.01 193.445 632.01 193.577 632.239L246.515 723.879L299.452 815.52C299.584 815.748 299.419 816.034 299.155 816.034L284.473 816.038L193.323 816.059Z" fill="#00604b" fill-rule="nonzero" opacity="1" stroke="#007aff" stroke-linecap="butt" stroke-linejoin="round" stroke-opacity="0" stroke-width="0.012153" vectornator:layerName="Star 4"/>
<path d="M87.3988 631.699L-18.4329 631.724C-18.697 631.724-18.8622 631.438-18.7302 631.209L34.164 539.544L87.0581 447.879C87.1901 447.65 87.5202 447.65 87.6524 447.878L140.59 539.519L193.527 631.159C193.66 631.388 193.495 631.674 193.23 631.674L178.548 631.677L87.3988 631.699Z" fill="#00604b" fill-rule="nonzero" opacity="1" stroke="#007aff" stroke-linecap="butt" stroke-linejoin="round" stroke-opacity="0" stroke-width="0.012153" vectornator:layerName="Star 3"/>
<path d="M193.825 447.682L87.9931 447.707C87.729 447.707 87.5638 447.421 87.6959 447.193L140.59 355.527L193.484 263.862C193.616 263.633 193.946 263.633 194.078 263.862L247.016 355.502L299.953 447.142C300.086 447.371 299.921 447.657 299.656 447.657L284.974 447.661L193.825 447.682Z" fill="#00604b" fill-rule="nonzero" opacity="1" stroke="#007aff" stroke-linecap="butt" stroke-linejoin="round" stroke-opacity="0" stroke-width="0.012153" vectornator:layerName="Star 2"/>
<path d="M-22.6355 76.3383L-128.467 76.3634C-128.731 76.3635-128.896 76.0776-128.764 75.8488L-75.8703-15.8166L-22.9762-107.482C-22.8442-107.711-22.5141-107.711-22.3819-107.482L30.5556-15.8418L83.4932 75.7985C83.6253 76.0273 83.4603 76.3132 83.1961 76.3133L68.5137 76.3167L-22.6355 76.3383Z" fill="#00604b" fill-rule="nonzero" opacity="1" stroke="#007aff" stroke-linecap="butt" stroke-linejoin="round" stroke-opacity="0" stroke-width="0.012153" vectornator:layerName="Star 22"/>
<path d="M83.5397 260.355L-22.292 260.381C-22.5561 260.381-22.7213 260.095-22.5893 259.866L30.3049 168.2L83.199 76.535C83.331 76.3063 83.6612 76.3062 83.7933 76.5349L136.731 168.175L189.668 259.816C189.8 260.044 189.635 260.33 189.371 260.33L174.689 260.334L83.5397 260.355Z" fill="#00604b" fill-rule="nonzero" opacity="1" stroke="#007aff" stroke-linecap="butt" stroke-linejoin="round" stroke-opacity="0" stroke-width="0.012153" vectornator:layerName="Star 1"/>
<path d="M210.046 253.947L210.046 253.947" fill="#00604b" fill-rule="nonzero" opacity="1" stroke="#007aff" stroke-linecap="butt" stroke-linejoin="round" stroke-opacity="0" stroke-width="0.012153" vectornator:layerName="Curve 1"/>
<path d="M245.489 343.977C245.489 343.977 242.984 339.754 241.738 337.639C238.845 332.726 235.935 327.823 233.071 322.892C232.141 321.291 230.933 316.181 230.484 317.977C229.935 320.174 234.287 327.857 234.753 328.843C240.235 340.444 246.161 351.667 253.251 362.345C255.738 366.092 258.127 369.905 260.494 373.729C261.168 374.817 261.935 375.848 262.564 376.962C262.887 377.534 263.705 379.32 263.34 378.773C254.407 365.374 244.917 352.128 236.435 338.415C232.028 331.291 228.451 321.906 223.37 315.131C222.968 314.596 223.598 316.468 223.887 317.072C225.113 319.628 226.499 322.107 227.897 324.574C230.337 328.878 232.861 333.134 235.4 337.38C243.351 350.682 252.171 363.219 261.012 375.928" fill="#00604b" fill-rule="nonzero" opacity="1" stroke="#007aff" stroke-linecap="butt" stroke-linejoin="round" stroke-opacity="0" stroke-width="0.012153" vectornator:layerName="Curve 2"/>
<path d="M278.992 358.335L278.992 358.335" fill="#00604b" fill-rule="nonzero" opacity="1" stroke="#007aff" stroke-linecap="butt" stroke-linejoin="round" stroke-opacity="0" stroke-width="45.0107" vectornator:layerName="Curve 3"/>
<path d="M235.659 338.027C235.659 338.027 228.738 326.947 225.181 321.47C224.829 320.927 223.736 319.335 224.017 319.917C231.04 334.505 242.091 348.083 251.44 361.311C255.764 367.429 259.813 373.501 263.987 379.679C265.025 381.216 266.146 382.695 267.221 384.206C267.526 384.635 268.208 386.02 268.126 385.5C267.121 379.133 261.659 374.54 258.295 369.331C252.015 359.604 245.745 349.871 239.539 340.097C236.645 335.539 235.429 332.989 232.813 328.455C231.885 326.847 230.927 325.257 229.967 323.669C229.676 323.187 228.931 321.699 229.061 322.246C232.115 335.072 251.409 357.305 259.46 367.908C263.513 373.247 267.256 378.811 271.231 384.206C273.165 386.831 271.86 384.018 271.231 381.231" fill="#00604b" fill-rule="nonzero" opacity="1" stroke="#007aff" stroke-linecap="butt" stroke-linejoin="round" stroke-opacity="0" stroke-width="45.0107" vectornator:layerName="Curve 4"/>
<path d="M215.738 291.589C215.738 291.589 212.605 283.264 208.882 282.405C208.148 282.235 209.082 283.921 209.4 284.604C210.815 287.646 212.492 290.56 214.056 293.529C216.457 298.085 218.903 302.618 221.171 307.241C221.934 308.795 224.584 312.156 222.852 312.156C218.016 312.156 217.873 303.864 215.35 299.738C212.989 295.877 210.602 292.03 208.365 288.096" fill="#00604b" fill-rule="nonzero" opacity="1" stroke="#007aff" stroke-linecap="butt" stroke-linejoin="round" stroke-opacity="0" stroke-width="45.0107" vectornator:layerName="Curve 5"/>
<path d="M205.131 281.628C205.131 281.628 206.252 283.612 206.813 284.604" fill="#00604b" fill-rule="nonzero" opacity="1" stroke="#007aff" stroke-linecap="butt" stroke-linejoin="round" stroke-opacity="0" stroke-width="45.0107" vectornator:layerName="Curve 6"/>
<path d="M196.322 268.336L196.322 268.336" fill="#00604b" fill-rule="nonzero" opacity="1" stroke="#007aff" stroke-linecap="butt" stroke-linejoin="round" stroke-opacity="0" stroke-width="15.8168" vectornator:layerName="Curve 7"/>
<path d="M196.634 271.46L196.634 271.46" fill="#00604b" fill-rule="nonzero" opacity="1" stroke="#007aff" stroke-linecap="butt" stroke-linejoin="round" stroke-opacity="0" stroke-width="15.8168" vectornator:layerName="Curve 8"/>
<path d="M197.551 271.114C197.551 271.114 196.525 268.627 195.916 267.429" fill="#00604b" fill-rule="nonzero" opacity="1" stroke="#007aff" stroke-linecap="butt" stroke-linejoin="round" stroke-opacity="0" stroke-width="15.8168" vectornator:layerName="Curve 9"/>
<path d="M194.838 264.808L194.838 264.808" fill="#00604b" fill-rule="nonzero" opacity="1" stroke="#007aff" stroke-linecap="butt" stroke-linejoin="round" stroke-opacity="0" stroke-width="15.8168" vectornator:layerName="Curve 10"/>
<path d="M194.77 265.798L194.77 265.798" fill="#00604b" fill-rule="nonzero" opacity="1" stroke="#007aff" stroke-linecap="butt" stroke-linejoin="round" stroke-opacity="0" stroke-width="15.8168" vectornator:layerName="Curve 11"/>
<path d="M194.859 264.926L194.859 264.926" fill="#00604b" fill-rule="nonzero" opacity="1" stroke="#007aff" stroke-linecap="butt" stroke-linejoin="round" stroke-opacity="0" stroke-width="15.8168" vectornator:layerName="Curve 12"/>
<path d="M196.816 267.33C196.816 267.33 196.495 266.119 196.144 265.615" fill="#00604b" fill-rule="nonzero" opacity="1" stroke="#007aff" stroke-linecap="butt" stroke-linejoin="round" stroke-opacity="0" stroke-width="15.8168" vectornator:layerName="Curve 13"/>
<path d="M268.543 391.612C268.543 391.612 270.338 395.881 271.345 397.964C273.183 401.766 276.764 404.869 279.241 408.375C286.829 419.113 291.833 431.576 297.876 443.16" fill="#00604b" fill-rule="nonzero" opacity="1" stroke="#007aff" stroke-linecap="butt" stroke-linejoin="round" stroke-opacity="0" stroke-width="15.8168" vectornator:layerName="Curve 14"/>
<path d="M298.214 443.457L298.214 443.457" fill="#00604b" fill-rule="nonzero" opacity="1" stroke="#007aff" stroke-linecap="butt" stroke-linejoin="round" stroke-opacity="0" stroke-width="15.8168" vectornator:layerName="Curve 15"/>
<path d="M253.266 449.155C253.266 449.155 256.017 448.667 257.406 448.523C263.174 447.925 268.953 447.429 274.731 446.93C276.838 446.748 278.945 446.328 281.061 446.225C281.642 446.197 283.355 446.459 282.805 446.273C279.128 445.031 272.495 446.146 268.488 446.175C253.79 446.278 239.109 447.782 224.393 448.065C217.585 448.196 210.715 448.564 203.91 448.185C202.378 448.1 200.853 447.906 199.329 447.72C198.555 447.626 196.249 447.221 197.019 447.346C212.953 449.928 230.102 448.416 246.214 447.991C250.19 447.886 254.749 449.632 258.14 447.552C259.934 446.451 253.958 446.801 251.856 446.919C247.002 447.19 242.156 447.651 237.33 448.239C231.845 448.907 226.415 449.982 220.935 450.687C203.79 452.893 186.513 454.513 169.244 455.427C165.936 455.602 162.619 455.568 159.307 455.589C157.373 455.601 155.439 455.588 153.507 455.525C153.071 455.511 151.774 455.337 152.21 455.358C168.163 456.116 184.16 453.863 199.922 451.576C204.886 450.855 209.815 449.868 214.697 448.715C216.511 448.287 221.648 447.896 220.017 446.993C212.906 443.056 202.131 446.048 194.71 446.566C183.274 447.364 171.974 447.861 160.513 448.01C156.552 448.061 152.591 447.991 148.63 447.921C146.546 447.884 140.303 447.476 142.385 447.571C151.741 447.997 160.237 447.903 169.559 447.681C174.967 447.552 180.384 447.659 185.784 447.341C190.061 447.089 194.307 446.444 198.566 445.973C201.151 445.687 203.777 445.634 206.316 445.072C207.544 444.799 203.845 444.522 202.587 444.489C199.721 444.413 196.856 444.28 193.989 444.292C190.256 444.307 186.526 444.477 182.794 444.571C167.746 444.951 152.816 444.65 137.773 444.795C135.161 444.82 132.347 444.104 129.944 445.128C128.797 445.617 132.106 446.542 133.344 446.683C136.019 446.987 138.728 446.56 141.417 446.432C152.329 445.911 163.222 445.027 174.116 444.211C175.842 444.082 181.023 443.832 179.308 444.07C164.436 446.134 148.918 446.053 133.954 446.483C130.412 446.584 126.865 446.502 123.327 446.683C122.811 446.71 121.482 446.42 121.785 446.839C123.2 448.801 129.692 446.793 131.438 446.716C140.94 446.296 150.232 444.712 159.6 443.098" fill="#00604b" fill-rule="nonzero" opacity="1" stroke="#007aff" stroke-linecap="butt" stroke-linejoin="round" stroke-opacity="0" stroke-width="15.8168" vectornator:layerName="Curve 16"/>
<path d="M42.7844 539.883L42.7844 539.883" fill="#00604b" fill-rule="nonzero" opacity="1" stroke="#007aff" stroke-linecap="butt" stroke-linejoin="round" stroke-opacity="0" stroke-width="15.8168" vectornator:layerName="Curve 17"/>
<path d="M112.338 465.077C112.338 465.077 109.684 472.075 108.302 470.346C107.789 469.704 114.915 446.355 115.534 444.289C116.908 439.702 118.256 435.108 119.54 430.495C119.632 430.165 120.059 429.236 119.866 429.519C114.288 437.7 112.892 447.989 109.055 457.04C106.947 462.014 105.82 464.583 103.553 468.49C102.766 469.847 100.402 473.906 101.079 472.491C106.701 460.747 111.75 448.714 117.196 436.871C118.002 435.117 121.004 426.049 123.056 425.974C123.896 425.943 122.472 427.551 122.209 428.349C120.876 432.387 119.59 436.441 118.268 440.483C115.843 447.899 113.207 455.245 110.615 462.604C109.999 464.352 107.661 469.165 109.051 467.939C119.106 459.074 123.208 441.261 126.796 428.578C127.251 426.971 128.132 425.357 127.937 423.698C127.87 423.134 126.645 423.49 126.245 423.893C124.822 425.324 123.873 427.163 122.795 428.869C121.918 430.257 121.104 431.688 120.385 433.163C115.145 443.922 109.427 454.466 103.196 464.684C102.389 466.007 100.699 469.453 100.007 468.066C99.2479 466.547 100.996 464.817 101.57 463.219C102.729 459.991 103.931 456.777 105.022 453.525C107.579 445.9 110.054 438.248 112.513 430.59C112.812 429.658 113.846 428.568 113.295 427.76C112.87 427.138 111.962 428.594 111.602 429.256C109.592 432.957 108.01 436.875 106.263 440.706C103.896 445.896 101.699 451.163 99.2624 456.321C97.7739 459.472 95.9562 462.456 94.2488 465.494C93.951 466.024 92.6307 466.798 93.2072 466.99C93.7936 467.186 94.0595 466.074 94.3464 465.526C96.604 461.217 98.7108 456.831 100.825 452.45C103.418 447.078 105.893 441.646 108.216 436.152C108.874 434.596 110.416 433.218 110.3 431.533C110.284 431.29 109.815 431.719 109.682 431.923C108.218 434.157 106.795 436.425 105.548 438.787C104.186 441.366 103.2 444.129 101.868 446.724C98.1498 453.971 94.1452 460.778 89.986 467.705C89.8515 467.929 90.3687 467.341 90.5067 467.119C91.89 464.898 93.3386 462.709 94.5434 460.386C99.0301 451.735 103.319 442.26 107.534 433.484C107.795 432.941 108.85 431.887 108.25 431.825C107.495 431.747 106.987 432.738 106.591 433.386C104.181 437.33 102.122 441.476 99.8842 445.519C95.8679 452.775 90.0596 459.92 86.7651 467.443C86.5834 467.858 87.5284 466.913 87.774 466.533C89.4479 463.938 91.0156 461.274 92.4943 458.563C96.5553 451.12 100.216 443.513 104.377 436.118C104.565 435.784 105.102 435.453 104.931 435.11C104.783 434.815 104.39 435.514 104.215 435.793C102.995 437.735 101.866 439.734 100.764 441.746C99.0439 444.886 97.4689 448.103 95.7503 451.244C93.584 455.203 90.7563 458.825 89.0116 462.987C88.7536 463.602 90.0415 462.111 90.4111 461.556C91.3201 460.189 92.0506 458.712 92.8201 457.262C93.7548 455.501 94.6389 453.714 95.5224 451.927C98.4557 445.994 102.412 439.878 104.996 433.776C105.139 433.438 104.284 434.085 104.085 434.394C102.053 437.55 100.355 440.911 98.3556 444.087C95.1663 449.153 91.8413 454.133 88.4273 459.05C87.5241 460.351 86.5853 461.627 85.628 462.888C85.3584 463.243 84.3308 464.05 84.7492 463.896C88.63 462.468 112.874 415.981 96.9567 443.729C95.9091 445.555 94.807 447.35 93.7339 449.161C91.454 453.01 89.2746 456.919 86.8976 460.709C86.0273 462.096 84.6663 463.181 84.0006 464.677C83.7426 465.257 85.2009 464.134 85.5952 463.636C87.0061 461.857 88.1095 459.854 89.3387 457.944C90.8874 455.538 92.4472 453.138 93.9286 450.69C95.3938 448.269 102.443 437.034 102.36 435.825C102.335 435.461 101.628 436.081 101.417 436.378C99.4705 439.102 97.7377 441.973 95.9478 444.802C92.8477 449.702 88.2017 456.019 85.4658 461.424C85.2424 461.865 86.3562 460.92 86.6374 460.513C87.9453 458.621 89.002 456.566 90.1857 454.593C93.8757 448.444 98.4885 442.514 102.035 436.313C102.587 435.347 100.347 437.809 99.7564 438.752C98.7142 440.417 97.8006 442.16 96.7615 443.827C93.0943 449.709 86.8366 455.529 84.6848 461.977C84.4915 462.556 85.8374 461.449 86.2143 460.969C87.1234 459.81 87.6958 458.422 88.4605 457.163C91.1706 452.701 93.8342 448.21 96.5663 443.761C97.7328 441.862 98.9529 439.995 100.18 438.134C100.418 437.772 101.261 436.781 100.961 437.093C99.1218 439.005 86.6979 457.21 86.7036 457.227C87.1664 458.618 88.7272 455.075 89.4702 453.812C90.3298 452.351 91.1191 450.85 91.9769 449.388C94.4313 445.206 97.2274 441.234 99.8546 437.158C100.607 435.991 98.0146 439.251 97.2507 440.411C95.361 443.279 93.5398 446.193 91.6517 449.063C89.6359 452.127 87.0539 454.832 85.3368 458.073C85.1072 458.506 86.2367 457.612 86.5409 457.227C87.3175 456.245 87.8725 455.107 88.5266 454.04C89.3808 452.646 90.2315 451.25 91.0658 449.844C92.9982 446.587 95.7384 443.679 96.8278 440.053C97.2255 438.728 94.8778 442.027 94.0613 443.142C93.1194 444.429 92.1899 445.726 91.2945 447.046C88.6442 450.952 85.3018 454.436 83.1893 458.658C82.5783 459.879 85.2618 456.833 86.0209 455.698C89.1263 451.055 92.0911 446.319 95.2005 441.679C95.4664 441.282 96.4498 440.235 96.1119 440.573C92.2342 444.448 85.755 452.947 84.1329 458.43C83.8218 459.482 85.8821 457.043 86.4762 456.121C88.1391 453.541 89.7425 450.924 91.3591 448.314C93.1139 445.483 97.3543 443.077 96.6327 439.825C96.5626 439.509 96.0748 440.181 95.8842 440.443C94.202 442.749 92.5873 445.106 91.0341 447.501C88.7961 450.952 86.0472 454.149 84.4584 457.942C83.9627 459.126 86.3511 456.157 86.9971 455.048C87.7724 453.717 88.5326 452.377 89.3085 451.047C90.2818 449.378 95.4139 442.171 96.6981 438.816C96.8036 438.541 96.148 439.092 95.9822 439.336C94.9648 440.833 94.138 442.451 93.1826 443.988C92.053 445.805 86.2047 453.002 85.3701 456.023C85.2723 456.377 86.0626 455.7 86.2812 455.405C87.2278 454.129 87.9906 452.727 88.8204 451.372C91.0234 447.775 93.1222 444.114 95.3636 440.54C95.5077 440.31 96.0414 439.696 95.8519 439.89C92.6931 443.12 90.7335 447.338 88.2999 451.144C87.8082 451.913 85.0111 455.581 84.6542 456.381C83.8319 458.223 87.1593 453.209 88.2347 451.502C89.463 449.552 90.7543 447.643 92.0107 445.712C92.1189 445.546 93.1275 443.97 93.085 443.955C92.4462 443.742 86.8031 451.51 86.8027 452.705C86.8026 453.089 87.4089 452.215 87.6164 451.892C88.3915 450.687 89.0212 449.395 89.7324 448.151C90.4537 446.89 91.1823 445.633 91.9136 444.378C92.0287 444.18 92.4887 443.865 92.2717 443.792C90.9892 443.364 87.9523 451.303 87.5186 452.348" fill="#00604b" fill-rule="nonzero" opacity="1" stroke="#007aff" stroke-linecap="butt" stroke-linejoin="round" stroke-opacity="0" stroke-width="15.8168" vectornator:layerName="Curve 18"/>
<path d="M99.938 466.696C99.938 466.696 100.279 467.768 100.601 468.217C103.622 472.427 105.595 475.997 107.979 480.567C111.874 488.031 115.64 495.561 119.279 503.153C130.516 526.594 147.785 547.119 160.667 569.819C166.875 580.758 172.656 591.91 177.703 603.48C178.249 604.732 182.34 614.409 183.762 614.052C184.363 613.901 182.994 611.011 182.891 610.811C179.892 604.959 176.716 599.588 173.219 594.031C166.632 583.564 160.648 572.836 153.996 562.41C151.469 558.45 149.081 554.388 146.447 550.498C145.498 549.096 142.121 545.418 143.544 546.333C150.829 551.017 157.112 563.893 162.177 570.79C165.06 574.716 167.884 578.685 170.771 582.609C171.487 583.582 173.829 586.35 173.077 585.405C157.741 566.123 143.519 545.866 130.01 525.264C124.748 517.24 118.056 503.002 110.479 496.674" fill="#00604b" fill-rule="nonzero" opacity="1" stroke="#007aff" stroke-linecap="butt" stroke-linejoin="round" stroke-opacity="0" stroke-width="15.8168" vectornator:layerName="Curve 19"/>
<path d="M187.7 609.197C187.7 609.197 185.435 612.541 184.026 613.972C181.777 616.254 177.889 617.666 176.02 620.193C175.551 620.827 177.566 619.814 178.266 619.451C179.582 618.769 180.831 617.964 182.117 617.226C184.247 616.003 186.369 614.643 188.545 613.501C189.37 613.068 191.406 611.605 191.156 612.502C190.576 614.59 185.033 617.147 183.368 618.205C182.459 618.782 181.664 619.196 180.719 619.764C180.282 620.027 178.925 620.684 179.424 620.58C182.15 620.008 184.877 618.052 187.259 616.693C189.229 615.569 189.265 615.436 191.259 614.56C191.449 614.476 191.974 614.209 191.853 614.377C191.658 614.65 191.276 614.722 191.004 614.917C188.156 616.955 185.221 619.043 182.524 621.293C182.353 621.435 182.017 621.526 182.036 621.748C182.12 622.673 190.051 618.411 191.756 617.926C191.954 617.87 192.227 617.625 192.359 617.784C192.632 618.111 184.692 623.438 184.145 623.842C183.454 624.351 182.778 624.879 182.088 625.389C181.791 625.609 180.867 626.124 181.236 626.1C185.103 625.842 189.003 620.772 192.658 619.413C192.894 619.325 192.18 619.578 191.963 619.704C191.194 620.151 190.455 620.648 189.707 621.128C188.265 622.053 185.262 622.951 184.737 624.552C184.708 624.64 186.078 624.144 188.541 622.848C190.045 622.056 191.6 620.112 193.182 620.733C193.554 620.879 189.02 624.888 188.568 625.305C188.461 625.404 187.699 626.297 187.742 626.307C189.328 626.682 192.226 622.671 193.327 621.889C194.322 621.182 191.608 623.62 190.755 624.492C190.234 625.025 189.449 625.414 189.229 626.126C188.917 627.134 191.327 625.36 191.948 624.508C192.013 624.42 188.901 625.82 190.096 626.559C190.577 626.857 192.77 625.777 192.491 625.187C192.404 625.004 190.08 627.237 192.374 628.656C192.683 628.846 192.067 627.996 191.967 627.647C191.824 627.148 191.527 625.822 191.082 625.519C190.909 625.402 191.372 627.833 191.382 627.87C191.457 628.146 191.929 629.762 192.103 630.207C192.723 631.787 189.825 623.841 190.654 625.323C191.152 626.213 191.537 627.196 192.031 628.099C194.181 632.032 191.424 626.26 190.647 625.834C189.69 625.31 192.979 630.382 193.154 630.341C193.276 630.312 193.074 630.104 193.029 629.988C192.468 628.558 191.559 627.129 190.697 625.865" fill="#00604b" fill-rule="nonzero" opacity="1" stroke="#007aff" stroke-linecap="butt" stroke-linejoin="round" stroke-opacity="0" stroke-width="15.8168" vectornator:layerName="Curve 20"/>
<path d="M193.392 631.47L193.392 631.47" fill="#00604b" fill-rule="nonzero" opacity="1" stroke="#007aff" stroke-linecap="butt" stroke-linejoin="round" stroke-opacity="0" stroke-width="15.8168" vectornator:layerName="Curve 21"/>
<path d="M184.464 636.271L184.464 636.271" fill="#00604b" fill-rule="nonzero" opacity="1" stroke="#007aff" stroke-linecap="butt" stroke-linejoin="round" stroke-opacity="0" stroke-width="15.8168" vectornator:layerName="Curve 22"/>
<path d="M293.597 802.737C293.597 802.737 292.844 800.553 292.468 799.461C291.02 795.256 289.823 790.955 288.122 786.846C283.801 776.4 275.54 767.534 269.586 758.043C266.993 753.909 263.719 750.111 260.755 746.24C259.966 745.21 258.932 742.141 258.259 743.251C256.128 746.774 271.798 775.469 274.681 779.747C276.406 782.307 278.21 784.822 280.18 787.199C281.252 788.492 283.166 792.289 283.777 790.725C285.353 786.696 277.989 776.772 276.603 774.686C264.997 757.224 252.622 740.262 240.958 722.821C233.774 712.079 235.961 715.207 228.762 703.38C227.596 701.464 224.466 695.526 225.307 697.606C233.841 718.704 250.293 738.204 263.164 756.957C266.518 761.843 269.828 766.76 273.175 771.652C274.259 773.237 276.037 778.26 276.455 776.387C277.608 771.228 262.416 751.42 259.778 747.127C244.429 722.154 230.084 691.016 211.098 668.595C210.276 667.625 211.858 671.047 212.503 672.143C213.784 674.317 215.359 676.304 216.84 678.347C220.249 683.051 223.787 687.66 227.173 692.381C235.59 704.12 244.148 715.739 252.186 727.75C254.17 730.714 256.696 734.751 258.481 738.043C258.925 738.862 260.087 741.404 259.712 740.552C249.346 717.018 232.14 695.744 219.146 673.337C214.502 665.329 209.074 650.193 202.028 643.863C201.469 643.361 202.477 645.297 202.762 645.993C204.032 649.101 205.117 652.302 206.69 655.269C209.482 660.533 212.75 665.53 215.831 670.63C221.349 679.765 227.322 688.589 233.306 697.416C235.31 700.373 237.144 703.443 239.149 706.399C239.457 706.853 240.215 708.248 240.149 707.704C239.249 700.284 228.519 688.259 226.277 684.993C219.234 674.733 212.683 664.015 206.069 653.467C203.863 649.948 199.253 636.131 195.749 635.213C194.463 634.876 196.36 637.815 196.883 639.037C198.235 642.192 199.73 645.288 201.36 648.308C202.099 649.677 203.107 650.882 203.974 652.173C210.52 661.916 216.748 675.002 225.108 683.196C226.019 684.089 224.74 680.632 224.194 679.479C223.32 677.633 222.381 675.818 221.4 674.027C220.24 671.911 219.032 669.821 217.775 667.761C213.697 661.081 209.642 653.532 205.021 647.23C204.609 646.669 205.331 648.587 205.534 649.253C206.75 653.239 206.125 651.005 208.718 655.303C213.197 662.728 215.471 667.146 219.818 674.755C228.132 689.31 239.492 701.756 247.58 716.507C258.157 735.797 272.955 752.927 280.156 773.829C283.385 783.201 286.817 792.277 291.225 801.172C292.491 803.727 292.545 803.898 294.183 806.567C294.682 807.379 295.075 809.643 295.742 808.963C296.321 808.372 292.401 800.795 290.362 797.071C288.781 794.182 278.96 774.482 275.439 773.438C275.183 773.362 276.509 777.076 276.574 777.262C277.025 778.573 277.453 779.892 277.928 781.194C278.542 782.877 279.073 784.598 279.842 786.216C284.28 795.559 289.425 802.997 295.6 811.211C296.039 811.795 296.242 813.189 296.932 812.951C297.588 812.725 296.529 811.622 296.255 810.985C295.597 809.452 293.018 804.872 292.625 804.172C286.946 794.058 280.708 784.238 275.117 774.098" fill="#00604b" fill-rule="nonzero" opacity="1" stroke="#007aff" stroke-linecap="butt" stroke-linejoin="round" stroke-opacity="0" stroke-width="15.8168" vectornator:layerName="Curve 23"/>
<path d="M423.638 456.737L423.638 456.737" fill="#00604b" fill-rule="nonzero" opacity="1" stroke="#007aff" stroke-linecap="butt" stroke-linejoin="round" stroke-opacity="0" stroke-width="15.8168" vectornator:layerName="Curve 24"/>
<path d="M193.842 1000.83C193.842 1000.83 195.381 999.019 195.141 999.573C194.863 1000.22 194.358 1000.84 193.917 1001.39C193.784 1001.55 193.352 1002.01 193.495 1001.86C194.103 1001.2 194.614 1000.39 195.168 999.683C195.391 999.399 196.066 998.559 195.885 998.872C195.397 999.716 193.728 1001.26 193.589 1002.13C193.507 1002.63 194.296 1001.38 194.614 1000.98C194.933 1000.58 196.025 998.782 196.57 998.776C196.584 998.776 194.87 1001.32 194.714 1001.52C194.668 1001.57 194.172 1002.1 194.207 1002.07C195.245 1001.34 195.975 999.912 196.834 998.985C197.054 998.746 197.668 998.029 197.561 998.336C197.138 999.544 194.601 1000.99 194.562 1002.18C194.546 1002.68 195.294 1001.49 195.603 1001.1C196.112 1000.45 196.592 999.783 197.152 999.18C197.37 998.945 197.971 998.215 197.845 998.511C197.28 999.837 196.03 1000.7 195.375 1001.93C195.106 1002.44 196.058 1001.02 196.394 1000.55C196.704 1000.13 197.039 999.719 197.365 999.304C197.6 999.005 198.358 998.16 198.159 998.484C197.885 998.929 197.538 999.324 197.228 999.744C196.633 1000.55 196.587 1000.62 196.128 1001.19C193.998 1003.85 197.466 998.965 198.358 998.63C198.705 998.501 197.939 999.239 197.722 999.539C197.281 1000.15 196.589 1001.05 196.11 1001.64C195.914 1001.88 195.32 1002.6 195.503 1002.35C196.213 1001.38 197.295 999.076 198.527 998.687C198.694 998.634 198.305 998.957 198.198 999.095C197.92 999.452 197.638 999.806 197.356 1000.16C196.825 1000.82 196.086 1002.12 195.323 1002.49C194.97 1002.66 195.798 1001.86 196.04 1001.55C196.629 1000.8 197.472 999.762 198.146 999.04C198.281 998.895 198.649 998.473 198.61 998.667C198.466 999.382 197.364 1000.37 196.849 1001C196.552 1001.36 195.565 1002.35 195.916 1002.04C196.626 1001.42 197.099 1000.58 197.714 999.87C198.106 999.417 198.318 999.208 198.731 998.852C198.757 998.83 198.837 998.768 198.814 998.793C197.974 999.698 197.231 1000.71 196.376 1001.62C196.218 1001.78 195.758 1002.29 195.879 1002.09C196.543 1001.01 197.901 999.088 199.059 998.599C199.45 998.434 198.505 999.244 198.234 999.571C197.769 1000.13 197.294 1000.69 196.821 1001.25C196.608 1001.5 195.938 1002.21 196.186 1002C197.137 1001.17 197.842 1000.05 198.726 999.154C198.912 998.965 199.525 998.464 199.344 998.657C198.232 999.844 196.991 1001.01 195.995 1002.3C195.656 1002.74 196.769 1001.5 197.143 1001.09C197.655 1000.53 198.081 1000.01 198.624 999.459C198.95 999.132 200.074 998.678 199.641 998.518C199.226 998.365 198.528 999.492 198.209 999.791C197.305 1000.64 195.514 1002.35 195.514 1002.35C195.514 1002.35 196.25 1001.44 196.613 1000.99C197.338 1000.07 198.079 999.17 198.802 998.253C198.952 998.062 199.432 997.525 199.233 997.665C196.883 999.319 195.236 1002.05 192.724 1003.46C192.349 1003.67 192.977 1002.63 193.194 1002.26C193.735 1001.33 194.333 1000.44 194.922 999.548C195.445 998.753 196.084 998.114 196.758 997.451C196.871 997.341 196.514 997.652 196.407 997.768C196.126 998.075 195.868 998.402 195.597 998.718C195.296 999.066 194.984 999.404 194.691 999.758C193.71 1000.95 192.616 1002.23 191.63 1003.47C191.165 1004.05 192.537 1002.28 192.989 1001.69C193.123 1001.51 193.277 1001.35 193.411 1001.18C194.311 1000.01 195.85 998.967 196.59 997.763C196.68 997.616 196.292 997.941 196.166 998.058C195.593 998.591 195.05 999.156 194.495 999.708C193.656 1000.54 192.868 1001.42 192.068 1002.29C191.984 1002.39 191.719 1002.65 191.8 1002.55C192.832 1001.35 193.815 1000.11 194.948 999.008C195.368 998.6 196.739 997.509 196.246 997.826C194.581 998.895 193.275 1000.57 191.988 1002.04C191.76 1002.3 190.992 1002.96 191.314 1002.83C192.482 1002.37 194.444 999.513 195.317 998.726C195.439 998.617 195.808 998.296 195.687 998.405C195.233 998.817 194.794 999.246 194.363 999.681C193.846 1000.2 193.35 1000.75 192.843 1001.28C192.302 1001.84 191.767 1002.41 191.221 1002.97C190.704 1003.5 192.137 1001.81 192.61 1001.23C193.482 1000.18 194.938 999.318 195.62 998.208C195.693 998.089 195.377 998.352 195.281 998.454C194.71 999.062 194.151 999.684 193.626 1000.33C192.816 1001.33 192.093 1002.4 191.381 1003.48C191.073 1003.94 189.916 1005.04 190.44 1004.86C190.643 1004.78 195.509 998.8 195.723 998.435C196.066 997.851 194.702 999.332 194.256 999.843C194.035 1000.09 191.833 1002.81 191.426 1003.3C191.338 1003.41 191.078 1003.73 191.15 1003.61C192.49 1001.43 194.015 998.883 196.16 997.381" fill="#00604b" fill-rule="nonzero" opacity="1" stroke="#007aff" stroke-linecap="butt" stroke-linejoin="round" stroke-opacity="0" stroke-width="3.49075" vectornator:layerName="Curve 25"/>
<path d="M121.708 1556.7C121.708 1556.7 130.425 1556.8 134.782 1556.7C150.497 1556.33 159.407 1556.38 173.11 1554.37C177.49 1553.73 181.828 1552.82 186.185 1552.04C187.6 1551.79 191.918 1551.78 190.483 1551.68C182.432 1551.11 174.192 1551.88 166.125 1551.68C157.161 1551.46 146.323 1548.95 137.827 1553.11C130.858 1556.53 139.099 1560.68 142.484 1561.35C148.008 1562.45 153.695 1562.49 159.319 1562.79C179.632 1563.87 199.906 1564.46 220.215 1565.83C222.319 1565.97 243.358 1567.23 243.498 1567.08C244.927 1565.56 239.993 1564.79 238.125 1563.86C233.818 1561.71 228.987 1560.8 224.334 1559.56C208.015 1555.22 191.447 1552.97 174.543 1552.76C169.552 1552.69 163.219 1551.97 158.603 1554.91C157.772 1555.43 157.19 1557.08 157.887 1557.77C160.313 1560.2 166.267 1561.45 169.707 1561.53C178.362 1561.73 187.025 1561.79 195.677 1561.53C211.774 1561.06 227.783 1558.94 243.856 1557.95C249.34 1557.61 254.841 1557.69 260.334 1557.59C263.378 1557.54 266.423 1557.59 269.468 1557.59C270.125 1557.59 272.095 1557.59 271.438 1557.59C254.951 1557.59 238.474 1559.33 222.006 1560.1C215.912 1560.39 209.828 1560.83 203.737 1561.17C201.829 1561.28 196.1 1561.21 198.006 1561.35C206.201 1561.98 220.718 1559.97 226.662 1559.56C238.117 1558.78 249.582 1558.15 261.05 1557.59C266.238 1557.34 271.452 1557.21 276.632 1557.59C279.167 1557.78 281.675 1558.28 284.155 1558.85C284.858 1559.01 286.755 1559.39 286.125 1559.74C282.908 1561.53 256.904 1558.49 250.841 1558.49C245.886 1558.49 240.928 1558.3 235.976 1558.49C231.897 1558.64 226.683 1556.86 223.797 1559.74C223.206 1560.33 225.468 1559.75 226.304 1559.74C231.618 1559.69 236.933 1559.73 242.244 1559.56C254.065 1559.2 265.881 1558.56 277.707 1558.49C281.528 1558.46 285.349 1558.49 289.17 1558.49C291.199 1558.49 297.283 1558.64 295.259 1558.49C272.766 1556.84 251.278 1560.75 228.991 1563.5C226.609 1563.8 224.217 1564.01 221.827 1564.22C220.157 1564.37 215.14 1564.69 216.812 1564.58C236.57 1563.26 255.895 1560 275.737 1558.85C282.059 1558.48 288.392 1558.32 294.722 1558.13C296.751 1558.07 302.841 1558.13 300.811 1558.13C296.618 1558.13 292.467 1558.08 288.274 1558.49C277.033 1559.58 265.559 1559.51 254.603 1562.25C253.85 1562.44 256.156 1562.29 256.931 1562.25C262.246 1561.99 267.558 1561.65 272.871 1561.35C280.906 1560.9 289.887 1560.42 297.767 1559.92C298.306 1559.89 299.378 1560.28 299.378 1559.74C299.378 1557.98 295.941 1558.88 294.184 1558.85C285.772 1558.69 275.85 1557.82 267.856 1560.82C267.241 1561.05 269.17 1560.83 269.826 1560.82C273.468 1560.77 277.113 1560.79 280.752 1560.64C287.862 1560.33 295.063 1560.66 302.065 1559.38C303.71 1559.08 298.722 1559.38 297.05 1559.38C295.02 1559.38 292.987 1559.27 290.961 1559.38C284.084 1559.77 274.117 1560.07 268.214 1563.86C267.461 1564.35 270.007 1563.92 270.901 1563.86C274.905 1563.62 278.917 1563.43 282.901 1562.97C287.639 1562.41 292.329 1561.5 297.05 1560.82C298.43 1560.62 301.861 1561.31 301.169 1560.1C299.693 1557.52 277.649 1557.74 273.588 1557.59C243.881 1556.54 214.579 1556.45 185.11 1560.64C175.196 1562.04 165.325 1563.77 155.379 1564.94C154.014 1565.1 151.655 1566.43 151.26 1565.11C150.653 1563.09 170.101 1559.26 170.066 1559.03C169.666 1556.43 158.455 1556.06 157.528 1555.98C148.555 1555.2 139.624 1554.72 130.663 1554.01C118.347 1553.03 121.883 1552.98 111.499 1552.4C110.843 1552.36 109.064 1551.93 109.529 1552.4C111.592 1554.46 134.923 1551.61 137.648 1550.97C140.261 1550.34 132.275 1550.97 129.588 1550.97C122.88 1550.97 116.196 1551.66 109.529 1552.4C108.387 1552.53 105.457 1553.5 106.484 1554.01C111.584 1556.56 127.239 1553.37 131.379 1552.76C132.324 1552.62 129.469 1552.76 128.514 1552.76C125.767 1552.76 123.02 1552.69 120.275 1552.76C116.86 1552.84 103.464 1551.77 100.215 1554.37C99.7353 1554.75 101.228 1555.13 101.827 1555.26C104.101 1555.78 106.501 1555.21 108.812 1554.91C112.705 1554.39 116.571 1553.7 120.454 1553.11C126.626 1552.19 134.396 1552.45 140.334 1550.07C141.554 1549.58 137.7 1549.92 136.394 1550.07C134.355 1550.3 132.339 1550.7 130.305 1550.97C123.081 1551.91 115.664 1552.33 108.633 1554.37C107.94 1554.57 106.544 1554.55 106.663 1555.26C107.223 1558.62 113.478 1555.69 116.872 1555.44C131.215 1554.38 130.042 1554 143.737 1550.25" fill="#00604b" fill-rule="nonzero" opacity="1" stroke="#007aff" stroke-linecap="butt" stroke-linejoin="round" stroke-opacity="0" stroke-width="31.3197" vectornator:layerName="Curve 26"/>
<path d="M129.32 1875.25L129.32 1875.25" fill="#00604b" fill-rule="nonzero" opacity="1" stroke="#007aff" stroke-linecap="butt" stroke-linejoin="round" stroke-opacity="0" stroke-width="31.3197" vectornator:layerName="Curve 30"/>
<path d="M106.396 1887.84L106.396 1887.84" fill="#00604b" fill-rule="nonzero" opacity="1" stroke="#007aff" stroke-linecap="butt" stroke-linejoin="round" stroke-opacity="0" stroke-width="31.3197" vectornator:layerName="Curve 31"/>
<path d="M126.126 1860.22L126.126 1860.22" fill="#00604b" fill-rule="nonzero" opacity="1" stroke="#007aff" stroke-linecap="butt" stroke-linejoin="round" stroke-opacity="0" stroke-width="31.3197" vectornator:layerName="Curve 32"/>
<path d="M209.74 1760.26L209.74 1760.26" fill="#00604b" fill-rule="nonzero" opacity="1" stroke="#007aff" stroke-linecap="butt" stroke-linejoin="round" stroke-opacity="0" stroke-width="31.3197" vectornator:layerName="Curve 33"/>
<path d="M105.269 1891.23L105.269 1891.23" fill="#00604b" fill-rule="nonzero" opacity="1" stroke="#007aff" stroke-linecap="butt" stroke-linejoin="round" stroke-opacity="0" stroke-width="31.3197" vectornator:layerName="Curve 34"/>
<path d="M105.269 1891.23L105.269 1891.23" fill="#00604b" fill-rule="nonzero" opacity="1" stroke="#007aff" stroke-linecap="butt" stroke-linejoin="round" stroke-opacity="0" stroke-width="31.3197" vectornator:layerName="Curve 36"/>
<path d="M105.269 1891.23L105.269 1891.23" fill="#00604b" fill-rule="nonzero" opacity="1" stroke="#007aff" stroke-linecap="butt" stroke-linejoin="round" stroke-opacity="0" stroke-width="31.3197" vectornator:layerName="Curve 38"/>
<path d="M230.597 1782.06L230.597 1782.06C227.215 1775.54 223.832 1769.03 220.45 1762.52" fill="#00604b" fill-rule="nonzero" opacity="1" stroke="#007aff" stroke-linecap="butt" stroke-linejoin="round" stroke-opacity="0" stroke-width="31.3197" vectornator:layerName="Curve 40"/>
<path d="M224.208 1765.52L224.208 1765.52" fill="#00604b" fill-rule="nonzero" opacity="1" stroke="#007aff" stroke-linecap="butt" stroke-linejoin="round" stroke-opacity="0" stroke-width="31.3197" vectornator:layerName="Curve 42"/>
<path d="M291.312 1890.25C291.312 1890.25 292.006 1892.39 292.469 1893.41C294.273 1897.39 296.287 1901.27 298.094 1905.25C300.373 1910.27 301.479 1914.28 305.281 1918.22L291.312 1890.25Z" fill="#00604b" fill-rule="nonzero" opacity="1" stroke="#007aff" stroke-linecap="butt" stroke-linejoin="round" stroke-opacity="0" stroke-width="31.3197" vectornator:layerName="Curve 67"/>
<path d="M203.073 1922.44C203.073 1922.44 201.155 1921.98 200.179 1921.98C195.893 1922.02 191.617 1922.38 187.336 1922.58" fill="#00604b" fill-rule="nonzero" opacity="1" stroke="#007aff" stroke-linecap="butt" stroke-linejoin="round" stroke-opacity="0" stroke-width="31.3197" vectornator:layerName="Curve 45"/>
<path d="M133.288 1919.36C133.288 1919.36 130.318 1918.79 128.833 1918.5" fill="#00604b" fill-rule="nonzero" opacity="1" stroke="#007aff" stroke-linecap="butt" stroke-linejoin="round" stroke-opacity="0" stroke-width="31.3197" vectornator:layerName="Curve 47"/>
<path d="M296.572 2640.54L296.572 2640.54" fill="#00604b" fill-rule="nonzero" opacity="1" stroke="#007aff" stroke-linecap="butt" stroke-linejoin="round" stroke-opacity="0" stroke-width="31.3197" vectornator:layerName="Curve 52"/>
<path d="M302.397 2647.79L302.397 2647.79" fill="#00604b" fill-rule="nonzero" opacity="1" stroke="#007aff" stroke-linecap="butt" stroke-linejoin="round" stroke-opacity="0" stroke-width="31.3197" vectornator:layerName="Curve 53"/>
<path d="M305.507 2651.75L305.507 2651.75" fill="#00604b" fill-rule="nonzero" opacity="1" stroke="#007aff" stroke-linecap="butt" stroke-linejoin="round" stroke-opacity="0" stroke-width="31.3197" vectornator:layerName="Curve 54"/>
<path d="M302.372 2649.41C302.372 2649.41 304.372 2651.38 305.373 2652.37" fill="#00604b" fill-rule="nonzero" opacity="1" stroke="#007aff" stroke-linecap="butt" stroke-linejoin="round" stroke-opacity="0" stroke-width="31.3197" vectornator:layerName="Curve 55"/>
<path d="M301.947 2626.24L301.947 2626.24" fill="#00604b" fill-rule="nonzero" opacity="1" stroke="#007aff" stroke-linecap="butt" stroke-linejoin="round" stroke-opacity="0" stroke-width="31.3197" vectornator:layerName="Curve 56"/>
<path d="M306.259 2633.81L306.259 2633.81" fill="#00604b" fill-rule="nonzero" opacity="1" stroke="#007aff" stroke-linecap="butt" stroke-linejoin="round" stroke-opacity="0" stroke-width="31.3197" vectornator:layerName="Curve 57"/>
<path d="M305.067 2643.71L305.067 2643.71" fill="#00604b" fill-rule="nonzero" opacity="1" stroke="#007aff" stroke-linecap="butt" stroke-linejoin="round" stroke-opacity="0" stroke-width="31.3197" vectornator:layerName="Curve 58"/>
<path d="M305.415 2639L305.415 2639" fill="#00604b" fill-rule="nonzero" opacity="1" stroke="#007aff" stroke-linecap="butt" stroke-linejoin="round" stroke-opacity="0" stroke-width="31.3197" vectornator:layerName="Curve 59"/>
<path d="M305.923 2654.75L305.923 2654.75" fill="#00604b" fill-rule="nonzero" opacity="1" stroke="#007aff" stroke-linecap="butt" stroke-linejoin="round" stroke-opacity="0" stroke-width="31.3197" vectornator:layerName="Curve 60"/>
</g>
<g clip-path="url(#ArtboardFrame)" id="Color-variety" vectornator:layerName="Color variety">
<path d="M299.749 263.372L405.581 263.433C405.845 263.433 406.01 263.719 405.878 263.948L352.909 355.57L299.941 447.193C299.808 447.421 299.478 447.421 299.346 447.192L246.483 355.509L193.62 263.826C193.488 263.597 193.653 263.311 193.917 263.311L208.6 263.32L299.749 263.372Z" fill="#18cba5" fill-rule="nonzero" opacity="1" stroke="#007aff" stroke-linecap="butt" stroke-linejoin="round" stroke-opacity="0" stroke-width="0.012153" vectornator:layerName="Star 24"/>
<path d="M203.442 1554.2L309.274 1554.12C309.538 1554.12 309.704 1554.4 309.572 1554.63L256.728 1646.33L203.884 1738.02C203.752 1738.25 203.422 1738.25 203.29 1738.02L150.302 1646.41L97.3141 1554.8C97.1819 1554.57 97.3467 1554.28 97.6108 1554.28L112.293 1554.27L203.442 1554.2Z" fill="#18cba5" fill-rule="nonzero" opacity="1" stroke="#007aff" stroke-linecap="butt" stroke-linejoin="round" stroke-opacity="0" stroke-width="0.012153" vectornator:layerName="Star 25"/>
<path d="M204.712 2661.37L98.8804 2661.39C98.6162 2661.39 98.4511 2661.11 98.5831 2660.88L151.477 2569.21L204.371 2477.55C204.503 2477.32 204.834 2477.32 204.966 2477.55L257.903 2569.19L310.841 2660.83C310.973 2661.05 310.808 2661.34 310.544 2661.34L295.861 2661.34L204.712 2661.37Z" fill="#18cba5" fill-rule="nonzero" opacity="1" stroke="#007aff" stroke-linecap="butt" stroke-linejoin="round" stroke-opacity="0" stroke-width="0.012153" vectornator:layerName="Star 26"/>
<path d="M205.211 2290.92L99.3795 2290.94C99.1154 2290.94 98.9502 2290.66 99.0822 2290.43L151.976 2198.76L204.87 2107.1C205.002 2106.87 205.333 2106.87 205.465 2107.1L258.402 2198.74L311.34 2290.38C311.472 2290.61 311.307 2290.89 311.043 2290.89L296.36 2290.9L205.211 2290.92Z" fill="#18cba5" fill-rule="nonzero" opacity="1" stroke="#007aff" stroke-linecap="butt" stroke-linejoin="round" stroke-opacity="0" stroke-width="0.012153" vectornator:layerName="Star 27"/>
<path d="M193.323 816.059L87.4917 816.084C87.2276 816.084 87.0625 815.799 87.1945 815.57L140.089 723.904L192.983 632.239C193.115 632.01 193.445 632.01 193.577 632.239L246.515 723.879L299.452 815.52C299.584 815.748 299.419 816.034 299.155 816.034L284.473 816.038L193.323 816.059Z" fill="#18cba5" fill-rule="nonzero" opacity="1" stroke="#007aff" stroke-linecap="butt" stroke-linejoin="round" stroke-opacity="0" stroke-width="0.012153" vectornator:layerName="Star 28"/>
<path d="M202.689 1922.87L308.521 1922.78C308.785 1922.78 308.95 1923.07 308.818 1923.3L255.974 2014.99L203.13 2106.69C202.999 2106.91 202.668 2106.91 202.536 2106.69L149.548 2015.07L96.5607 1923.46C96.4284 1923.23 96.5933 1922.95 96.8574 1922.95L111.54 1922.94L202.689 1922.87Z" fill="#142800" fill-rule="nonzero" opacity="1" stroke="#007aff" stroke-linecap="butt" stroke-linejoin="round" stroke-opacity="0" stroke-width="0.012153" vectornator:layerName="Star 29"/>
<path d="M8.13885e-05 3017.71L-105.832 3017.74C-106.096 3017.74-106.261 3017.45-106.129 3017.22L-53.2347 2925.56L-0.340591 2833.89C-0.208585 2833.66 0.121562 2833.66 0.253676 2833.89L53.1912 2925.53L106.129 3017.17C106.261 3017.4 106.096 3017.69 105.832 3017.69L91.1494 3017.69L8.13885e-05 3017.71Z" fill="#142800" fill-rule="nonzero" opacity="1" stroke="#007aff" stroke-linecap="butt" stroke-linejoin="round" stroke-opacity="0" stroke-width="0.012153" vectornator:layerName="Star 30"/>
<path d="M299.499 1000.08L193.667 1000.1C193.403 1000.1 193.238 999.816 193.37 999.587L246.264 907.922L299.158 816.256C299.29 816.027 299.62 816.027 299.752 816.256L352.69 907.896L405.627 999.537C405.76 999.765 405.595 1000.05 405.33 1000.05L390.648 1000.05L299.499 1000.08Z" fill="#142800" fill-rule="nonzero" opacity="1" stroke="#007aff" stroke-linecap="butt" stroke-linejoin="round" stroke-opacity="0" stroke-width="0.012153" vectornator:layerName="Star 31"/>
<path d="M83.5397 260.355L-22.292 260.381C-22.5561 260.381-22.7213 260.095-22.5893 259.866L30.3049 168.2L83.199 76.535C83.331 76.3063 83.6612 76.3062 83.7933 76.5349L136.731 168.175L189.668 259.816C189.8 260.044 189.635 260.33 189.371 260.33L174.689 260.334L83.5397 260.355Z" fill="#142800" fill-rule="nonzero" opacity="1" stroke="#007aff" stroke-linecap="butt" stroke-linejoin="round" stroke-opacity="0" stroke-width="0.012153" vectornator:layerName="Star 32"/>
</g>
<g clip-path="url(#ArtboardFrame)" id="Light-green" vectornator:layerName="Light green">
<path d="M202.69 76.3456L127.046 76.3635C126.857 76.3636 126.739 76.1593 126.833 75.9957L164.64 10.4772L202.446-55.0413C202.541-55.2048 202.777-55.2049 202.871-55.0414L240.709 10.4592L278.546 75.9598C278.64 76.1233 278.522 76.3277 278.334 76.3277L267.839 76.3302L202.69 76.3456Z" fill="#28ba99" fill-rule="nonzero" opacity="1" stroke="#007aff" stroke-linecap="butt" stroke-linejoin="round" stroke-opacity="0" stroke-width="0.00868642" vectornator:layerName="Star 7"/>
<path d="M136.502 2829.12L212.143 2829.76C212.332 2829.76 212.448 2829.97 212.352 2830.13L173.976 2895.32L135.6 2960.5C135.504 2960.66 135.268 2960.66 135.175 2960.5L97.9103 2894.67L60.6452 2828.84C60.5522 2828.68 60.6719 2828.47 60.8607 2828.48L71.3547 2828.57L136.502 2829.12Z" fill="#28ba99" fill-rule="nonzero" opacity="1" stroke="#007aff" stroke-linecap="butt" stroke-linejoin="round" stroke-opacity="0" stroke-width="0.00868642" vectornator:layerName="Star 14"/>
<path d="M444.899 1579.35L520.54 1579.99C520.729 1580 520.845 1580.2 520.749 1580.36L482.373 1645.55L443.997 1710.74C443.901 1710.9 443.665 1710.9 443.572 1710.73L406.307 1644.91L369.042 1579.08C368.949 1578.91 369.069 1578.71 369.258 1578.71L379.752 1578.8L444.899 1579.35Z" fill="#28ba99" fill-rule="nonzero" opacity="1" stroke="#007aff" stroke-linecap="butt" stroke-linejoin="round" stroke-opacity="0" stroke-width="0.00868642" vectornator:layerName="Star 12"/>
<path d="M336.768 1316.35L412.409 1316.99C412.598 1317 412.714 1317.2 412.618 1317.36L374.242 1382.55L335.866 1447.74C335.77 1447.9 335.534 1447.9 335.441 1447.73L298.176 1381.9L260.911 1316.08C260.818 1315.91 260.938 1315.71 261.127 1315.71L271.621 1315.8L336.768 1316.35Z" fill="#28ba99" fill-rule="nonzero" opacity="1" stroke="#007aff" stroke-linecap="butt" stroke-linejoin="round" stroke-opacity="0" stroke-width="0.00868642" vectornator:layerName="Star 9"/>
<path d="M416.547 816.919L492.188 817.56C492.377 817.562 492.493 817.767 492.397 817.93L454.021 883.116L415.645 948.303C415.549 948.466 415.313 948.464 415.22 948.299L377.955 882.471L340.69 816.644C340.597 816.479 340.717 816.276 340.906 816.278L351.4 816.366L416.547 816.919Z" fill="#28ba99" fill-rule="nonzero" opacity="1" stroke="#007aff" stroke-linecap="butt" stroke-linejoin="round" stroke-opacity="0" stroke-width="0.00868642" vectornator:layerName="Star 8"/>
<path d="M373.212 574.176L297.568 574.194C297.379 574.194 297.261 573.99 297.355 573.826L335.162 508.308L372.968 442.789C373.062 442.625 373.298 442.625 373.393 442.789L411.23 508.29L449.068 573.79C449.162 573.954 449.044 574.158 448.855 574.158L438.361 574.16L373.212 574.176Z" fill="#28ba99" fill-rule="nonzero" opacity="1" stroke="#007aff" stroke-linecap="butt" stroke-linejoin="round" stroke-opacity="0" stroke-width="0.00868642" vectornator:layerName="Star 6"/>
<path d="M439.289 2640.52L363.645 2640.54C363.456 2640.54 363.338 2640.34 363.433 2640.17L401.239 2574.65L439.045 2509.14C439.14 2508.97 439.376 2508.97 439.47 2509.14L477.308 2574.64L515.145 2640.14C515.24 2640.3 515.122 2640.5 514.933 2640.5L504.439 2640.51L439.289 2640.52Z" fill="#28ba99" fill-rule="nonzero" opacity="1" stroke="#007aff" stroke-linecap="butt" stroke-linejoin="round" stroke-opacity="0" stroke-width="0.00868642" vectornator:layerName="Star 11"/>
<path d="M308.181 2107.7L232.537 2107.72C232.348 2107.72 232.23 2107.51 232.325 2107.35L270.131 2041.83L307.938 1976.31C308.032 1976.15 308.268 1976.15 308.362 1976.31L346.2 2041.81L384.037 2107.31C384.132 2107.48 384.014 2107.68 383.825 2107.68L373.331 2107.68L308.181 2107.7Z" fill="#28ba99" fill-rule="nonzero" opacity="1" stroke="#007aff" stroke-linecap="butt" stroke-linejoin="round" stroke-opacity="0" stroke-width="0.00868642" vectornator:layerName="Star 10"/>
<path d="M136.498 2829.53L60.8565 2828.88C60.6677 2828.88 60.5515 2828.67 60.6473 2828.51L99.0281 2763.33L137.409 2698.14C137.505 2697.98 137.741 2697.98 137.834 2698.15L175.094 2763.98L212.354 2829.81C212.447 2829.97 212.328 2830.18 212.139 2830.17L201.645 2830.09L136.498 2829.53Z" fill="#28ba99" fill-rule="nonzero" opacity="1" stroke="#007aff" stroke-linecap="butt" stroke-linejoin="round" stroke-opacity="0" stroke-width="0.00868642" vectornator:layerName="Star 15"/>
<path d="M444.899 1579.85L369.258 1579.21C369.069 1579.2 368.953 1579 369.049 1578.84L407.429 1513.65L445.81 1448.47C445.906 1448.31 446.142 1448.31 446.235 1448.47L483.495 1514.3L520.756 1580.13C520.849 1580.3 520.729 1580.5 520.54 1580.5L510.046 1580.41L444.899 1579.85Z" fill="#28ba99" fill-rule="nonzero" opacity="1" stroke="#007aff" stroke-linecap="butt" stroke-linejoin="round" stroke-opacity="0" stroke-width="0.00868642" vectornator:layerName="Star 13"/>
<path d="M243.336 1221.27L167.692 1221.29C167.503 1221.29 167.385 1221.09 167.479 1220.92L205.286 1155.4L243.092 1089.88C243.187 1089.72 243.423 1089.72 243.517 1089.88L281.355 1155.39L319.192 1220.89C319.287 1221.05 319.169 1221.25 318.98 1221.25L308.485 1221.26L243.336 1221.27Z" fill="#28ba99" fill-rule="nonzero" opacity="1" stroke="#007aff" stroke-linecap="butt" stroke-linejoin="round" stroke-opacity="0" stroke-width="0.00868642" vectornator:layerName="Star 5"/>
</g>
<g id="black" vectornator:layerName="black">
<path d="M204.446 138.154L238.946 138.154C239.032 138.154 239.086 138.247 239.043 138.322L221.793 168.2L204.542 198.079C204.499 198.154 204.392 198.154 204.349 198.079L187.098 168.2L169.848 138.322C169.805 138.247 169.859 138.154 169.945 138.154L174.731 138.154L204.446 138.154Z" fill="#000000" fill-rule="nonzero" opacity="1" stroke="#007aff" stroke-linecap="butt" stroke-linejoin="round" stroke-opacity="0" stroke-width="0.00396183" vectornator:layerName="Star 12"/>
<path d="M373.211 1052.52L407.712 1052.52C407.798 1052.52 407.852 1052.61 407.809 1052.69L390.559 1082.57L373.308 1112.44C373.265 1112.52 373.158 1112.52 373.115 1112.44L355.864 1082.57L338.614 1052.69C338.571 1052.61 338.625 1052.52 338.711 1052.52L343.497 1052.52L373.211 1052.52Z" fill="#000000" fill-rule="nonzero" opacity="1" stroke="#007aff" stroke-linecap="butt" stroke-linejoin="round" stroke-opacity="0" stroke-width="0.00396183" vectornator:layerName="Star 11"/>
<path d="M466.486 2667.73L500.987 2667.73C501.073 2667.73 501.127 2667.82 501.084 2667.9L483.833 2697.78L466.583 2727.66C466.54 2727.73 466.432 2727.73 466.389 2727.66L449.139 2697.78L431.888 2667.9C431.845 2667.82 431.899 2667.73 431.985 2667.73L436.772 2667.73L466.486 2667.73Z" fill="#000000" fill-rule="nonzero" opacity="1" stroke="#007aff" stroke-linecap="butt" stroke-linejoin="round" stroke-opacity="0" stroke-width="0.00396183" vectornator:layerName="Star 10"/>
</g>
</svg>