<?xml version="1.0" encoding="UTF-8" standalone="no"?>
<!DOCTYPE svg PUBLIC "-//W3C//DTD SVG 1.1//EN" "http://www.w3.org/Graphics/SVG/1.1/DTD/svg11.dtd">
<!-- Created with Vectornator (http://vectornator.io/) -->
<svg height="100%" stroke-miterlimit="10" style="fill-rule:nonzero;clip-rule:evenodd;stroke-linecap:round;stroke-linejoin:round;" version="1.1" viewBox="0 0 600 3000" width="100%" xml:space="preserve" xmlns="http://www.w3.org/2000/svg" xmlns:vectornator="http://vectornator.io" xmlns:xlink="http://www.w3.org/1999/xlink">
<defs/>
<g id="Black-everything-else" vectornator:layerName="Black everything else"/>
<g id="More-dark-green" vectornator:layerName="More dark green"/>
<g id="Dark-green" vectornator:layerName="Dark green"/>
<g id="Color-variety" vectornator:layerName="Color variety"/>
<g id="Light-green" vectornator:layerName="Light green"/>
<clipPath id="ArtboardFrame">
<rect height="3000" width="600" x="0" y="0"/>
</clipPath>
<g clip-path="url(#ArtboardFrame)" id="black" vectornator:layerName="black">
<g opacity="1" vectornator:layerName="Group 1">
<path d="M660.158 2683.07L501.468 2683.07L501.468 2506.78L660.158 2506.78L660.158 2683.07Z" fill="#000000" fill-rule="nonzero" opacity="1" stroke="#007aff" stroke-linecap="butt" stroke-linejoin="round" stroke-opacity="0" stroke-width="0.012153" vectornator:layerName="Rectangle 1"/>
<path d="M688.442 2306.08L501.468 2306.08L501.468 1985.32L688.442 1985.32L688.442 2306.08Z" fill="#000000" fill-rule="nonzero" opacity="1" stroke="#007aff" stroke-linecap="butt" stroke-linejoin="round" stroke-opacity="0" stroke-width="0.012153" vectornator:layerName="Rectangle 2"/>
<path d="M688.442 1953.74L513.587 1953.74L513.587 1613.13L688.442 1613.13L688.442 1953.74Z" fill="#000000" fill-rule="nonzero" opacity="1" stroke="#007aff" stroke-linecap="butt" stroke-linejoin="round" stroke-opacity="0" stroke-width="0.012153" vectornator:layerName="Rectangle 3"/>
<path d="M729.702 1639.16L511.546 1639.16L511.546 1325.58L729.702 1325.58L729.702 1639.16Z" fill="#000000" fill-rule="nonzero" opacity="1" stroke="#007aff" stroke-linecap="butt" stroke-linejoin="round" stroke-opacity="0" stroke-width="0.012153" vectornator:layerName="Rectangle 4"/>
<path d="M729.702 1050.64L404.104 1050.64L404.104 789.295L729.702 789.295L729.702 1050.64Z" fill="#000000" fill-rule="nonzero" opacity="1" stroke="#007aff" stroke-linecap="butt" stroke-linejoin="round" stroke-opacity="0" stroke-width="0.012153" vectornator:layerName="Rectangle 5"/>
<path d="M673.849 690.707L498.483 690.707L498.483 479.827L673.849 479.827L673.849 690.707Z" fill="#000000" fill-rule="nonzero" opacity="1" stroke="#007aff" stroke-linecap="butt" stroke-linejoin="round" stroke-opacity="0" stroke-width="0.012153" vectornator:layerName="Rectangle 6"/>
<path d="M350.373 2581.79C350.373 2581.79 353.824 2588.13 355.676 2591.23C358.051 2595.21 360.625 2599.06 363.049 2603C364.382 2605.17 368.836 2614.96 371.587 2615.42C372.321 2615.54 371.466 2613.92 371.199 2613.22C370.596 2611.66 369.795 2610.17 369 2608.69C365.569 2602.32 362.06 2595.99 358.522 2589.68C353.927 2581.48 349.06 2573.59 343.905 2565.75" fill="#04473a" fill-rule="nonzero" opacity="1" stroke="#007aff" stroke-linecap="butt" stroke-linejoin="round" stroke-opacity="0" stroke-width="0.012153" vectornator:layerName="Curve 1"/>
<path d="M351.149 2579.46L351.149 2579.46C361.842 2595.8 372.082 2612.45 383.229 2628.49C389.463 2637.46 371.923 2609.79 365.895 2600.68C360.95 2593.2 355.357 2586.17 350.243 2578.81C346.949 2574.07 346.033 2572.74 342.223 2568.47C341.878 2568.08 340.853 2566.95 341.059 2567.43C347.2 2581.65 360.128 2594.6 368.612 2607.66C371.069 2611.44 373.386 2615.32 375.726 2619.17C377.603 2622.26 384.397 2636.47 382.841 2630.56" fill="#04473a" fill-rule="nonzero" opacity="1" stroke="#007aff" stroke-linecap="butt" stroke-linejoin="round" stroke-opacity="0" stroke-width="0.012153" vectornator:layerName="Curve 2"/>
<path d="M369.905 2608.18L369.905 2608.18" fill="#04473a" fill-rule="nonzero" opacity="1" stroke="#007aff" stroke-linecap="butt" stroke-linejoin="round" stroke-opacity="0" stroke-width="0.012153" vectornator:layerName="Curve 3"/>
<path d="M380.641 2630.04L380.641 2630.04" fill="#04473a" fill-rule="nonzero" opacity="1" stroke="#007aff" stroke-linecap="butt" stroke-linejoin="round" stroke-opacity="0" stroke-width="0.012153" vectornator:layerName="Curve 4"/>
<path d="M358.522 2592.14C358.522 2592.14 371.26 2608.08 365.895 2606.88" fill="#04473a" fill-rule="nonzero" opacity="1" stroke="#007aff" stroke-linecap="butt" stroke-linejoin="round" stroke-opacity="0" stroke-width="124.807" vectornator:layerName="Curve 5"/>
<path d="M360.074 2599.51C360.074 2599.51 356.28 2594.51 354.383 2592.01" fill="#04473a" fill-rule="nonzero" opacity="1" stroke="#007aff" stroke-linecap="butt" stroke-linejoin="round" stroke-opacity="0" stroke-width="124.807" vectornator:layerName="Curve 6"/>
<path d="M390.084 2640C390.084 2640 391.815 2643.27 391.378 2642.46C385.993 2632.41 379.776 2623.27 373.139 2614" fill="#04473a" fill-rule="nonzero" opacity="1" stroke="#007aff" stroke-linecap="butt" stroke-linejoin="round" stroke-opacity="0" stroke-width="124.807" vectornator:layerName="Curve 7"/>
<path d="M334.591 2564.46L334.591 2564.46" fill="#04473a" fill-rule="nonzero" opacity="1" stroke="#007aff" stroke-linecap="butt" stroke-linejoin="round" stroke-opacity="0" stroke-width="124.807" vectornator:layerName="Curve 8"/>
<path d="M512.417 475.97L406.586 476.053C406.321 476.053 406.156 475.767 406.288 475.538L459.132 383.844L511.976 292.15C512.108 291.921 512.438 291.921 512.57 292.149L565.558 383.761L618.546 475.372C618.678 475.601 618.513 475.887 618.249 475.887L603.566 475.898L512.417 475.97Z" fill="#04473a" fill-rule="nonzero" opacity="1" stroke="#007aff" stroke-linecap="butt" stroke-linejoin="round" stroke-opacity="0" stroke-width="0.012153" vectornator:layerName="Star 31"/>
<path d="M298.534 664.246L404.346 664.152L495.502 664.09L510.19 664.09C510.454 664.09 510.603 663.787 510.471 663.559L457.502 571.965L404.502 480.34C404.37 480.111 404.04 480.112 403.908 480.341L351.065 572.027L298.221 663.746C298.089 663.975 298.269 664.246 298.534 664.246Z" fill="#04473a" fill-rule="nonzero" opacity="1" stroke="#007aff" stroke-linecap="butt" stroke-linejoin="round" stroke-opacity="0" stroke-width="0.012153" vectornator:layerName="Curve 31"/>
<path d="M627.147 2867.4L521.315 2867.49C521.051 2867.49 520.886 2867.2 521.017 2866.97L573.861 2775.28L626.705 2683.58C626.837 2683.35 627.167 2683.35 627.3 2683.58L680.287 2775.19L733.275 2866.8C733.407 2867.03 733.242 2867.32 732.978 2867.32L718.296 2867.33L627.147 2867.4Z" fill="#04473a" fill-rule="nonzero" opacity="1" stroke="#007aff" stroke-linecap="butt" stroke-linejoin="round" stroke-opacity="0" stroke-width="0.012153" vectornator:layerName="Star 22"/>
<path d="M422.284 2696.53L519.252 2696.46L610.409 2696.37L625.096 2696.37C625.36 2696.37 625.51 2696.07 625.377 2695.84L572.409 2604.25L519.409 2512.62C519.276 2512.39 518.946 2512.39 518.814 2512.62L465.971 2604.34L417.502 2688.46C417.787 2688.69 418.041 2688.92 418.346 2689.18C418.544 2689.35 418.754 2689.54 419.065 2689.81C419.159 2689.89 419.198 2690 419.284 2690.09C419.465 2690.25 419.739 2690.49 419.877 2690.62C419.915 2690.66 420.502 2691.27 420.565 2691.34C421.399 2692.22 421.799 2693.37 421.752 2694.5C421.829 2694.61 421.899 2694.71 421.971 2694.84C422.081 2695.04 422.078 2695.06 422.252 2695.46C422.356 2695.68 422.253 2696.33 422.284 2696.53Z" fill="#04473a" fill-rule="nonzero" opacity="1" stroke="#007aff" stroke-linecap="butt" stroke-linejoin="round" stroke-opacity="0" stroke-width="0.012153" vectornator:layerName="Curve 16"/>
<path d="M419.69 2696.12L521.409 2696.06L612.565 2695.96L627.252 2695.96C627.516 2695.96 627.666 2695.66 627.534 2695.43L574.565 2603.84L521.565 2512.22C521.433 2511.99 521.103 2511.99 520.971 2512.22L468.127 2603.93L416.877 2692.87C417.104 2693 417.323 2693.13 417.502 2693.28C418 2693.7 418.303 2694.38 418.627 2695.03C418.612 2694.99 418.645 2694.91 418.627 2694.87C418.412 2694.43 418.419 2694.42 418.284 2694.21C418.179 2694.06 418.085 2693.94 418.002 2693.84C417.991 2693.83 418.186 2694 418.534 2694.31C419.104 2694.81 419.454 2695.45 419.69 2696.12Z" fill="#04473a" fill-rule="nonzero" opacity="1" stroke="#007aff" stroke-linecap="butt" stroke-linejoin="round" stroke-opacity="0" stroke-width="0.012153" vectornator:layerName="Curve 14"/>
<path d="M419.69 2696.18L523.627 2696.12L614.784 2696.03L629.471 2696.03C629.735 2696.03 629.885 2695.72 629.752 2695.5L576.784 2603.9L523.784 2512.28C523.651 2512.05 523.321 2512.05 523.189 2512.28L470.346 2604L418.377 2694.15C418.454 2694.22 418.425 2694.21 418.534 2694.31C419.121 2694.83 419.457 2695.49 419.69 2696.18Z" fill="#04473a" fill-rule="nonzero" opacity="1" stroke="#007aff" stroke-linecap="butt" stroke-linejoin="round" stroke-opacity="0" stroke-width="0.012153" vectornator:layerName="Curve 15"/>
<path d="M527.483 2691.85L415.85 2691.94C415.573 2691.94 415.4 2691.64 415.539 2691.4L471.279 2595.13L527.02 2498.86C527.159 2498.62 527.504 2498.62 527.642 2498.86L583.535 2595.05L639.426 2691.22C639.565 2691.46 639.393 2691.76 639.116 2691.76L623.626 2691.78L527.483 2691.85Z" fill="#04473a" fill-rule="nonzero" opacity="1" stroke="#007aff" stroke-linecap="butt" stroke-linejoin="round" stroke-opacity="0" stroke-width="0.012734" vectornator:layerName="Star 23"/>
<path d="M631.7 2878.85L525.868 2878.94C525.604 2878.94 525.439 2878.65 525.571 2878.42L578.415 2786.73L631.258 2695.03C631.39 2694.8 631.721 2694.8 631.853 2695.03L684.84 2786.64L737.828 2878.25C737.96 2878.48 737.796 2878.77 737.532 2878.77L722.849 2878.78L631.7 2878.85Z" fill="#04473a" fill-rule="nonzero" opacity="1" stroke="#007aff" stroke-linecap="butt" stroke-linejoin="round" stroke-opacity="0" stroke-width="0.012153" vectornator:layerName="Star 21"/>
<path d="M619.227 2508.79L513.395 2508.87C513.131 2508.87 512.966 2508.59 513.098 2508.36L565.941 2416.66L618.785 2324.97C618.917 2324.74 619.247 2324.74 619.38 2324.97L672.367 2416.58L725.355 2508.19C725.487 2508.42 725.322 2508.71 725.058 2508.71L710.376 2508.72L619.227 2508.79Z" fill="#04473a" fill-rule="nonzero" opacity="1" stroke="#007aff" stroke-linecap="butt" stroke-linejoin="round" stroke-opacity="0" stroke-width="0.012153" vectornator:layerName="Star 20"/>
<path d="M520.72 2323.46L414.889 2323.55C414.625 2323.55 414.459 2323.26 414.591 2323.03L467.435 2231.34L520.279 2139.64C520.411 2139.42 520.741 2139.42 520.873 2139.64L573.861 2231.26L626.849 2322.87C626.981 2323.1 626.816 2323.38 626.552 2323.38L611.87 2323.39L520.72 2323.46Z" fill="#04473a" fill-rule="nonzero" opacity="1" stroke="#007aff" stroke-linecap="butt" stroke-linejoin="round" stroke-opacity="0" stroke-width="0.012153" vectornator:layerName="Star 19"/>
<path d="M309.928 2138.99L415.771 2138.89L506.928 2138.83L521.615 2138.8C521.879 2138.8 522.029 2138.53 521.896 2138.3L468.928 2046.68L415.928 1955.08C415.795 1954.85 415.465 1954.85 415.333 1955.08L362.49 2046.77L309.646 2138.46C309.514 2138.69 309.663 2138.99 309.928 2138.99Z" fill="#04473a" fill-rule="nonzero" opacity="1" stroke="#007aff" stroke-linecap="butt" stroke-linejoin="round" stroke-opacity="0" stroke-width="0.012153" vectornator:layerName="Curve 19"/>
<path d="M609.315 654.95L719.528 654.95C719.803 654.95 719.975 655.248 719.837 655.486L664.731 750.933L609.624 846.38C609.487 846.618 609.143 846.618 609.005 846.38L553.899 750.933L498.793 655.486C498.655 655.248 498.827 654.95 499.102 654.95L514.392 654.95L609.315 654.95Z" fill="#04473a" fill-rule="nonzero" opacity="1" stroke="#007aff" stroke-linecap="butt" stroke-linejoin="round" stroke-opacity="0" stroke-width="0.0126561" vectornator:layerName="Star 28"/>
<path d="M621.615 291.978L731.828 291.978C732.103 291.978 732.275 292.276 732.137 292.514L677.031 387.961L621.925 483.408C621.787 483.646 621.443 483.646 621.306 483.408L566.199 387.961L511.093 292.514C510.955 292.276 511.127 291.978 511.402 291.978L526.693 291.978L621.615 291.978Z" fill="#04473a" fill-rule="nonzero" opacity="1" stroke="#007aff" stroke-linecap="butt" stroke-linejoin="round" stroke-opacity="0" stroke-width="0.0126561" vectornator:layerName="Star 30"/>
<path d="M507.067 664.687C507.203 664.928 507.551 664.928 507.688 664.687L564.377 564.746L621.064 464.78C621.199 464.542 621.027 464.246 620.753 464.246L507.377 464.246L409.784 464.246L397.721 464.246C397.747 464.303 397.79 464.344 397.815 464.402C398.218 465.349 399.079 466.581 400.659 468.559C400.681 468.587 400.892 468.866 400.971 468.965C401.345 469.256 401.724 469.552 402.034 469.902C402.353 470.263 402.605 470.591 402.815 470.934C403.008 471.249 403.139 471.499 403.284 471.809C403.307 471.86 403.382 471.989 403.44 472.121C403.869 472.708 404.303 473.265 404.565 474.121C405.205 476.212 404.837 478.532 403.502 480.371C403.328 480.611 403.072 480.724 402.877 480.934L450.409 564.746L507.067 664.687Z" fill="#04473a" fill-rule="nonzero" opacity="1" stroke="#007aff" stroke-linecap="butt" stroke-linejoin="round" stroke-opacity="0" stroke-width="0.0126561" vectornator:layerName="Curve 32"/>
<path d="M613.577 654.95L723.79 654.95C724.065 654.95 724.237 655.248 724.099 655.486L668.993 750.933L613.887 846.38C613.749 846.618 613.405 846.618 613.268 846.38L558.161 750.933L503.055 655.486C502.917 655.248 503.089 654.95 503.364 654.95L518.655 654.95L613.577 654.95Z" fill="#04473a" fill-rule="nonzero" opacity="1" stroke="#007aff" stroke-linecap="butt" stroke-linejoin="round" stroke-opacity="0" stroke-width="0.0126561" vectornator:layerName="Star 27"/>
<path d="M612.299 1023.05L722.512 1023.05C722.787 1023.05 722.959 1023.34 722.821 1023.58L667.715 1119.03L612.609 1214.48C612.471 1214.72 612.127 1214.72 611.99 1214.48L556.883 1119.03L501.777 1023.58C501.639 1023.34 501.811 1023.05 502.086 1023.05L517.377 1023.05L612.299 1023.05Z" fill="#04473a" fill-rule="nonzero" opacity="1" stroke="#007aff" stroke-linecap="butt" stroke-linejoin="round" stroke-opacity="0" stroke-width="0.0126561" vectornator:layerName="Star 26"/>
<path d="M520.099 2141.38C520.237 2141.61 520.581 2141.61 520.718 2141.38L575.815 2045.9L630.937 1950.47C631.075 1950.23 630.903 1949.93 630.628 1949.93L520.409 1949.93L425.471 1949.93L413.877 1949.93C412.975 1951.21 412.18 1952.27 411.44 1953.15L465.002 2045.9L520.099 2141.38Z" fill="#04473a" fill-rule="nonzero" opacity="1" stroke="#007aff" stroke-linecap="butt" stroke-linejoin="round" stroke-opacity="0" stroke-width="0.0126561" vectornator:layerName="Curve 18"/>
<path d="M515.18 1214.66L625.393 1214.66C625.668 1214.66 625.84 1214.95 625.702 1215.19L570.596 1310.64L515.49 1406.09C515.352 1406.32 515.008 1406.32 514.871 1406.09L459.764 1310.64L404.658 1215.19C404.52 1214.95 404.692 1214.66 404.967 1214.66L420.258 1214.66L515.18 1214.66Z" fill="#04473a" fill-rule="nonzero" opacity="1" stroke="#007aff" stroke-linecap="butt" stroke-linejoin="round" stroke-opacity="0" stroke-width="0.0126561" vectornator:layerName="Star 25"/>
<path d="M616.956 1404.97L511.124 1405.05C510.86 1405.05 510.695 1404.77 510.827 1404.54L563.671 1312.85L616.514 1221.15C616.646 1220.92 616.976 1220.92 617.109 1221.15L670.096 1312.76L723.084 1404.37C723.216 1404.6 723.052 1404.89 722.788 1404.89L708.105 1404.9L616.956 1404.97Z" fill="#04473a" fill-rule="nonzero" opacity="1" stroke="#007aff" stroke-linecap="butt" stroke-linejoin="round" stroke-opacity="0" stroke-width="0.012153" vectornator:layerName="Star 24"/>
<path d="M513.051 1584.75L407.219 1584.83C406.955 1584.83 406.79 1584.54 406.922 1584.31L459.765 1492.62L512.609 1400.93C512.741 1400.7 513.071 1400.7 513.204 1400.92L566.191 1492.54L619.179 1584.15C619.311 1584.38 619.146 1584.66 618.882 1584.66L604.2 1584.67L513.051 1584.75Z" fill="#04473a" fill-rule="nonzero" opacity="1" stroke="#007aff" stroke-linecap="butt" stroke-linejoin="round" stroke-opacity="0" stroke-width="0.012153" vectornator:layerName="Star 17"/>
<path d="M509.519 847.758L403.687 847.841C403.423 847.842 403.258 847.556 403.389 847.327L456.233 755.633L509.077 663.938C509.209 663.709 509.539 663.709 509.672 663.938L562.659 755.549L615.647 847.16C615.779 847.389 615.614 847.675 615.35 847.675L600.668 847.687L509.519 847.758Z" fill="#04473a" fill-rule="nonzero" opacity="1" stroke="#007aff" stroke-linecap="butt" stroke-linejoin="round" stroke-opacity="0" stroke-width="0.012153" vectornator:layerName="Star 15"/>
<path d="M-443.339 2306.08L-443.339 2306.08" fill="#04473a" fill-rule="nonzero" opacity="1" stroke="#007aff" stroke-linecap="butt" stroke-linejoin="round" stroke-opacity="0" stroke-width="0.012153" vectornator:layerName="Curve 9"/>
<path d="M459.936 2047.95C459.936 2047.95 461.681 2052.2 462.628 2054.29C463.954 2057.22 470.121 2069.43 470.488 2070.2C470.832 2070.92 469.613 2068.86 469.298 2068.13C468.608 2066.53 468.14 2064.84 467.482 2063.23C465.907 2059.37 464.335 2055.51 462.599 2051.72C458.608 2043 454.145 2034.51 450.074 2025.83C449.478 2024.56 447.036 2018.54 446.818 2017.89C446.452 2016.8 445.127 2013.79 446.005 2014.53C451.679 2019.34 453.104 2027.61 456.528 2034.21C461.722 2044.22 469.459 2067.51 477.98 2074.85C478.925 2075.66 477.136 2072.5 476.697 2071.33C475.937 2069.31 475.271 2067.25 474.381 2065.28C473.254 2062.78 472.075 2060.3 470.655 2057.96C465.627 2049.69 458.726 2040.18 453.111 2032.23" fill="#04473a" fill-rule="nonzero" opacity="1" stroke="#007aff" stroke-linecap="butt" stroke-linejoin="round" stroke-opacity="0" stroke-width="0.012153" vectornator:layerName="Curve 20"/>
<path d="M470.246 2059.03C470.246 2059.03 472.338 2064.1 473.345 2066.66C475.896 2073.12 478.583 2079.53 480.92 2086.08C481.099 2086.58 480.1 2085.36 479.854 2084.88C478.807 2082.87 477.984 2080.75 477.068 2078.67C475.782 2075.76 474.599 2072.8 473.248 2069.92C467.89 2058.48 461.82 2047.37 455.397 2036.5C452.583 2031.73 449.731 2026.99 446.877 2022.25C445.886 2020.6 442.66 2015.85 443.933 2017.29C454.549 2029.3 461.996 2044.41 470.843 2057.71C473.068 2061.06 475.398 2064.33 477.735 2067.6C478.939 2069.28 480.161 2070.95 481.464 2072.56C481.795 2072.97 482.808 2074.12 482.624 2073.63C475.388 2054.39 455.905 2034.58 443.712 2018.89C442.148 2016.88 440.617 2014.84 439.044 2012.84C438.246 2011.82 437.376 2008.79 436.6 2009.82C435.815 2010.87 438.238 2011.86 438.949 2012.96C442.302 2018.12 445.51 2023.38 448.785 2028.59C454.497 2037.68 459.969 2046.86 465.355 2056.14C467.402 2059.67 469.525 2063.15 471.557 2066.69C472.221 2067.84 473.97 2071.44 473.405 2070.23C462.572 2047.08 449.644 2024.71 437.013 2002.48C434.93 1998.82 433.867 1993.68 430.027 1991.94C429.578 1991.73 430.284 1992.91 430.56 1993.32C431.713 1995.04 433.013 1996.65 434.288 1998.28C436.085 2000.57 437.997 2002.78 439.74 2005.12C440.036 2005.52 440.618 2006.84 440.586 2006.34C439.844 1994.83 425.576 1985.83 424.082 1975.31C423.978 1974.58 425.445 1975.95 425.931 1976.5C427.461 1978.23 429.923 1983.15 430.817 1984.88C432.826 1988.78 434.321 1992.66 435.544 1996.87C435.681 1997.34 435.194 1995.95 435.012 1995.49C434.38 1993.9 433.821 1992.27 433.102 1990.72C432.15 1988.66 431.031 1986.68 430.002 1984.66C426.439 1977.66 422.069 1970.43 419.104 1963.14C418.724 1962.2 420.235 1964.81 420.702 1965.71C421.416 1967.08 421.946 1968.54 422.643 1969.91C423.868 1972.33 425.196 1974.7 426.464 1977.1C432.232 1988.01 437.873 1999 443.563 2009.95C443.94 2010.68 442.812 2008.5 442.467 2007.76C441.736 2006.19 441.135 2004.56 440.338 2003.02C437.073 1996.73 433.624 1990.54 430.285 1984.29C428.818 1981.54 419.959 1969.34 420.764 1966.93C421.069 1966.02 422.129 1968.31 422.644 1969.13C423.869 1971.07 424.848 1973.15 425.964 1975.15C427.604 1978.1 429.299 1981.01 430.912 1983.97C435.965 1993.24 435.102 1991.64 439.303 2002.05C439.515 2002.57 440.16 2004.13 439.867 2003.65C435.873 1997.07 433.116 1989.82 429.753 1982.9C428.495 1980.32 427.235 1977.73 425.964 1975.15C425.033 1973.27 424.125 1971.37 423.145 1969.51C422.078 1967.48 421.322 1965.22 419.825 1963.48C419.361 1962.94 419.678 1964.91 419.792 1965.61C420 1966.89 422.153 1973.37 422.295 1973.77C423.489 1977.19 424.847 1980.56 425.988 1984C426.35 1985.09 427.695 1986.63 426.801 1987.36C426.711 1987.43 427.72 1989.25 423.2 1979.36C421.738 1976.15 418.014 1971.03 418.474 1967.37C418.538 1966.86 419.049 1968.24 419.225 1968.72C420.037 1970.94 420.913 1973.15 421.949 1975.28C424.395 1980.3 426.782 1985.35 429.245 1990.37C435.14 2002.38 441.284 2014.19 447.941 2025.8C461.082 2048.7 474.097 2071.8 487.499 2094.55C493.942 2105.49 502.918 2114.98 509.304 2125.84C509.622 2126.38 508.133 2125.24 507.8 2124.71C506.943 2123.34 506.507 2121.75 505.827 2120.29C503.011 2114.22 500.191 2108.15 497.311 2102.12C491.308 2089.54 484.681 2077.28 478.459 2064.81C478.186 2064.26 479.197 2065.79 479.462 2066.35C480.473 2068.46 481.21 2070.7 482.279 2072.78C485.91 2079.85 489.742 2086.82 493.554 2093.8C499.546 2104.78 513.268 2121.95 514.411 2133.4C514.562 2134.92 511.88 2131.63 510.963 2130.42C509.093 2127.95 507.736 2125.13 506.139 2122.48C502.996 2117.26 499.835 2112.04 496.742 2106.79C491.8 2098.4 484.879 2088.8 480.925 2079.8C480.671 2079.23 481.936 2080.57 482.335 2081.06C483.614 2082.62 484.747 2084.3 485.938 2085.92C489.022 2090.14 501.047 2105.21 498.783 2104.6" fill="#04473a" fill-rule="nonzero" opacity="1" stroke="#007aff" stroke-linecap="butt" stroke-linejoin="round" stroke-opacity="0" stroke-width="19.6269" vectornator:layerName="Curve 21"/>
<path d="M503.912 2141.55C503.912 2141.55 502.928 2144.28 503.575 2143.85C506.233 2142.1 508.303 2139.57 510.457 2137.23C511.107 2136.52 513.426 2130.89 514.414 2130.51C515.122 2130.23 512.887 2139.99 512.158 2142.06C511.623 2143.58 511.283 2148.01 510.502 2146.6C510.002 2145.7 512.916 2135.79 513.209 2134.07C513.489 2132.44 513.603 2127.44 513.409 2129.09C513.118 2131.57 513.453 2146.84 511.054 2141.06" fill="#04473a" fill-rule="nonzero" opacity="1" stroke="#007aff" stroke-linecap="butt" stroke-linejoin="round" stroke-opacity="0" stroke-width="19.6269" vectornator:layerName="Curve 22"/>
<path d="M584.245 1278.71C584.245 1278.71 579.348 1288.18 576.917 1292.92C576.116 1294.49 575.393 1296.09 574.55 1297.63C567.619 1310.3 560.566 1322.91 553.596 1335.56C552.408 1337.72 548.849 1339.94 550.09 1342.07C551.936 1345.23 555.646 1337.22 557.914 1334.34C560.482 1331.08 563.016 1327.79 565.358 1324.36C571.797 1314.95 578.266 1305.54 584.248 1295.83C591.968 1283.29 598.57 1269.1 604.269 1255.6C605.658 1252.31 609.941 1248.13 607.617 1245.41C606.631 1244.26 603.096 1248.63 602.898 1248.94C600.392 1252.86 598.045 1256.89 595.741 1260.94C587.256 1275.84 579.586 1291.29 571.424 1306.39C567.076 1314.43 562.948 1322.6 558.538 1330.61C558.483 1330.71 554.788 1336.25 555.21 1336.24C564.017 1336 566.37 1322.58 571.289 1315.27C586.758 1292.29 597.002 1264.5 608.09 1239.34C610.021 1234.96 615.802 1230.68 613.998 1226.24C613.678 1225.45 612.869 1227.52 612.399 1228.23C610.434 1231.19 608.538 1234.19 606.698 1237.23C605.816 1238.69 605.077 1240.22 604.238 1241.71C599.837 1249.49 595.558 1257.34 590.979 1265.01C583.202 1278.05 574.623 1290.61 567.178 1303.83C564.647 1308.33 562.327 1312.94 559.892 1317.49C558.484 1320.12 553.35 1324.03 555.933 1325.52C561.859 1328.94 566.482 1316.54 570.299 1310.86C581.277 1294.52 600.176 1260.06 604.733 1239.63C604.952 1238.65 603.591 1241.3 603.091 1242.17C600.932 1245.95 598.895 1249.79 596.759 1253.57C595.63 1255.57 594.427 1257.53 593.295 1259.52C586.536 1271.45 579.445 1283.19 572.742 1295.15C557.143 1322.99 543.386 1359.43 522.071 1383.67C521.218 1384.64 523.813 1381.76 524.632 1380.76C526.434 1378.56 528.218 1376.34 529.931 1374.06C535.861 1366.19 542.066 1358.5 547.559 1350.32C554.813 1339.51 560.915 1327.94 568.356 1317.26C568.906 1316.47 567.146 1318.76 566.62 1319.57C563.905 1323.74 561.355 1328.01 558.638 1332.18C556.686 1335.17 554.653 1338.11 552.615 1341.04C549.647 1345.31 546.591 1349.52 543.622 1353.79C539.501 1359.71 535.485 1365.71 531.344 1371.61C529.231 1374.63 520.693 1383.26 521.355 1387.17C521.81 1389.87 525.432 1383.45 526.934 1381.16C529.871 1376.69 535.935 1369.41 537.053 1363.95C537.26 1362.93 535.65 1365.48 535.088 1366.35C532.908 1369.72 530.96 1373.23 528.842 1376.64C524.071 1384.32 518.772 1391.59 512.397 1398.03" fill="#04473a" fill-rule="nonzero" opacity="1" stroke="#007aff" stroke-linecap="butt" stroke-linejoin="round" stroke-opacity="0" stroke-width="19.6269" vectornator:layerName="Curve 23"/>
<path d="M523.492 673.808C523.492 673.808 528.795 685.31 531.668 690.953C540.047 707.407 548.381 723.885 556.89 740.272C561.791 749.71 567.292 758.887 572.3 768.281C576.785 776.696 581.477 784.802 586.858 792.697C588.102 794.521 589.496 796.238 590.731 798.068C591.223 798.797 592.718 800.913 592.033 800.362C573.428 785.397 556.581 745.049 544.456 723.918C541.85 719.377 529.808 702.087 529.166 694.58C529.105 693.871 530.243 695.52 530.708 696.058C533.28 699.032 536.03 701.879 538.271 705.11C543.063 712.017 547.428 719.215 551.768 726.416C564.513 747.558 578.418 769.9 589.425 792.089C592.709 798.711 596.148 805.294 599.719 811.769C600.681 813.512 601.933 815.096 602.776 816.899C603.119 817.633 603.921 819.71 603.232 819.285C595.018 814.214 589.931 800.223 585.197 792.548C568.582 765.609 551.998 738.705 535.681 711.576C530.344 702.701 526.394 695.002 520.277 687.252C515.11 680.707 520.688 688.381 515.345 680.614C514.764 679.769 512.552 677.926 513.56 678.109C518.903 679.082 525.919 691.427 528.593 695.366C529.98 697.409 531.17 699.58 532.377 701.734C533.048 702.932 535.584 705.604 534.224 705.417C531.246 705.006 523.865 695.302 523.004 694.196C514.819 683.674 507.438 672.99 498.862 662.725C496.023 659.327 493.059 657.26 489.911 654.219C489.345 653.673 487.876 651.821 488.398 652.409C492.79 657.352 497.283 662.206 501.827 667.01C503.991 669.297 506.155 671.587 508.239 673.948C512.547 678.83 516.798 683.824 520.974 688.822C521.932 689.968 519.058 686.529 518.1 685.383C516.285 683.21 514.47 681.038 512.655 678.866C510.538 676.331 508.42 673.797 506.303 671.263C499.268 662.843 491.771 654.939 484.193 647.008" fill="#04473a" fill-rule="nonzero" opacity="1" stroke="#007aff" stroke-linecap="butt" stroke-linejoin="round" stroke-opacity="0" stroke-width="19.6269" vectornator:layerName="Curve 24"/>
<path d="M459.755 591.57C459.755 591.57 461.359 592.525 462.098 593.092C465.377 595.608 468.646 598.137 471.907 600.675C472.64 601.246 474.329 603.253 474.142 602.343C473.35 598.501 459.701 589.125 455.638 586.495" fill="#04473a" fill-rule="nonzero" opacity="1" stroke="#007aff" stroke-linecap="butt" stroke-linejoin="round" stroke-opacity="0" stroke-width="19.6269" vectornator:layerName="Curve 25"/>
<path d="M432.458 538.57C432.458 538.57 428.436 534.064 426.634 531.645C421.087 524.196 415.629 516.673 410.423 508.981C408.669 506.389 408.268 502.369 406.961 499.538C405.729 496.868 404.137 494.331 402.869 491.669C402.341 490.56 400.693 487.388 401.609 488.206C406.896 492.926 414.056 505.39 417.191 509.926C427.499 524.84 436.76 540.33 446.308 555.726C450.798 562.967 455.583 568.91 460.158 575.872C461.681 578.188 463.303 580.506 464.25 583.112C464.669 584.263 465.802 587.538 464.88 586.732C461.9 584.124 458.478 574.076 456.853 571.15C449.803 558.459 441.464 546.831 432.458 535.423C426.643 528.057 419.314 521.699 413.099 514.647C412.329 513.773 410.295 510.93 411.053 511.814C433.314 537.786 452.157 573.538 470.074 602.785C475.733 612.023 478.697 622.444 484.239 631.588C486.13 634.708 488.06 637.942 490.22 640.873C491.023 641.963 492.338 645.511 492.58 644.179C494.307 634.682 476.055 618.034 476.055 609.868C476.055 609.154 476.956 610.982 477.314 611.599C478.113 612.98 478.757 614.446 479.517 615.849C480.803 618.223 482.146 620.567 483.452 622.931C485.451 626.548 487.436 630.173 489.433 633.791C495.123 644.105 501.167 654.584 506.431 665.111C506.75 665.75 505.586 663.961 505.172 663.38C503.505 661.047 501.959 658.63 500.292 656.298C495.06 648.972 489.771 641.534 484.239 634.421" fill="#04473a" fill-rule="nonzero" opacity="1" stroke="#007aff" stroke-linecap="butt" stroke-linejoin="round" stroke-opacity="0" stroke-width="19.6269" vectornator:layerName="Curve 26"/>
<path d="M471.862 465.021C471.862 465.021 483.412 464.568 489.188 464.63C506.341 464.816 523.494 464.896 540.647 464.989C561.17 465.1 581.64 464.196 602.169 464.842C604.033 464.901 606.155 464.482 607.727 465.485C608.817 466.18 605.158 465.76 603.878 465.932C601.848 466.205 599.827 466.542 597.798 466.821C594.767 467.239 591.747 467.764 588.699 468.025C582.784 468.531 568.858 468.785 563.454 469.004C530.584 470.336 498.326 470.821 465.523 467.487C455.07 466.424 444.436 464.353 433.88 464.718C432.674 464.76 429.848 464.086 430.293 465.208C431.072 467.172 466.791 468.915 471.258 468.698C504.514 467.09 537.744 465.804 570.969 464.304C575.835 464.084 589.797 464.602 595.65 465.12C598.214 465.347 600.747 465.861 603.309 466.108C604.733 466.246 608.939 465.774 607.598 466.273C596.566 470.38 579.533 469.52 568.138 470.043C536.98 471.472 505.857 471.529 474.676 470.878C464.307 470.662 449.792 469.978 439.011 469.607C435.701 469.493 432.389 469.411 429.078 469.324C427.824 469.291 424.121 468.859 425.315 469.246C449.843 477.188 477.645 474.849 502.955 476.062C536.305 477.66 570.003 479.359 603.019 472.804C603.894 472.63 601.241 472.61 600.349 472.635C598.435 472.689 596.529 472.915 594.618 473.042C591.075 473.278 587.538 473.74 583.987 473.724C568.592 473.656 553.212 472.725 537.821 472.347C511.142 471.69 484.384 470.783 457.698 470.787C445.519 470.789 430.9 470.369 419.246 474.992" fill="#04473a" fill-rule="nonzero" opacity="1" stroke="#007aff" stroke-linecap="butt" stroke-linejoin="round" stroke-opacity="0" stroke-width="19.6269" vectornator:layerName="Curve 27"/>
<path d="M449.5 485.34C449.5 485.34 446.198 483.951 444.451 483.62C435.929 482.006 427.345 480.731 418.757 479.518C414.751 478.953 408.761 481.911 406.667 478.449C405.61 476.701 410.427 476.558 412.468 476.471C417.617 476.253 422.775 476.184 427.927 476.304C433.602 476.436 439.093 478.058 444.68 478.817C445.576 478.939 442.903 478.469 442.03 478.233C438.864 477.376 435.741 476.363 432.566 475.539C430.458 474.992 408.783 471.293 412.202 470.729" fill="#04473a" fill-rule="nonzero" opacity="1" stroke="#007aff" stroke-linecap="butt" stroke-linejoin="round" stroke-opacity="0" stroke-width="19.6269" vectornator:layerName="Curve 28"/>
<path d="M433.085 478.687L433.085 478.687" fill="#04473a" fill-rule="nonzero" opacity="1" stroke="#007aff" stroke-linecap="butt" stroke-linejoin="round" stroke-opacity="0" stroke-width="19.6269" vectornator:layerName="Curve 29"/>
<path d="M576.788 404.294L576.788 404.294C581.301 412.576 585.818 420.854 590.327 429.138C597.804 442.877 607.299 461.014 614.911 471.409C617.212 474.55 613.33 463.723 611.75 460.165C609.263 454.564 605.889 449.397 602.789 444.11C598.409 436.639 593.865 429.265 589.313 421.897C571.495 393.053 551.073 365.868 530.598 338.845C524.445 330.724 518.682 322.311 512.95 313.888C512.292 312.92 510.625 309.885 511.454 310.712C533.24 332.446 550.286 360.152 566.613 385.846C574.426 398.143 581.754 410.743 589.551 423.05C591.288 425.792 594.257 433.912 595.369 430.861C599.44 419.686 587.316 408.327 581.274 398.082C560.195 362.338 532.379 328.594 503.075 299.223C502.248 298.395 503.856 301.473 504.571 302.399C509.397 308.65 514.553 314.638 519.639 320.679C533.911 337.629 544.2 354.894 555.277 374.006C560.193 382.488 565.485 390.746 570.663 399.07C570.799 399.288 575.48 406.097 575.46 406.01C568.267 374.784 544.127 345.374 526.51 319.621C523.038 314.545 519.462 309.541 515.94 304.499C515.084 303.275 513.796 299.388 513.378 300.822C511.946 305.741 522.072 318.582 524.355 321.989C528.318 327.902 532.612 333.591 536.51 339.547C554.993 367.791 569.685 402.345 591.154 428.487C592.722 430.396 588.72 419.979 587.147 414.894" fill="#04473a" fill-rule="nonzero" opacity="1" stroke="#007aff" stroke-linecap="butt" stroke-linejoin="round" stroke-opacity="0" stroke-width="19.6269" vectornator:layerName="Curve 30"/>
<path d="M309.064 2691.88L203.232 2691.82C202.968 2691.82 202.803 2691.53 202.935 2691.3L255.904 2599.68L308.872 2508.06C309.005 2507.83 309.335 2507.83 309.467 2508.06L362.33 2599.74L415.193 2691.43C415.325 2691.65 415.16 2691.94 414.896 2691.94L400.213 2691.93L309.064 2691.88Z" fill="#00604b" fill-rule="nonzero" opacity="1" stroke="#007aff" stroke-linecap="butt" stroke-linejoin="round" stroke-opacity="0" stroke-width="0.012153" vectornator:layerName="Star 25"/>
<path d="M309.566 2691.5L203.734 2691.44C203.47 2691.44 203.305 2691.15 203.437 2690.92L256.406 2599.3L309.374 2507.68C309.506 2507.45 309.837 2507.45 309.969 2507.68L362.832 2599.36L415.695 2691.05C415.827 2691.27 415.662 2691.56 415.397 2691.56L400.715 2691.55L309.566 2691.5Z" fill="#00604b" fill-rule="nonzero" opacity="1" stroke="#007aff" stroke-linecap="butt" stroke-linejoin="round" stroke-opacity="0" stroke-width="0.012153" vectornator:layerName="Star 24"/>
<path d="M310.246 2322.93L204.414 2322.87C204.15 2322.87 203.985 2322.59 204.117 2322.36L257.086 2230.73L310.054 2139.11C310.187 2138.88 310.517 2138.88 310.649 2139.11L363.512 2230.8L416.375 2322.48C416.507 2322.71 416.342 2322.99 416.078 2322.99L401.395 2322.98L310.246 2322.93Z" fill="#00604b" fill-rule="nonzero" opacity="1" stroke="#007aff" stroke-linecap="butt" stroke-linejoin="round" stroke-opacity="0" stroke-width="0.012153" vectornator:layerName="Star 26"/>
<path d="M415.741 2507.48L309.909 2507.42C309.645 2507.42 309.48 2507.14 309.612 2506.91L362.581 2415.28L415.549 2323.66C415.682 2323.43 416.012 2323.43 416.144 2323.66L469.007 2415.35L521.87 2507.03C522.002 2507.26 521.837 2507.54 521.573 2507.54L506.89 2507.53L415.741 2507.48Z" fill="#00604b" fill-rule="nonzero" opacity="1" stroke="#007aff" stroke-linecap="butt" stroke-linejoin="round" stroke-opacity="0" stroke-width="0.012153" vectornator:layerName="Star 11"/>
<path d="M517.387 1952.39L411.582 1954.77C411.318 1954.78 411.146 1954.49 411.273 1954.26L462.116 1861.44L512.959 1768.62C513.086 1768.39 513.416 1768.38 513.553 1768.61L568.515 1859.05L623.477 1949.49C623.614 1949.72 623.456 1950.01 623.192 1950.01L608.513 1950.34L517.387 1952.39Z" fill="#00604b" fill-rule="nonzero" opacity="1" stroke="#007aff" stroke-linecap="butt" stroke-linejoin="round" stroke-opacity="0" stroke-width="0.012153" vectornator:layerName="Star 6"/>
<path d="M194.526 1032.01L88.694 1032.09C88.4298 1032.09 88.2645 1031.8 88.3964 1031.57L141.24 939.879L194.084 848.185C194.216 847.956 194.546 847.956 194.678 848.184L247.666 939.796L300.654 1031.41C300.786 1031.64 300.621 1031.92 300.357 1031.92L285.675 1031.93L194.526 1032.01Z" fill="#00604b" fill-rule="nonzero" opacity="1" stroke="#007aff" stroke-linecap="butt" stroke-linejoin="round" stroke-opacity="0" stroke-width="0.012153" vectornator:layerName="Star 15"/>
<path d="M617.722 293.397L511.89 293.48C511.626 293.48 511.461 293.194 511.593 292.965L564.437 201.271L617.281 109.576C617.412 109.348 617.743 109.347 617.875 109.576L670.863 201.187L723.85 292.799C723.983 293.027 723.818 293.313 723.554 293.314L708.871 293.325L617.722 293.397Z" fill="#00604b" fill-rule="nonzero" opacity="1" stroke="#007aff" stroke-linecap="butt" stroke-linejoin="round" stroke-opacity="0" stroke-width="0.012153" vectornator:layerName="Star 20"/>
<path d="M406.625 1032.01L300.793 1032.09C300.529 1032.09 300.363 1031.8 300.495 1031.57L353.339 939.88L406.183 848.186C406.315 847.957 406.645 847.957 406.777 848.185L459.765 939.797L512.753 1031.41C512.885 1031.64 512.72 1031.92 512.456 1031.92L497.774 1031.93L406.625 1032.01Z" fill="#00604b" fill-rule="nonzero" opacity="1" stroke="#007aff" stroke-linecap="butt" stroke-linejoin="round" stroke-opacity="0" stroke-width="0.012153" vectornator:layerName="Star 14"/>
<path d="M511.296 1215.16L405.464 1215.25C405.2 1215.25 405.035 1214.96 405.167 1214.73L458.01 1123.04L510.854 1031.34C510.986 1031.12 511.316 1031.11 511.449 1031.34L564.436 1122.95L617.424 1214.57C617.556 1214.79 617.391 1215.08 617.127 1215.08L602.445 1215.09L511.296 1215.16Z" fill="#00604b" fill-rule="nonzero" opacity="1" stroke="#007aff" stroke-linecap="butt" stroke-linejoin="round" stroke-opacity="0" stroke-width="0.012153" vectornator:layerName="Star 23"/>
<path d="M405.872 1400.67L300.041 1400.75C299.777 1400.75 299.611 1400.47 299.743 1400.24L352.587 1308.54L405.431 1216.85C405.563 1216.62 405.893 1216.62 406.025 1216.85L459.013 1308.46L512.001 1400.07C512.133 1400.3 511.968 1400.59 511.704 1400.59L497.022 1400.6L405.872 1400.67Z" fill="#00604b" fill-rule="nonzero" opacity="1" stroke="#007aff" stroke-linecap="butt" stroke-linejoin="round" stroke-opacity="0" stroke-width="0.012153" vectornator:layerName="Star 9"/>
<path d="M609.315-62.8428L715.146-62.8679C715.411-62.8679 715.576-62.582 715.444-62.3533L662.55 29.3122L609.655 120.978C609.523 121.206 609.193 121.206 609.061 120.978L556.124 29.3374L503.186-62.303C503.054-62.5317 503.219-62.8177 503.483-62.8177L518.165-62.8212L609.315-62.8428Z" fill="#00604b" fill-rule="nonzero" opacity="1" stroke="#007aff" stroke-linecap="butt" stroke-linejoin="round" stroke-opacity="0" stroke-width="0.012153" vectornator:layerName="Star 21"/>
<path d="M405.371 293.505L511.203 293.48C511.467 293.48 511.632 293.766 511.5 293.995L458.606 385.66L405.712 477.326C405.58 477.555 405.25 477.555 405.117 477.326L352.18 385.686L299.242 294.045C299.11 293.816 299.275 293.531 299.539 293.53L314.222 293.527L405.371 293.505Z" fill="#00604b" fill-rule="nonzero" opacity="1" stroke="#007aff" stroke-linecap="butt" stroke-linejoin="round" stroke-opacity="0" stroke-width="0.012153" vectornator:layerName="Star 18"/>
<path d="M299.196 479.088L405.028 479.063C405.292 479.063 405.457 479.349 405.325 479.578L352.431 571.243L299.537 662.909C299.405 663.137 299.075 663.137 298.943 662.909L246.005 571.268L193.067 479.628C192.935 479.399 193.1 479.113 193.364 479.113L208.047 479.11L299.196 479.088Z" fill="#00604b" fill-rule="nonzero" opacity="1" stroke="#007aff" stroke-linecap="butt" stroke-linejoin="round" stroke-opacity="0" stroke-width="0.012153" vectornator:layerName="Star 17"/>
<path d="M404.104 663.954L509.935 663.928C510.199 663.928 510.365 664.214 510.233 664.443L457.339 756.108L404.444 847.774C404.312 848.003 403.982 848.003 403.85 847.774L350.913 756.134L297.975 664.493C297.843 664.265 298.008 663.979 298.272 663.979L312.954 663.975L404.104 663.954Z" fill="#00604b" fill-rule="nonzero" opacity="1" stroke="#007aff" stroke-linecap="butt" stroke-linejoin="round" stroke-opacity="0" stroke-width="0.012153" vectornator:layerName="Star 16"/>
<path d="M405.877 1215.09C406.009 1215.32 406.34 1215.32 406.471 1215.09L459.346 1123.4L512.252 1031.75C512.384 1031.52 512.204 1031.25 511.94 1031.25L406.127 1031.25L314.971 1031.28L300.284 1031.28C300.02 1031.28 299.87 1031.58 300.002 1031.81L352.94 1123.43L405.877 1215.09Z" fill="#00604b" fill-rule="nonzero" opacity="1" stroke="#007aff" stroke-linecap="butt" stroke-linejoin="round" stroke-opacity="0" stroke-width="0.012153" vectornator:layerName="Curve 68"/>
<path d="M299.94 1399.5C300.072 1399.72 300.402 1399.72 300.534 1399.5L353.44 1307.84L406.315 1216.15C406.447 1215.92 406.298 1215.65 406.034 1215.65L300.19 1215.68L298.065 1215.68C294.771 1215.78 291.637 1215.91 288.096 1215.96C274.73 1216.17 259.211 1216.1 238.721 1215.87C236.935 1215.85 234.298 1215.74 232.409 1215.68L209.065 1215.68L194.377 1215.71C194.113 1215.72 193.933 1215.99 194.065 1216.21L247.002 1307.84L299.94 1399.5Z" fill="#00604b" fill-rule="nonzero" opacity="1" stroke="#007aff" stroke-linecap="butt" stroke-linejoin="round" stroke-opacity="0" stroke-width="0.012153" vectornator:layerName="Curve 62"/>
<path d="M406.876 1400.09L512.707 1400.07C512.972 1400.07 513.137 1400.35 513.005 1400.58L460.111 1492.25L407.216 1583.91C407.084 1584.14 406.754 1584.14 406.622 1583.91L353.685 1492.27L300.747 1400.63C300.615 1400.4 300.78 1400.12 301.044 1400.12L315.727 1400.11L406.876 1400.09Z" fill="#00604b" fill-rule="nonzero" opacity="1" stroke="#007aff" stroke-linecap="butt" stroke-linejoin="round" stroke-opacity="0" stroke-width="0.012153" vectornator:layerName="Star 8"/>
<path d="M513.051 1584.45L618.883 1584.43C619.147 1584.43 619.312 1584.71 619.18 1584.94L566.286 1676.61L513.392 1768.27C513.26 1768.5 512.93 1768.5 512.797 1768.27L459.86 1676.63L406.922 1584.99C406.79 1584.76 406.955 1584.48 407.219 1584.48L421.902 1584.48L513.051 1584.45Z" fill="#00604b" fill-rule="nonzero" opacity="1" stroke="#007aff" stroke-linecap="butt" stroke-linejoin="round" stroke-opacity="0" stroke-width="0.012153" vectornator:layerName="Star 7"/>
<path d="M309.816 1954.79L415.648 1954.77C415.912 1954.77 416.077 1955.06 415.945 1955.28L363.051 2046.95L310.157 2138.62C310.025 2138.84 309.695 2138.84 309.562 2138.62L256.625 2046.97L203.687 1955.33C203.555 1955.11 203.72 1954.82 203.984 1954.82L218.667 1954.82L309.816 1954.79Z" fill="#00604b" fill-rule="nonzero" opacity="1" stroke="#007aff" stroke-linecap="butt" stroke-linejoin="round" stroke-opacity="0" stroke-width="0.012153" vectornator:layerName="Star 5"/>
<path d="M415.991 2138.81L521.823 2138.79C522.087 2138.79 522.252 2139.07 522.12 2139.3L469.226 2230.97L416.332 2322.63C416.2 2322.86 415.87 2322.86 415.738 2322.63L362.8 2230.99L309.863 2139.35C309.731 2139.12 309.896 2138.84 310.16 2138.84L324.842 2138.83L415.991 2138.81Z" fill="#00604b" fill-rule="nonzero" opacity="1" stroke="#007aff" stroke-linecap="butt" stroke-linejoin="round" stroke-opacity="0" stroke-width="0.012153" vectornator:layerName="Star 4"/>
<path d="M521.916 2323.17L627.748 2323.15C628.012 2323.15 628.177 2323.43 628.045 2323.66L575.151 2415.33L522.257 2506.99C522.125 2507.22 521.795 2507.22 521.663 2506.99L468.725 2415.35L415.787 2323.71C415.655 2323.48 415.82 2323.2 416.084 2323.2L430.767 2323.19L521.916 2323.17Z" fill="#00604b" fill-rule="nonzero" opacity="1" stroke="#007aff" stroke-linecap="butt" stroke-linejoin="round" stroke-opacity="0" stroke-width="0.012153" vectornator:layerName="Star 3"/>
<path d="M415.49 2507.19L521.322 2507.16C521.586 2507.16 521.751 2507.45 521.619 2507.68L468.725 2599.34L415.831 2691.01C415.699 2691.24 415.369 2691.24 415.236 2691.01L362.299 2599.37L309.361 2507.73C309.229 2507.5 309.394 2507.21 309.658 2507.21L324.341 2507.21L415.49 2507.19Z" fill="#00604b" fill-rule="nonzero" opacity="1" stroke="#007aff" stroke-linecap="butt" stroke-linejoin="round" stroke-opacity="0" stroke-width="0.012153" vectornator:layerName="Star 2"/>
<path d="M631.95 2878.53L737.782 2878.51C738.046 2878.51 738.211 2878.79 738.079 2879.02L685.185 2970.69L632.291 3062.35C632.159 3062.58 631.829 3062.58 631.697 3062.35L578.759 2970.71L525.822 2879.07C525.69 2878.84 525.855 2878.56 526.119 2878.56L540.801 2878.55L631.95 2878.53Z" fill="#00604b" fill-rule="nonzero" opacity="1" stroke="#007aff" stroke-linecap="butt" stroke-linejoin="round" stroke-opacity="0" stroke-width="0.012153" vectornator:layerName="Star 22"/>
<path d="M525.775 2694.52L631.607 2694.49C631.871 2694.49 632.036 2694.78 631.904 2695.01L579.01 2786.67L526.116 2878.34C525.984 2878.56 525.654 2878.57 525.522 2878.34L472.584 2786.7L419.646 2695.06C419.514 2694.83 419.679 2694.54 419.944 2694.54L434.626 2694.54L525.775 2694.52Z" fill="#00604b" fill-rule="nonzero" opacity="1" stroke="#007aff" stroke-linecap="butt" stroke-linejoin="round" stroke-opacity="0" stroke-width="0.012153" vectornator:layerName="Star 1"/>
<path d="M399.268 2700.92L399.268 2700.92" fill="#00604b" fill-rule="nonzero" opacity="1" stroke="#007aff" stroke-linecap="butt" stroke-linejoin="round" stroke-opacity="0" stroke-width="0.012153" vectornator:layerName="Curve 1"/>
<path d="M363.825 2610.89C363.825 2610.89 366.331 2615.12 367.577 2617.23C370.47 2622.15 373.38 2627.05 376.243 2631.98C377.173 2633.58 378.381 2638.69 378.831 2636.89C379.38 2634.7 375.028 2627.01 374.562 2626.03C369.08 2614.43 363.154 2603.2 356.064 2592.53C353.577 2588.78 351.188 2584.97 348.82 2581.14C348.147 2580.05 347.38 2579.02 346.751 2577.91C346.428 2577.34 345.61 2575.55 345.975 2576.1C354.908 2589.5 364.398 2602.74 372.88 2616.46C377.287 2623.58 380.864 2632.97 385.945 2639.74C386.347 2640.28 385.717 2638.4 385.428 2637.8C384.202 2635.24 382.816 2632.76 381.418 2630.3C378.978 2625.99 376.453 2621.74 373.915 2617.49C365.963 2604.19 357.144 2591.65 348.303 2578.94" fill="#00604b" fill-rule="nonzero" opacity="1" stroke="#007aff" stroke-linecap="butt" stroke-linejoin="round" stroke-opacity="0" stroke-width="0.012153" vectornator:layerName="Curve 2"/>
<path d="M330.323 2596.54L330.323 2596.54" fill="#00604b" fill-rule="nonzero" opacity="1" stroke="#007aff" stroke-linecap="butt" stroke-linejoin="round" stroke-opacity="0" stroke-width="45.0107" vectornator:layerName="Curve 3"/>
<path d="M373.656 2616.84C373.656 2616.84 380.577 2627.92 384.134 2633.4C384.486 2633.94 385.579 2635.54 385.298 2634.95C378.275 2620.37 367.224 2606.79 357.875 2593.56C353.551 2587.44 349.502 2581.37 345.328 2575.19C344.29 2573.66 343.169 2572.18 342.094 2570.66C341.789 2570.24 341.106 2568.85 341.188 2569.37C342.194 2575.74 347.656 2580.33 351.019 2585.54C357.3 2595.27 363.57 2605 369.776 2614.77C372.67 2619.33 373.886 2621.88 376.502 2626.42C377.43 2628.02 378.388 2629.61 379.348 2631.2C379.639 2631.68 380.384 2633.17 380.253 2632.63C377.2 2619.8 357.905 2597.57 349.855 2586.96C345.802 2581.62 342.059 2576.06 338.084 2570.66C336.15 2568.04 337.455 2570.85 338.084 2573.64" fill="#00604b" fill-rule="nonzero" opacity="1" stroke="#007aff" stroke-linecap="butt" stroke-linejoin="round" stroke-opacity="0" stroke-width="45.0107" vectornator:layerName="Curve 4"/>
<path d="M393.577 2663.28C393.577 2663.28 396.71 2671.61 400.433 2672.47C401.166 2672.64 400.233 2670.95 399.915 2670.27C398.5 2667.22 396.823 2664.31 395.259 2661.34C392.858 2656.79 390.412 2652.25 388.144 2647.63C387.381 2646.08 384.731 2642.72 386.462 2642.72C391.299 2642.72 391.442 2651.01 393.965 2655.13C396.326 2658.99 398.713 2662.84 400.95 2666.77" fill="#00604b" fill-rule="nonzero" opacity="1" stroke="#007aff" stroke-linecap="butt" stroke-linejoin="round" stroke-opacity="0" stroke-width="45.0107" vectornator:layerName="Curve 5"/>
<path d="M404.184 2673.24C404.184 2673.24 403.063 2671.26 402.502 2670.27" fill="#00604b" fill-rule="nonzero" opacity="1" stroke="#007aff" stroke-linecap="butt" stroke-linejoin="round" stroke-opacity="0" stroke-width="45.0107" vectornator:layerName="Curve 6"/>
<path d="M412.993 2686.54L412.993 2686.54" fill="#00604b" fill-rule="nonzero" opacity="1" stroke="#007aff" stroke-linecap="butt" stroke-linejoin="round" stroke-opacity="0" stroke-width="15.8168" vectornator:layerName="Curve 7"/>
<path d="M412.681 2683.41L412.681 2683.41" fill="#00604b" fill-rule="nonzero" opacity="1" stroke="#007aff" stroke-linecap="butt" stroke-linejoin="round" stroke-opacity="0" stroke-width="15.8168" vectornator:layerName="Curve 8"/>
<path d="M411.764 2683.76C411.764 2683.76 412.79 2686.24 413.398 2687.44" fill="#00604b" fill-rule="nonzero" opacity="1" stroke="#007aff" stroke-linecap="butt" stroke-linejoin="round" stroke-opacity="0" stroke-width="15.8168" vectornator:layerName="Curve 9"/>
<path d="M414.477 2690.06L414.477 2690.06" fill="#00604b" fill-rule="nonzero" opacity="1" stroke="#007aff" stroke-linecap="butt" stroke-linejoin="round" stroke-opacity="0" stroke-width="15.8168" vectornator:layerName="Curve 10"/>
<path d="M414.545 2689.07L414.545 2689.07" fill="#00604b" fill-rule="nonzero" opacity="1" stroke="#007aff" stroke-linecap="butt" stroke-linejoin="round" stroke-opacity="0" stroke-width="15.8168" vectornator:layerName="Curve 11"/>
<path d="M414.455 2689.94L414.455 2689.94" fill="#00604b" fill-rule="nonzero" opacity="1" stroke="#007aff" stroke-linecap="butt" stroke-linejoin="round" stroke-opacity="0" stroke-width="15.8168" vectornator:layerName="Curve 12"/>
<path d="M412.499 2687.54C412.499 2687.54 412.82 2688.75 413.171 2689.26" fill="#00604b" fill-rule="nonzero" opacity="1" stroke="#007aff" stroke-linecap="butt" stroke-linejoin="round" stroke-opacity="0" stroke-width="15.8168" vectornator:layerName="Curve 13"/>
<path d="M340.772 2563.26C340.772 2563.26 338.977 2558.99 337.97 2556.91C336.131 2553.11 332.551 2550 330.074 2546.5C322.486 2535.76 317.482 2523.3 311.439 2511.71" fill="#00604b" fill-rule="nonzero" opacity="1" stroke="#007aff" stroke-linecap="butt" stroke-linejoin="round" stroke-opacity="0" stroke-width="15.8168" vectornator:layerName="Curve 14"/>
<path d="M311.101 2511.41L311.101 2511.41" fill="#00604b" fill-rule="nonzero" opacity="1" stroke="#007aff" stroke-linecap="butt" stroke-linejoin="round" stroke-opacity="0" stroke-width="15.8168" vectornator:layerName="Curve 15"/>
<path d="M356.049 2505.72C356.049 2505.72 353.298 2506.2 351.909 2506.35C346.141 2506.95 340.362 2507.44 334.584 2507.94C332.477 2508.12 330.37 2508.54 328.254 2508.65C327.673 2508.67 325.959 2508.41 326.51 2508.6C330.187 2509.84 336.82 2508.72 340.827 2508.7C355.525 2508.59 370.205 2507.09 384.922 2506.81C391.729 2506.68 398.6 2506.31 405.405 2506.69C406.937 2506.77 408.462 2506.97 409.986 2507.15C410.76 2507.25 413.066 2507.65 412.296 2507.53C396.362 2504.94 379.212 2506.45 363.101 2506.88C359.124 2506.99 354.566 2505.24 351.175 2507.32C349.381 2508.42 355.357 2508.07 357.459 2507.95C362.313 2507.68 367.158 2507.22 371.984 2506.63C377.47 2505.96 382.899 2504.89 388.38 2504.18C405.525 2501.98 422.802 2500.36 440.071 2499.44C443.379 2499.27 446.695 2499.3 450.008 2499.28C451.942 2499.27 453.876 2499.28 455.808 2499.35C456.244 2499.36 457.541 2499.53 457.105 2499.51C441.152 2498.76 425.155 2501.01 409.393 2503.3C404.429 2504.02 399.5 2505 394.618 2506.16C392.804 2506.58 387.667 2506.98 389.298 2507.88C396.409 2511.82 407.184 2508.82 414.605 2508.31C426.041 2507.51 437.34 2507.01 448.801 2506.86C452.762 2506.81 456.724 2506.88 460.685 2506.95C462.769 2506.99 469.012 2507.39 466.929 2507.3C457.574 2506.87 449.078 2506.97 439.756 2507.19C434.348 2507.32 428.931 2507.21 423.531 2507.53C419.253 2507.78 415.008 2508.43 410.749 2508.9C408.164 2509.18 405.538 2509.24 402.999 2509.8C401.771 2510.07 405.47 2510.35 406.728 2510.38C409.594 2510.46 412.459 2510.59 415.326 2510.58C419.059 2510.56 422.789 2510.39 426.521 2510.3C441.569 2509.92 456.499 2510.22 471.542 2510.08C474.154 2510.05 476.968 2510.77 479.371 2509.74C480.518 2509.25 477.209 2508.33 475.97 2508.19C473.296 2507.88 470.587 2508.31 467.898 2508.44C456.986 2508.96 446.093 2509.84 435.199 2510.66C433.473 2510.79 428.292 2511.04 430.007 2510.8C444.879 2508.74 460.396 2508.82 475.361 2508.39C478.903 2508.29 482.45 2508.37 485.988 2508.19C486.504 2508.16 487.832 2508.45 487.53 2508.03C486.115 2506.07 479.622 2508.08 477.877 2508.16C468.375 2508.57 459.082 2510.16 449.714 2511.77" fill="#00604b" fill-rule="nonzero" opacity="1" stroke="#007aff" stroke-linecap="butt" stroke-linejoin="round" stroke-opacity="0" stroke-width="15.8168" vectornator:layerName="Curve 16"/>
<path d="M566.53 2414.99L566.53 2414.99" fill="#00604b" fill-rule="nonzero" opacity="1" stroke="#007aff" stroke-linecap="butt" stroke-linejoin="round" stroke-opacity="0" stroke-width="15.8168" vectornator:layerName="Curve 17"/>
<path d="M496.977 2489.79C496.977 2489.79 499.631 2482.8 501.013 2484.52C501.526 2485.17 494.4 2508.52 493.781 2510.58C492.407 2515.17 491.058 2519.76 489.774 2524.38C489.682 2524.71 489.255 2525.64 489.449 2525.35C495.027 2517.17 496.423 2506.88 500.26 2497.83C502.368 2492.86 503.495 2490.29 505.762 2486.38C506.549 2485.02 508.913 2480.97 508.236 2482.38C502.614 2494.12 497.565 2506.16 492.119 2518C491.313 2519.75 488.311 2528.82 486.259 2528.9C485.419 2528.93 486.842 2527.32 487.106 2526.52C488.438 2522.48 489.725 2518.43 491.047 2514.39C493.472 2506.97 496.107 2499.63 498.7 2492.27C499.316 2490.52 501.654 2485.71 500.264 2486.93C490.209 2495.8 486.107 2513.61 482.518 2526.29C482.064 2527.9 481.183 2529.51 481.378 2531.17C481.444 2531.74 482.67 2531.38 483.07 2530.98C484.493 2529.55 485.442 2527.71 486.52 2526C487.397 2524.61 488.211 2523.18 488.929 2521.71C494.17 2510.95 499.888 2500.41 506.119 2490.19C506.926 2488.86 508.616 2485.42 509.308 2486.81C510.067 2488.32 508.318 2490.05 507.745 2491.65C506.586 2494.88 505.384 2498.09 504.293 2501.35C501.736 2508.97 499.261 2516.62 496.802 2524.28C496.503 2525.21 495.468 2526.3 496.02 2527.11C496.445 2527.73 497.353 2526.28 497.712 2525.62C499.723 2521.91 501.305 2518 503.052 2514.16C505.418 2508.97 507.616 2503.71 510.053 2498.55C511.541 2495.4 513.359 2492.41 515.066 2489.38C515.364 2488.85 516.684 2488.07 516.108 2487.88C515.521 2487.69 515.255 2488.8 514.968 2489.34C512.711 2493.65 510.604 2498.04 508.49 2502.42C505.897 2507.79 503.422 2513.22 501.098 2518.72C500.441 2520.27 498.899 2521.65 499.015 2523.34C499.031 2523.58 499.499 2523.15 499.633 2522.95C501.097 2520.71 502.52 2518.45 503.767 2516.08C505.129 2513.51 506.115 2510.74 507.446 2508.15C511.165 2500.9 515.17 2494.09 519.329 2487.17C519.463 2486.94 518.946 2487.53 518.808 2487.75C517.425 2489.97 515.976 2492.16 514.771 2494.49C510.285 2503.14 505.995 2512.61 501.781 2521.39C501.52 2521.93 500.465 2522.98 501.064 2523.05C501.82 2523.12 502.328 2522.13 502.724 2521.48C505.133 2517.54 507.193 2513.39 509.431 2509.35C513.447 2502.1 519.255 2494.95 522.55 2487.43C522.731 2487.01 521.786 2487.96 521.541 2488.34C519.867 2490.93 518.299 2493.6 516.821 2496.31C512.76 2503.75 509.098 2511.36 504.938 2518.75C504.75 2519.09 504.213 2519.42 504.384 2519.76C504.532 2520.06 504.925 2519.36 505.1 2519.08C506.32 2517.14 507.449 2515.14 508.551 2513.13C510.271 2509.99 511.846 2506.77 513.565 2503.63C515.731 2499.67 518.559 2496.05 520.303 2491.88C520.561 2491.27 519.273 2492.76 518.904 2493.32C517.995 2494.68 517.264 2496.16 516.495 2497.61C515.56 2499.37 514.676 2501.16 513.793 2502.94C510.859 2508.88 506.903 2514.99 504.319 2521.1C504.175 2521.43 505.031 2520.79 505.23 2520.48C507.262 2517.32 508.959 2513.96 510.959 2510.78C514.149 2505.72 517.474 2500.74 520.888 2495.82C521.791 2494.52 522.73 2493.24 523.687 2491.98C523.956 2491.63 524.984 2490.82 524.566 2490.97C520.685 2492.4 496.441 2538.89 512.358 2511.14C513.406 2509.32 514.508 2507.52 515.581 2505.71C517.861 2501.86 520.04 2497.95 522.417 2494.16C523.288 2492.78 524.649 2491.69 525.314 2490.19C525.572 2489.61 524.114 2490.74 523.72 2491.23C522.309 2493.01 521.205 2495.02 519.976 2496.93C518.427 2499.33 516.868 2501.73 515.386 2504.18C513.921 2506.6 506.872 2517.84 506.955 2519.05C506.98 2519.41 507.686 2518.79 507.898 2518.49C509.844 2515.77 511.577 2512.9 513.367 2510.07C516.467 2505.17 521.113 2498.85 523.849 2493.45C524.072 2493.01 522.959 2493.95 522.677 2494.36C521.37 2496.25 520.313 2498.31 519.129 2500.28C515.439 2506.43 510.826 2512.36 507.28 2518.56C506.728 2519.52 508.968 2517.06 509.558 2516.12C510.601 2514.45 511.514 2512.71 512.553 2511.04C516.221 2505.16 522.478 2499.34 524.63 2492.89C524.823 2492.32 523.477 2493.42 523.101 2493.9C522.191 2495.06 521.619 2496.45 520.854 2497.71C518.144 2502.17 515.481 2506.66 512.749 2511.11C511.582 2513.01 510.362 2514.88 509.135 2516.74C508.897 2517.1 508.053 2518.09 508.354 2517.78C510.193 2515.87 522.617 2497.66 522.611 2497.64C522.148 2496.25 520.588 2499.8 519.845 2501.06C518.985 2502.52 518.196 2504.02 517.338 2505.48C514.884 2509.67 512.087 2513.64 509.46 2517.71C508.708 2518.88 511.3 2515.62 512.064 2514.46C513.954 2511.59 515.775 2508.68 517.663 2505.81C519.679 2502.74 522.261 2500.04 523.978 2496.8C524.208 2496.36 523.078 2497.26 522.774 2497.64C521.997 2498.63 521.442 2499.76 520.788 2500.83C519.934 2502.23 519.083 2503.62 518.249 2505.03C516.317 2508.28 513.576 2511.19 512.487 2514.82C512.089 2516.14 514.437 2512.84 515.254 2511.73C516.195 2510.44 517.125 2509.15 518.02 2507.83C520.671 2503.92 524.013 2500.43 526.126 2496.21C526.737 2494.99 524.053 2498.04 523.294 2499.17C520.189 2503.82 517.224 2508.55 514.114 2513.19C513.848 2513.59 512.865 2514.64 513.203 2514.3C517.081 2510.42 523.56 2501.92 525.182 2496.44C525.493 2495.39 523.433 2497.83 522.839 2498.75C521.176 2501.33 519.572 2503.95 517.956 2506.56C516.201 2509.39 511.961 2511.79 512.682 2515.05C512.752 2515.36 513.24 2514.69 513.431 2514.43C515.113 2512.12 516.728 2509.77 518.281 2507.37C520.519 2503.92 523.268 2500.72 524.856 2496.93C525.352 2495.74 522.964 2498.71 522.318 2499.82C521.542 2501.15 520.782 2502.49 520.006 2503.82C519.033 2505.49 513.901 2512.7 512.617 2516.06C512.511 2516.33 513.167 2515.78 513.333 2515.53C514.35 2514.04 515.177 2512.42 516.132 2510.88C517.262 2509.07 523.11 2501.87 523.945 2498.85C524.043 2498.49 523.252 2499.17 523.034 2499.47C522.087 2500.74 521.324 2502.14 520.495 2503.5C518.291 2507.1 516.193 2510.76 513.951 2514.33C513.807 2514.56 513.273 2515.18 513.463 2514.98C516.622 2511.75 518.581 2507.53 521.015 2503.73C521.507 2502.96 524.304 2499.29 524.661 2498.49C525.483 2496.65 522.156 2501.66 521.08 2503.37C519.852 2505.32 518.561 2507.23 517.304 2509.16C517.196 2509.33 516.187 2510.9 516.23 2510.92C516.869 2511.13 522.512 2503.36 522.512 2502.17C522.512 2501.78 521.906 2502.66 521.698 2502.98C520.923 2504.18 520.294 2505.48 519.582 2506.72C518.861 2507.98 518.133 2509.24 517.401 2510.49C517.286 2510.69 516.826 2511.01 517.043 2511.08C518.326 2511.51 521.363 2503.57 521.796 2502.52" fill="#00604b" fill-rule="nonzero" opacity="1" stroke="#007aff" stroke-linecap="butt" stroke-linejoin="round" stroke-opacity="0" stroke-width="15.8168" vectornator:layerName="Curve 18"/>
<path d="M509.377 2488.17C509.377 2488.17 509.036 2487.1 508.714 2486.65C505.693 2482.44 503.72 2478.87 501.336 2474.3C497.44 2466.84 493.675 2459.31 490.036 2451.72C478.799 2428.28 461.53 2407.75 448.648 2385.05C442.44 2374.11 436.659 2362.96 431.612 2351.39C431.066 2350.14 426.975 2340.46 425.553 2340.82C424.952 2340.97 426.321 2343.86 426.423 2344.06C429.423 2349.91 432.599 2355.28 436.096 2360.84C442.682 2371.31 448.667 2382.04 455.319 2392.46C457.846 2396.42 460.234 2400.48 462.868 2404.37C463.817 2405.77 467.194 2409.45 465.771 2408.54C458.486 2403.85 452.203 2390.98 447.138 2384.08C444.255 2380.16 441.431 2376.19 438.544 2372.26C437.828 2371.29 435.486 2368.52 436.238 2369.47C451.574 2388.75 465.795 2409 479.305 2429.61C484.567 2437.63 491.259 2451.87 498.836 2458.2" fill="#00604b" fill-rule="nonzero" opacity="1" stroke="#007aff" stroke-linecap="butt" stroke-linejoin="round" stroke-opacity="0" stroke-width="15.8168" vectornator:layerName="Curve 19"/>
<path d="M421.615 2345.67C421.615 2345.67 423.88 2342.33 425.289 2340.9C427.538 2338.62 431.426 2337.21 433.295 2334.68C433.764 2334.04 431.749 2335.06 431.049 2335.42C429.733 2336.1 428.484 2336.91 427.198 2337.65C425.068 2338.87 422.946 2340.23 420.77 2341.37C419.945 2341.8 417.909 2343.27 418.159 2342.37C418.739 2340.28 424.282 2337.72 425.947 2336.67C426.856 2336.09 427.651 2335.68 428.596 2335.11C429.033 2334.84 430.39 2334.19 429.89 2334.29C427.164 2334.86 424.437 2336.82 422.056 2338.18C420.086 2339.3 420.05 2339.43 418.056 2340.31C417.866 2340.39 417.341 2340.66 417.462 2340.49C417.657 2340.22 418.038 2340.15 418.311 2339.95C421.159 2337.92 424.094 2335.83 426.791 2333.58C426.962 2333.44 427.298 2333.34 427.278 2333.12C427.195 2332.2 419.264 2336.46 417.559 2336.95C417.36 2337 417.088 2337.25 416.956 2337.09C416.682 2336.76 424.623 2331.43 425.17 2331.03C425.861 2330.52 426.537 2329.99 427.227 2329.48C427.524 2329.26 428.448 2328.75 428.079 2328.77C424.212 2329.03 420.312 2334.1 416.656 2335.46C416.421 2335.55 417.135 2335.29 417.352 2335.17C418.121 2334.72 418.859 2334.22 419.608 2333.74C421.05 2332.82 424.053 2331.92 424.578 2330.32C424.607 2330.23 423.237 2330.73 420.774 2332.02C419.27 2332.82 417.715 2334.76 416.133 2334.14C415.761 2333.99 420.295 2329.98 420.747 2329.57C420.854 2329.47 421.616 2328.57 421.573 2328.56C419.987 2328.19 417.089 2332.2 415.987 2332.98C414.993 2333.69 417.706 2331.25 418.56 2330.38C419.081 2329.85 419.866 2329.46 420.086 2328.74C420.398 2327.74 417.988 2329.51 417.366 2330.36C417.302 2330.45 420.414 2329.05 419.219 2328.31C418.738 2328.01 416.544 2329.09 416.824 2329.68C416.911 2329.87 419.235 2327.63 416.94 2326.22C416.632 2326.02 417.248 2326.88 417.348 2327.22C417.491 2327.72 417.788 2329.05 418.232 2329.35C418.406 2329.47 417.943 2327.04 417.933 2327C417.858 2326.73 417.386 2325.11 417.212 2324.66C416.592 2323.08 419.49 2331.03 418.661 2329.55C418.163 2328.66 417.778 2327.67 417.284 2326.77C415.134 2322.84 417.891 2328.61 418.668 2329.04C419.625 2329.56 416.336 2324.49 416.161 2324.53C416.039 2324.56 416.241 2324.77 416.286 2324.88C416.847 2326.31 417.756 2327.74 418.618 2329.01" fill="#00604b" fill-rule="nonzero" opacity="1" stroke="#007aff" stroke-linecap="butt" stroke-linejoin="round" stroke-opacity="0" stroke-width="15.8168" vectornator:layerName="Curve 20"/>
<path d="M415.923 2323.4L415.923 2323.4" fill="#00604b" fill-rule="nonzero" opacity="1" stroke="#007aff" stroke-linecap="butt" stroke-linejoin="round" stroke-opacity="0" stroke-width="15.8168" vectornator:layerName="Curve 21"/>
<path d="M424.851 2318.6L424.851 2318.6" fill="#00604b" fill-rule="nonzero" opacity="1" stroke="#007aff" stroke-linecap="butt" stroke-linejoin="round" stroke-opacity="0" stroke-width="15.8168" vectornator:layerName="Curve 22"/>
<path d="M315.718 2152.13C315.718 2152.13 316.47 2154.32 316.847 2155.41C318.295 2159.62 319.492 2163.92 321.192 2168.03C325.514 2178.47 333.775 2187.34 339.729 2196.83C342.322 2200.96 345.596 2204.76 348.56 2208.63C349.349 2209.66 350.383 2212.73 351.055 2211.62C353.187 2208.1 337.516 2179.4 334.634 2175.12C332.909 2172.56 331.104 2170.05 329.135 2167.67C328.063 2166.38 326.149 2162.58 325.537 2164.15C323.962 2168.17 331.326 2178.1 332.712 2180.18C344.318 2197.65 356.693 2214.61 368.357 2232.05C375.541 2242.79 373.354 2239.66 380.552 2251.49C381.719 2253.41 384.849 2259.34 384.008 2257.27C375.474 2236.17 359.022 2216.67 346.151 2197.91C342.797 2193.03 339.486 2188.11 336.14 2183.22C335.056 2181.63 333.278 2176.61 332.86 2178.48C331.707 2183.64 346.898 2203.45 349.537 2207.74C364.886 2232.72 379.231 2263.86 398.217 2286.28C399.039 2287.25 397.457 2283.82 396.811 2282.73C395.531 2280.55 393.956 2278.57 392.475 2276.52C389.066 2271.82 385.527 2267.21 382.142 2262.49C373.725 2250.75 365.166 2239.13 357.129 2227.12C355.145 2224.16 352.619 2220.12 350.834 2216.83C350.39 2216.01 349.228 2213.47 349.603 2214.32C359.969 2237.85 377.175 2259.13 390.169 2281.53C394.813 2289.54 400.241 2304.68 407.287 2311.01C407.846 2311.51 406.837 2309.57 406.553 2308.88C405.283 2305.77 404.198 2302.57 402.625 2299.6C399.832 2294.34 396.565 2289.34 393.484 2284.24C387.966 2275.11 381.993 2266.28 376.009 2257.46C374.005 2254.5 372.171 2251.43 370.165 2248.47C369.858 2248.02 369.1 2246.62 369.166 2247.17C370.066 2254.59 380.796 2266.61 383.038 2269.88C390.081 2280.14 396.632 2290.86 403.245 2301.4C405.452 2304.92 410.062 2318.74 413.566 2319.66C414.852 2320 412.955 2317.06 412.432 2315.83C411.08 2312.68 409.585 2309.58 407.955 2306.56C407.216 2305.19 406.208 2303.99 405.341 2302.7C398.795 2292.96 392.566 2279.87 384.207 2271.68C383.296 2270.78 384.575 2274.24 385.121 2275.39C385.995 2277.24 386.934 2279.05 387.915 2280.84C389.075 2282.96 390.283 2285.05 391.54 2287.11C395.618 2293.79 399.673 2301.34 404.294 2307.64C404.705 2308.2 403.984 2306.28 403.781 2305.62C402.565 2301.63 403.19 2303.87 400.597 2299.57C396.117 2292.14 393.844 2287.73 389.497 2280.12C381.182 2265.56 369.823 2253.12 361.735 2238.36C351.158 2219.07 336.359 2201.94 329.159 2181.04C325.93 2171.67 322.498 2162.59 318.09 2153.7C316.824 2151.14 316.77 2150.97 315.132 2148.3C314.633 2147.49 314.24 2145.23 313.573 2145.91C312.994 2146.5 316.914 2154.08 318.953 2157.8C320.534 2160.69 330.355 2180.39 333.875 2181.43C334.132 2181.51 332.805 2177.8 332.741 2177.61C332.29 2176.3 331.862 2174.98 331.387 2173.68C330.772 2171.99 330.242 2170.27 329.473 2168.65C325.035 2159.31 319.89 2151.87 313.715 2143.66C313.276 2143.08 313.073 2141.68 312.383 2141.92C311.727 2142.15 312.786 2143.25 313.06 2143.89C313.718 2145.42 316.296 2150 316.69 2150.7C322.368 2160.81 328.606 2170.63 334.198 2180.77" fill="#00604b" fill-rule="nonzero" opacity="1" stroke="#007aff" stroke-linecap="butt" stroke-linejoin="round" stroke-opacity="0" stroke-width="15.8168" vectornator:layerName="Curve 23"/>
<path d="M185.677 2498.13L185.677 2498.13" fill="#00604b" fill-rule="nonzero" opacity="1" stroke="#007aff" stroke-linecap="butt" stroke-linejoin="round" stroke-opacity="0" stroke-width="15.8168" vectornator:layerName="Curve 24"/>
<path d="M415.472 1954.04C415.472 1954.04 413.933 1955.85 414.173 1955.3C414.452 1954.66 414.957 1954.03 415.398 1953.48C415.531 1953.32 415.963 1952.86 415.82 1953.01C415.211 1953.67 414.701 1954.48 414.147 1955.19C413.924 1955.47 413.249 1956.31 413.429 1956C413.918 1955.16 415.586 1953.61 415.726 1952.75C415.808 1952.24 415.019 1953.49 414.701 1953.89C414.382 1954.29 413.29 1956.09 412.744 1956.1C412.731 1956.1 414.445 1953.55 414.601 1953.35C414.647 1953.3 415.143 1952.77 415.108 1952.8C414.07 1953.53 413.339 1954.96 412.481 1955.89C412.261 1956.12 411.647 1956.84 411.754 1956.54C412.177 1955.33 414.714 1953.89 414.752 1952.69C414.768 1952.19 414.021 1953.38 413.712 1953.77C413.203 1954.42 412.723 1955.09 412.163 1955.69C411.945 1955.93 411.344 1956.66 411.47 1956.36C412.035 1955.03 413.285 1954.17 413.94 1952.94C414.209 1952.44 413.257 1953.86 412.921 1954.32C412.611 1954.74 412.275 1955.15 411.949 1955.57C411.715 1955.87 410.957 1956.71 411.156 1956.39C411.43 1955.94 411.777 1955.55 412.087 1955.13C412.682 1954.32 412.728 1954.25 413.186 1953.68C415.317 1951.02 411.849 1955.91 410.956 1956.24C410.61 1956.37 411.376 1955.63 411.593 1955.33C412.034 1954.72 412.726 1953.82 413.205 1953.23C413.4 1952.99 413.995 1952.27 413.812 1952.52C413.102 1953.49 412.02 1955.8 410.788 1956.18C410.621 1956.24 411.01 1955.91 411.117 1955.78C411.394 1955.42 411.676 1955.07 411.959 1954.71C412.49 1954.05 413.229 1952.76 413.992 1952.38C414.345 1952.21 413.517 1953.01 413.275 1953.32C412.686 1954.07 411.843 1955.11 411.169 1955.83C411.034 1955.98 410.666 1956.4 410.705 1956.2C410.849 1955.49 411.951 1954.5 412.466 1953.87C412.763 1953.51 413.75 1952.52 413.399 1952.83C412.689 1953.45 412.216 1954.29 411.601 1955C411.209 1955.45 410.997 1955.66 410.584 1956.02C410.558 1956.04 410.478 1956.1 410.501 1956.08C411.341 1955.17 412.084 1954.16 412.939 1953.26C413.097 1953.09 413.556 1952.58 413.436 1952.78C412.771 1953.86 411.414 1955.78 410.256 1956.27C409.865 1956.44 410.81 1955.63 411.081 1955.3C411.546 1954.74 412.021 1954.18 412.494 1953.62C412.706 1953.37 413.376 1952.66 413.129 1952.87C412.178 1953.7 411.473 1954.82 410.589 1955.72C410.403 1955.91 409.79 1956.41 409.971 1956.21C411.083 1955.03 412.324 1953.86 413.319 1952.57C413.658 1952.14 412.546 1953.37 412.172 1953.78C411.66 1954.34 411.234 1954.87 410.691 1955.41C410.365 1955.74 409.241 1956.19 409.674 1956.35C410.089 1956.51 410.787 1955.38 411.106 1955.08C412.01 1954.23 413.8 1952.52 413.8 1952.52C413.8 1952.52 413.065 1953.43 412.702 1953.88C411.977 1954.8 411.235 1955.7 410.513 1956.62C410.363 1956.81 409.883 1957.35 410.082 1957.21C412.432 1955.55 414.079 1952.82 416.591 1951.41C416.966 1951.21 416.338 1952.24 416.121 1952.61C415.58 1953.54 414.982 1954.43 414.393 1955.32C413.869 1956.12 413.231 1956.76 412.557 1957.42C412.444 1957.53 412.801 1957.22 412.908 1957.1C413.189 1956.8 413.447 1956.47 413.718 1956.15C414.019 1955.81 414.331 1955.47 414.624 1955.11C415.604 1953.93 416.699 1952.64 417.685 1951.41C418.15 1950.82 416.778 1952.59 416.326 1953.18C416.192 1953.36 416.038 1953.52 415.904 1953.69C415.004 1954.86 413.464 1955.9 412.725 1957.11C412.634 1957.25 413.022 1956.93 413.149 1956.81C413.722 1956.28 414.265 1955.71 414.82 1955.16C415.659 1954.33 416.447 1953.45 417.247 1952.58C417.331 1952.49 417.596 1952.22 417.515 1952.32C416.483 1953.52 415.5 1954.76 414.366 1955.86C413.947 1956.27 412.576 1957.36 413.068 1957.05C414.734 1955.98 416.04 1954.3 417.327 1952.83C417.555 1952.57 418.323 1951.91 418.001 1952.04C416.833 1952.5 414.871 1955.36 413.997 1956.14C413.876 1956.25 413.507 1956.58 413.628 1956.47C414.082 1956.05 414.521 1955.63 414.952 1955.19C415.469 1954.67 415.964 1954.13 416.472 1953.6C417.013 1953.03 417.548 1952.46 418.094 1951.9C418.611 1951.37 417.178 1953.07 416.705 1953.64C415.832 1954.69 414.377 1955.55 413.695 1956.66C413.622 1956.78 413.938 1956.52 414.033 1956.42C414.605 1955.81 415.164 1955.19 415.689 1954.54C416.499 1953.54 417.222 1952.47 417.934 1951.39C418.242 1950.93 419.399 1949.83 418.875 1950.02C418.672 1950.09 413.805 1956.07 413.592 1956.44C413.249 1957.02 414.613 1955.54 415.059 1955.03C415.28 1954.78 417.482 1952.06 417.889 1951.57C417.977 1951.46 418.237 1951.14 418.164 1951.26C416.825 1953.44 415.3 1955.99 413.155 1957.49" fill="#00604b" fill-rule="nonzero" opacity="1" stroke="#007aff" stroke-linecap="butt" stroke-linejoin="round" stroke-opacity="0" stroke-width="3.49075" vectornator:layerName="Curve 25"/>
<path d="M487.607 1398.17C487.607 1398.17 478.89 1398.07 474.533 1398.17C458.818 1398.54 449.908 1398.49 436.204 1400.5C431.825 1401.15 427.487 1402.05 423.13 1402.83C421.715 1403.09 417.397 1403.09 418.831 1403.19C426.883 1403.76 435.123 1402.99 443.189 1403.19C452.154 1403.41 462.992 1405.92 471.488 1401.76C478.457 1398.34 470.216 1394.19 466.831 1393.52C461.307 1392.42 455.62 1392.38 449.995 1392.08C429.683 1391.01 409.409 1390.42 389.1 1389.04C386.996 1388.9 365.957 1387.64 365.817 1387.79C364.388 1389.31 369.322 1390.08 371.19 1391.01C375.497 1393.16 380.328 1394.07 384.981 1395.31C401.3 1399.65 417.868 1401.91 434.772 1402.11C439.763 1402.18 446.096 1402.9 450.712 1399.97C451.543 1399.44 452.124 1397.8 451.428 1397.1C449.002 1394.67 443.048 1393.42 439.607 1393.34C430.953 1393.14 422.29 1393.08 413.637 1393.34C397.541 1393.82 381.532 1395.94 365.459 1396.92C359.975 1397.26 354.474 1397.18 348.981 1397.28C345.937 1397.33 342.891 1397.28 339.847 1397.28C339.19 1397.28 337.22 1397.28 337.877 1397.28C354.364 1397.28 370.841 1395.54 387.309 1394.77C393.403 1394.49 399.487 1394.04 405.578 1393.7C407.486 1393.59 413.215 1393.66 411.309 1393.52C403.113 1392.89 388.596 1394.9 382.652 1395.31C371.198 1396.09 359.732 1396.72 348.265 1397.28C343.077 1397.53 337.863 1397.66 332.683 1397.28C330.147 1397.09 327.64 1396.59 325.16 1396.03C324.457 1395.87 322.559 1395.48 323.19 1395.13C326.407 1393.34 352.411 1396.38 358.473 1396.38C363.429 1396.38 368.387 1396.57 373.339 1396.38C377.417 1396.23 382.632 1398.02 385.518 1395.13C386.109 1394.54 383.846 1395.12 383.011 1395.13C377.697 1395.18 372.382 1395.15 367.07 1395.31C355.25 1395.67 343.434 1396.31 331.608 1396.38C327.787 1396.41 323.966 1396.38 320.145 1396.38C318.115 1396.38 312.031 1396.24 314.056 1396.38C336.548 1398.03 358.037 1394.12 380.324 1391.37C382.706 1391.07 385.098 1390.86 387.488 1390.65C389.158 1390.5 394.175 1390.18 392.503 1390.29C372.745 1391.61 353.42 1394.87 333.578 1396.03C327.256 1396.39 320.923 1396.55 314.593 1396.74C312.564 1396.8 306.474 1396.74 308.504 1396.74C312.697 1396.74 316.848 1396.79 321.041 1396.38C332.282 1395.29 343.756 1395.36 354.712 1392.62C355.465 1392.43 353.159 1392.58 352.384 1392.62C347.069 1392.88 341.757 1393.22 336.444 1393.52C328.409 1393.97 319.428 1394.45 311.548 1394.95C311.009 1394.99 309.936 1394.59 309.936 1395.13C309.936 1396.89 313.374 1395.99 315.13 1396.03C323.543 1396.18 333.465 1397.05 341.459 1394.06C342.074 1393.82 340.145 1394.05 339.489 1394.06C335.847 1394.11 332.202 1394.08 328.563 1394.23C321.453 1394.54 314.252 1394.21 307.25 1395.49C305.605 1395.79 310.593 1395.49 312.265 1395.49C314.295 1395.49 316.328 1395.6 318.354 1395.49C325.231 1395.11 335.198 1394.8 341.1 1391.01C341.854 1390.53 339.308 1390.96 338.414 1391.01C334.41 1391.25 330.398 1391.44 326.414 1391.91C321.675 1392.46 316.986 1393.37 312.265 1394.06C310.885 1394.25 307.454 1393.56 308.145 1394.77C309.622 1397.35 331.666 1397.14 335.727 1397.28C365.433 1398.33 394.736 1398.42 424.204 1394.23C434.119 1392.83 443.99 1391.1 453.936 1389.94C455.301 1389.78 457.66 1388.44 458.055 1389.76C458.662 1391.78 439.213 1395.61 439.249 1395.85C439.649 1398.44 450.86 1398.81 451.786 1398.89C460.76 1399.67 469.691 1400.15 478.652 1400.86C490.968 1401.84 487.432 1401.9 497.816 1402.47C498.472 1402.51 500.251 1402.94 499.786 1402.47C497.723 1400.41 474.392 1403.26 471.667 1403.91C469.053 1404.53 477.04 1403.91 479.727 1403.91C486.435 1403.91 493.119 1403.21 499.786 1402.47C500.928 1402.35 503.858 1401.37 502.831 1400.86C497.731 1398.31 482.075 1401.5 477.936 1402.11C476.991 1402.26 479.846 1402.11 480.801 1402.11C483.547 1402.11 486.295 1402.19 489.04 1402.11C492.455 1402.03 505.851 1403.1 509.1 1400.5C509.58 1400.12 508.087 1399.74 507.488 1399.61C505.214 1399.09 502.814 1399.66 500.503 1399.97C496.61 1400.48 492.744 1401.17 488.861 1401.76C482.689 1402.68 474.919 1402.43 468.98 1404.8C467.761 1405.29 471.615 1404.95 472.921 1404.8C474.96 1404.57 476.976 1404.17 479.01 1403.91C486.234 1402.96 493.651 1402.54 500.682 1400.5C501.375 1400.3 502.77 1400.32 502.652 1399.61C502.092 1396.25 495.837 1399.18 492.443 1399.43C478.1 1400.49 479.273 1400.87 465.577 1404.62" fill="#00604b" fill-rule="nonzero" opacity="1" stroke="#007aff" stroke-linecap="butt" stroke-linejoin="round" stroke-opacity="0" stroke-width="31.3197" vectornator:layerName="Curve 26"/>
<path d="M479.995 1079.62L479.995 1079.62" fill="#00604b" fill-rule="nonzero" opacity="1" stroke="#007aff" stroke-linecap="butt" stroke-linejoin="round" stroke-opacity="0" stroke-width="31.3197" vectornator:layerName="Curve 30"/>
<path d="M502.918 1067.03L502.918 1067.03" fill="#00604b" fill-rule="nonzero" opacity="1" stroke="#007aff" stroke-linecap="butt" stroke-linejoin="round" stroke-opacity="0" stroke-width="31.3197" vectornator:layerName="Curve 31"/>
<path d="M483.189 1094.65L483.189 1094.65" fill="#00604b" fill-rule="nonzero" opacity="1" stroke="#007aff" stroke-linecap="butt" stroke-linejoin="round" stroke-opacity="0" stroke-width="31.3197" vectornator:layerName="Curve 32"/>
<path d="M399.575 1194.61L399.575 1194.61" fill="#00604b" fill-rule="nonzero" opacity="1" stroke="#007aff" stroke-linecap="butt" stroke-linejoin="round" stroke-opacity="0" stroke-width="31.3197" vectornator:layerName="Curve 33"/>
<path d="M504.046 1063.65L504.046 1063.65" fill="#00604b" fill-rule="nonzero" opacity="1" stroke="#007aff" stroke-linecap="butt" stroke-linejoin="round" stroke-opacity="0" stroke-width="31.3197" vectornator:layerName="Curve 34"/>
<path d="M504.046 1063.65L504.046 1063.65" fill="#00604b" fill-rule="nonzero" opacity="1" stroke="#007aff" stroke-linecap="butt" stroke-linejoin="round" stroke-opacity="0" stroke-width="31.3197" vectornator:layerName="Curve 36"/>
<path d="M504.046 1063.65L504.046 1063.65" fill="#00604b" fill-rule="nonzero" opacity="1" stroke="#007aff" stroke-linecap="butt" stroke-linejoin="round" stroke-opacity="0" stroke-width="31.3197" vectornator:layerName="Curve 38"/>
<path d="M378.718 1172.81L378.718 1172.81C382.1 1179.33 385.482 1185.84 388.865 1192.36" fill="#00604b" fill-rule="nonzero" opacity="1" stroke="#007aff" stroke-linecap="butt" stroke-linejoin="round" stroke-opacity="0" stroke-width="31.3197" vectornator:layerName="Curve 40"/>
<path d="M385.107 1189.35L385.107 1189.35" fill="#00604b" fill-rule="nonzero" opacity="1" stroke="#007aff" stroke-linecap="butt" stroke-linejoin="round" stroke-opacity="0" stroke-width="31.3197" vectornator:layerName="Curve 42"/>
<path d="M318.002 1064.62C318.002 1064.62 317.309 1062.49 316.846 1061.46C315.042 1057.48 313.028 1053.6 311.221 1049.62C308.942 1044.6 307.835 1040.59 304.034 1036.65L318.002 1064.62Z" fill="#00604b" fill-rule="nonzero" opacity="1" stroke="#007aff" stroke-linecap="butt" stroke-linejoin="round" stroke-opacity="0" stroke-width="31.3197" vectornator:layerName="Curve 67"/>
<path d="M406.242 1032.43C406.242 1032.43 408.16 1032.9 409.136 1032.89C413.421 1032.85 417.698 1032.49 421.979 1032.29" fill="#00604b" fill-rule="nonzero" opacity="1" stroke="#007aff" stroke-linecap="butt" stroke-linejoin="round" stroke-opacity="0" stroke-width="31.3197" vectornator:layerName="Curve 45"/>
<path d="M476.026 1035.51C476.026 1035.51 478.997 1036.08 480.482 1036.37" fill="#00604b" fill-rule="nonzero" opacity="1" stroke="#007aff" stroke-linecap="butt" stroke-linejoin="round" stroke-opacity="0" stroke-width="31.3197" vectornator:layerName="Curve 47"/>
<path d="M312.743 314.331L312.743 314.331" fill="#00604b" fill-rule="nonzero" opacity="1" stroke="#007aff" stroke-linecap="butt" stroke-linejoin="round" stroke-opacity="0" stroke-width="31.3197" vectornator:layerName="Curve 52"/>
<path d="M306.918 307.084L306.918 307.084" fill="#00604b" fill-rule="nonzero" opacity="1" stroke="#007aff" stroke-linecap="butt" stroke-linejoin="round" stroke-opacity="0" stroke-width="31.3197" vectornator:layerName="Curve 53"/>
<path d="M303.808 303.123L303.808 303.123" fill="#00604b" fill-rule="nonzero" opacity="1" stroke="#007aff" stroke-linecap="butt" stroke-linejoin="round" stroke-opacity="0" stroke-width="31.3197" vectornator:layerName="Curve 54"/>
<path d="M306.943 305.46C306.943 305.46 304.942 303.487 303.942 302.501" fill="#00604b" fill-rule="nonzero" opacity="1" stroke="#007aff" stroke-linecap="butt" stroke-linejoin="round" stroke-opacity="0" stroke-width="31.3197" vectornator:layerName="Curve 55"/>
<path d="M307.367 328.627L307.367 328.627" fill="#00604b" fill-rule="nonzero" opacity="1" stroke="#007aff" stroke-linecap="butt" stroke-linejoin="round" stroke-opacity="0" stroke-width="31.3197" vectornator:layerName="Curve 56"/>
<path d="M303.056 321.061L303.056 321.061" fill="#00604b" fill-rule="nonzero" opacity="1" stroke="#007aff" stroke-linecap="butt" stroke-linejoin="round" stroke-opacity="0" stroke-width="31.3197" vectornator:layerName="Curve 57"/>
<path d="M304.248 311.162L304.248 311.162" fill="#00604b" fill-rule="nonzero" opacity="1" stroke="#007aff" stroke-linecap="butt" stroke-linejoin="round" stroke-opacity="0" stroke-width="31.3197" vectornator:layerName="Curve 58"/>
<path d="M303.9 315.876L303.9 315.876" fill="#00604b" fill-rule="nonzero" opacity="1" stroke="#007aff" stroke-linecap="butt" stroke-linejoin="round" stroke-opacity="0" stroke-width="31.3197" vectornator:layerName="Curve 59"/>
<path d="M303.392 300.125L303.392 300.125" fill="#00604b" fill-rule="nonzero" opacity="1" stroke="#007aff" stroke-linecap="butt" stroke-linejoin="round" stroke-opacity="0" stroke-width="31.3197" vectornator:layerName="Curve 60"/>
<path d="M309.566 2691.5L203.734 2691.44C203.47 2691.44 203.305 2691.15 203.437 2690.92L256.406 2599.3L309.374 2507.68C309.506 2507.45 309.837 2507.45 309.969 2507.68L362.832 2599.36L415.695 2691.05C415.827 2691.27 415.662 2691.56 415.397 2691.56L400.715 2691.55L309.566 2691.5Z" fill="#18cba5" fill-rule="nonzero" opacity="1" stroke="#007aff" stroke-linecap="butt" stroke-linejoin="round" stroke-opacity="0" stroke-width="0.012153" vectornator:layerName="Star 24"/>
<path d="M405.872 1400.67L300.041 1400.75C299.777 1400.75 299.611 1400.47 299.743 1400.24L352.587 1308.54L405.431 1216.85C405.563 1216.62 405.893 1216.62 406.025 1216.85L459.013 1308.46L512.001 1400.07C512.133 1400.3 511.968 1400.59 511.704 1400.59L497.022 1400.6L405.872 1400.67Z" fill="#18cba5" fill-rule="nonzero" opacity="1" stroke="#007aff" stroke-linecap="butt" stroke-linejoin="round" stroke-opacity="0" stroke-width="0.012153" vectornator:layerName="Star 25"/>
<path d="M404.603 293.505L510.435 293.48C510.699 293.48 510.864 293.766 510.732 293.995L457.838 385.66L404.943 477.326C404.811 477.555 404.481 477.555 404.349 477.326L351.412 385.686L298.474 294.045C298.342 293.816 298.507 293.531 298.771 293.53L313.454 293.527L404.603 293.505Z" fill="#18cba5" fill-rule="nonzero" opacity="1" stroke="#007aff" stroke-linecap="butt" stroke-linejoin="round" stroke-opacity="0" stroke-width="0.012153" vectornator:layerName="Star 26"/>
<path d="M404.104 663.954L509.935 663.928C510.199 663.928 510.365 664.214 510.233 664.443L457.339 756.108L404.444 847.774C404.312 848.003 403.982 848.003 403.85 847.774L350.913 756.134L297.975 664.493C297.843 664.265 298.008 663.979 298.272 663.979L312.954 663.975L404.104 663.954Z" fill="#18cba5" fill-rule="nonzero" opacity="1" stroke="#007aff" stroke-linecap="butt" stroke-linejoin="round" stroke-opacity="0" stroke-width="0.012153" vectornator:layerName="Star 27"/>
<path d="M415.991 2138.81L521.823 2138.79C522.087 2138.79 522.252 2139.07 522.12 2139.3L469.226 2230.97L416.332 2322.63C416.2 2322.86 415.87 2322.86 415.738 2322.63L362.8 2230.99L309.863 2139.35C309.731 2139.12 309.896 2138.84 310.16 2138.84L324.842 2138.83L415.991 2138.81Z" fill="#18cba5" fill-rule="nonzero" opacity="1" stroke="#007aff" stroke-linecap="butt" stroke-linejoin="round" stroke-opacity="0" stroke-width="0.012153" vectornator:layerName="Star 28"/>
<path d="M406.626 1032.01L300.794 1032.09C300.53 1032.09 300.365 1031.8 300.497 1031.57L353.341 939.88L406.184 848.185C406.316 847.957 406.646 847.956 406.779 848.185L459.766 939.796L512.754 1031.41C512.886 1031.64 512.722 1031.92 512.457 1031.92L497.775 1031.93L406.626 1032.01Z" fill="#142800" fill-rule="nonzero" opacity="1" stroke="#007aff" stroke-linecap="butt" stroke-linejoin="round" stroke-opacity="0" stroke-width="0.012153" vectornator:layerName="Star 29"/>
<path d="M609.315-62.8428L715.146-62.8679C715.411-62.8679 715.576-62.582 715.444-62.3533L662.55 29.3122L609.655 120.978C609.523 121.206 609.193 121.206 609.061 120.978L556.124 29.3374L503.186-62.303C503.054-62.5317 503.219-62.8177 503.483-62.8177L518.165-62.8212L609.315-62.8428Z" fill="#142800" fill-rule="nonzero" opacity="1" stroke="#007aff" stroke-linecap="butt" stroke-linejoin="round" stroke-opacity="0" stroke-width="0.012153" vectornator:layerName="Star 30"/>
<path d="M309.816 1954.79L415.648 1954.77C415.912 1954.77 416.077 1955.06 415.945 1955.28L363.051 2046.95L310.157 2138.62C310.025 2138.84 309.695 2138.84 309.562 2138.62L256.625 2046.97L203.687 1955.33C203.555 1955.11 203.72 1954.82 203.984 1954.82L218.667 1954.82L309.816 1954.79Z" fill="#142800" fill-rule="nonzero" opacity="1" stroke="#007aff" stroke-linecap="butt" stroke-linejoin="round" stroke-opacity="0" stroke-width="0.012153" vectornator:layerName="Star 31"/>
<path d="M525.775 2694.52L631.607 2694.49C631.871 2694.49 632.036 2694.78 631.904 2695.01L579.01 2786.67L526.116 2878.34C525.984 2878.56 525.654 2878.57 525.522 2878.34L472.584 2786.7L419.646 2695.06C419.514 2694.83 419.679 2694.54 419.944 2694.54L434.626 2694.54L525.775 2694.52Z" fill="#142800" fill-rule="nonzero" opacity="1" stroke="#007aff" stroke-linecap="butt" stroke-linejoin="round" stroke-opacity="0" stroke-width="0.012153" vectornator:layerName="Star 32"/>
<path d="M406.625 2878.53L482.269 2878.51C482.458 2878.51 482.576 2878.71 482.481 2878.88L444.675 2944.39L406.869 3009.91C406.774 3010.08 406.538 3010.08 406.444 3009.91L368.606 2944.41L330.769 2878.91C330.674 2878.75 330.792 2878.54 330.981 2878.54L341.476 2878.54L406.625 2878.53Z" fill="#28ba99" fill-rule="nonzero" opacity="1" stroke="#007aff" stroke-linecap="butt" stroke-linejoin="round" stroke-opacity="0" stroke-width="0.00868642" vectornator:layerName="Star 7"/>
<path d="M472.813 125.754L397.172 125.112C396.983 125.111 396.867 124.905 396.963 124.743L435.339 59.5561L473.715-5.63035C473.81-5.79303 474.046-5.79103 474.139-5.62675L511.405 60.2012L548.67 126.029C548.763 126.193 548.643 126.397 548.454 126.395L537.96 126.306L472.813 125.754Z" fill="#28ba99" fill-rule="nonzero" opacity="1" stroke="#007aff" stroke-linecap="butt" stroke-linejoin="round" stroke-opacity="0" stroke-width="0.00868642" vectornator:layerName="Star 14"/>
<path d="M164.416 1375.52L88.7748 1374.88C88.5861 1374.88 88.4698 1374.67 88.5656 1374.51L126.942 1309.32L165.318 1244.13C165.414 1243.97 165.65 1243.97 165.743 1244.14L203.008 1309.97L240.273 1375.79C240.366 1375.96 240.246 1376.16 240.057 1376.16L229.563 1376.07L164.416 1375.52Z" fill="#28ba99" fill-rule="nonzero" opacity="1" stroke="#007aff" stroke-linecap="butt" stroke-linejoin="round" stroke-opacity="0" stroke-width="0.00868642" vectornator:layerName="Star 12"/>
<path d="M272.547 1638.52L196.906 1637.88C196.717 1637.88 196.601 1637.67 196.697 1637.51L235.073 1572.32L273.449 1507.13C273.544 1506.97 273.78 1506.97 273.873 1507.14L311.139 1572.97L348.404 1638.79C348.497 1638.96 348.377 1639.16 348.188 1639.16L337.694 1639.07L272.547 1638.52Z" fill="#28ba99" fill-rule="nonzero" opacity="1" stroke="#007aff" stroke-linecap="butt" stroke-linejoin="round" stroke-opacity="0" stroke-width="0.00868642" vectornator:layerName="Star 9"/>
<path d="M192.768 2137.95L117.127 2137.31C116.938 2137.31 116.822 2137.1 116.918 2136.94L155.294 2071.75L193.67 2006.57C193.766 2006.41 194.002 2006.41 194.095 2006.57L231.36 2072.4L268.625 2138.23C268.718 2138.39 268.598 2138.6 268.409 2138.59L257.915 2138.5L192.768 2137.95Z" fill="#28ba99" fill-rule="nonzero" opacity="1" stroke="#007aff" stroke-linecap="butt" stroke-linejoin="round" stroke-opacity="0" stroke-width="0.00868642" vectornator:layerName="Star 8"/>
<path d="M236.103 2380.7L311.747 2380.68C311.936 2380.68 312.054 2380.88 311.96 2381.05L274.153 2446.56L236.347 2512.08C236.253 2512.25 236.017 2512.25 235.922 2512.08L198.085 2446.58L160.247 2381.08C160.153 2380.92 160.271 2380.71 160.459 2380.71L170.954 2380.71L236.103 2380.7Z" fill="#28ba99" fill-rule="nonzero" opacity="1" stroke="#007aff" stroke-linecap="butt" stroke-linejoin="round" stroke-opacity="0" stroke-width="0.00868642" vectornator:layerName="Star 6"/>
<path d="M170.026 314.349L245.67 314.331C245.859 314.331 245.977 314.535 245.882 314.699L208.076 380.217L170.269 445.736C170.175 445.899 169.939 445.899 169.845 445.736L132.007 380.235L94.1697 314.735C94.0752 314.571 94.1932 314.367 94.3819 314.367L104.876 314.364L170.026 314.349Z" fill="#28ba99" fill-rule="nonzero" opacity="1" stroke="#007aff" stroke-linecap="butt" stroke-linejoin="round" stroke-opacity="0" stroke-width="0.00868642" vectornator:layerName="Star 11"/>
<path d="M301.134 847.174L376.778 847.156C376.966 847.156 377.084 847.36 376.99 847.524L339.184 913.042L301.377 978.561C301.283 978.724 301.047 978.724 300.952 978.561L263.115 913.06L225.277 847.559C225.183 847.396 225.301 847.192 225.49 847.192L235.984 847.189L301.134 847.174Z" fill="#28ba99" fill-rule="nonzero" opacity="1" stroke="#007aff" stroke-linecap="butt" stroke-linejoin="round" stroke-opacity="0" stroke-width="0.00868642" vectornator:layerName="Star 10"/>
<path d="M472.817 125.343L548.458 125.99C548.647 125.992 548.763 126.197 548.668 126.36L510.287 191.543L471.906 256.727C471.81 256.89 471.574 256.888 471.481 256.723L434.221 190.893L396.961 125.062C396.868 124.898 396.987 124.695 397.176 124.696L407.67 124.786L472.817 125.343Z" fill="#28ba99" fill-rule="nonzero" opacity="1" stroke="#007aff" stroke-linecap="butt" stroke-linejoin="round" stroke-opacity="0" stroke-width="0.00868642" vectornator:layerName="Star 15"/>
<path d="M164.416 1375.02L240.057 1375.67C240.246 1375.67 240.362 1375.87 240.266 1376.04L201.886 1441.22L163.505 1506.4C163.409 1506.57 163.173 1506.56 163.08 1506.4L125.82 1440.57L88.5593 1374.74C88.4663 1374.57 88.5861 1374.37 88.7748 1374.37L99.2688 1374.46L164.416 1375.02Z" fill="#28ba99" fill-rule="nonzero" opacity="1" stroke="#007aff" stroke-linecap="butt" stroke-linejoin="round" stroke-opacity="0" stroke-width="0.00868642" vectornator:layerName="Star 13"/>
<path d="M365.979 1733.6L441.623 1733.58C441.812 1733.58 441.93 1733.79 441.835 1733.95L404.029 1799.47L366.222 1864.99C366.128 1865.15 365.892 1865.15 365.798 1864.99L327.96 1799.49L290.123 1733.99C290.028 1733.82 290.146 1733.62 290.335 1733.62L300.829 1733.61L365.979 1733.6Z" fill="#28ba99" fill-rule="nonzero" opacity="1" stroke="#007aff" stroke-linecap="butt" stroke-linejoin="round" stroke-opacity="0" stroke-width="0.00868642" vectornator:layerName="Star 5"/>
<path d="M404.869 2816.72L370.368 2816.72C370.282 2816.72 370.229 2816.62 370.272 2816.55L387.522 2786.67L404.772 2756.79C404.815 2756.72 404.923 2756.72 404.966 2756.79L422.217 2786.67L439.467 2816.55C439.51 2816.62 439.456 2816.72 439.37 2816.72L434.584 2816.72L404.869 2816.72Z" fill="#000000" fill-rule="nonzero" opacity="1" stroke="#007aff" stroke-linecap="butt" stroke-linejoin="round" stroke-opacity="0" stroke-width="0.00396183" vectornator:layerName="Star 12"/>
<path d="M236.103 1902.35L201.603 1902.35C201.517 1902.35 201.463 1902.26 201.506 1902.18L218.756 1872.31L236.007 1842.43C236.05 1842.35 236.157 1842.35 236.2 1842.43L253.451 1872.31L270.701 1902.18C270.744 1902.26 270.69 1902.35 270.604 1902.35L265.818 1902.35L236.103 1902.35Z" fill="#000000" fill-rule="nonzero" opacity="1" stroke="#007aff" stroke-linecap="butt" stroke-linejoin="round" stroke-opacity="0" stroke-width="0.00396183" vectornator:layerName="Star 11"/>
<path d="M142.829 287.139L108.328 287.139C108.242 287.139 108.188 287.046 108.231 286.972L125.482 257.093L142.732 227.215C142.775 227.14 142.883 227.14 142.926 227.215L160.176 257.093L177.427 286.972C177.47 287.046 177.416 287.139 177.33 287.139L172.543 287.139L142.829 287.139Z" fill="#000000" fill-rule="nonzero" opacity="1" stroke="#007aff" stroke-linecap="butt" stroke-linejoin="round" stroke-opacity="0" stroke-width="0.00396183" vectornator:layerName="Star 10"/>
</g>
</g>
</svg>
